<?xml version="1.0" encoding="UTF-8"?>
<svg xmlns="http://www.w3.org/2000/svg" xmlns:xlink="http://www.w3.org/1999/xlink" version="1.2" >
<font id="Effra Corp Bold">
<font-face  font-family="Effra Corp" units-per-em="1000" ascent="798" descent="-202" font-style="italic" font-weight="700" font-stretch="normal" cap-height="667" x-height="469" underline-position="-145" underline-thickness="45" />
<missing-glyph  horiz-adv-x="500" d="M50 0 L50 750 L450 750 L450 0 L50 0 Z M400 50 L400 700 L100 700 L100 50 L400 50 Z " />
<glyph glyph-name="&amp;#x0;" d="" />
<glyph glyph-name="&amp;#x8;" unicode="&#x8;" d="" />
<glyph glyph-name="&amp;#x1d;" unicode="&#x1d;" d="" />
<glyph glyph-name="&amp;#x9;" unicode="&#x9;" horiz-adv-x="181" d="" />
<glyph glyph-name="&amp;#xd;" unicode="&#xd;" horiz-adv-x="181" d="" />
<glyph glyph-name="space" unicode="&#x20;" horiz-adv-x="181" d="" />
<glyph glyph-name="exclam" unicode="&#x21;" horiz-adv-x="292" d="M67 667 L225 667 L219 217 L73 217 L67 667 Z M67 154 L224 154 L224 0 L67 0 L67 154 Z " />
<glyph glyph-name="quotedbl" unicode="&#x22;" horiz-adv-x="422" d="M241 667 L374 667 L374 418 L241 418 L241 667 Z M47 667 L180 667 L180 418 L47 418 L47 667 Z " />
<glyph glyph-name="numbersign" unicode="&#x23;" horiz-adv-x="729" d="M146 145 L53 145 L53 246 L173 246 L208 376 L115 376 L115 477 L235 477 L276 629 L389 629 L348 477 L472 477 L513 629 L626 629 L585 477 L675 477 L675 376 L558 376 L523 246 L613 246 L613 145 L496 145 L457 0 L344 0 L383 145 L259 145 L220 0 L107 0 L146 145 Z M410 246 L445 376 L321 376 L286 246 L410 246 Z " />
<glyph glyph-name="dollar" unicode="&#x24;" horiz-adv-x="545" d="M100 190 Q129 159 174.5 134.5 Q220 110 277 110 Q293 110 309 113 Q325 116 338 123.5 Q351 131 359 143.5 Q367 156 367 174 Q367 205 338 223.5 Q309 242 240 259 L216 267 Q131 291 86 337 Q41 383 41 455 Q41 532 90.5 580.5 Q140 629 227 640 L227 729 L323 729 L323 640 Q387 632 427.5 607 Q468 582 491 560 L405 464 Q396 472 383 481.5 Q370 491 353.5 499.5 Q337 508 317.5 513.5 Q298 519 276 519 Q261 519 244 515.5 Q227 512 213 505 Q199 498 190 486 Q181 474 181 458 Q181 426 211 410.5 Q241 395 303 379 Q340 370 377 355 Q414 340 443.5 316.5 Q473 293 491 259 Q509 225 509 176 Q509 137 494.5 105.5 Q480 74 455 50.5 Q430 27 396 11.5 Q362 -4 323 -10 L323 -107 L227 -107 L227 -14 Q155 -7 100 22.5 Q45 52 10 90 L100 190 Z " />
<glyph glyph-name="percent" unicode="&#x25;" horiz-adv-x="925" d="M597 630 L722 630 L322 0 L195 0 L597 630 Z M714 -10 Q638 -10 595.5 38.5 Q553 87 553 172 Q553 257 595.5 304.5 Q638 352 714 352 Q790 352 832.5 304.5 Q875 257 875 172 Q875 87 832.5 38.5 Q790 -10 714 -10 Z M714 77 Q740 77 753.5 103.5 Q767 130 767 172 Q767 213 753.5 239.5 Q740 266 714 266 Q688 266 674.5 239.5 Q661 213 661 172 Q661 130 674.5 103.5 Q688 77 714 77 Z M209 284 Q133 284 90.5 332.5 Q48 381 48 466 Q48 551 90.5 598.5 Q133 646 209 646 Q285 646 327.5 598.5 Q370 551 370 466 Q370 381 327.5 332.5 Q285 284 209 284 Z M209 371 Q235 371 248.5 397.5 Q262 424 262 466 Q262 507 248.5 533.5 Q235 560 209 560 Q183 560 169.5 533.5 Q156 507 156 466 Q156 424 169.5 397.5 Q183 371 209 371 Z " />
<glyph glyph-name="ampersand" unicode="&#x26;" horiz-adv-x="666" d="M435 55 Q390 18 346.5 1 Q303 -16 248 -16 Q198 -16 157.5 -1.5 Q117 13 88 38.5 Q59 64 43.5 99.5 Q28 135 28 178 Q28 237 59 290.5 Q90 344 159 386 Q136 417 125.5 449.5 Q115 482 115 511 Q115 547 129.5 578.5 Q144 610 170.5 633.5 Q197 657 234.5 671 Q272 685 319 685 Q392 685 437.5 651 Q483 617 506 569 L404 506 Q388 540 368 554 Q348 568 325 568 Q295 568 276.5 550.5 Q258 533 258 507 Q258 487 268.5 468.5 Q279 450 293 433 L449 248 L539 351 L636 266 L533 149 L659 0 L482 0 L435 55 Z M233 295 Q197 269 183 244 Q169 219 169 190 Q169 154 193.5 132 Q218 110 260 110 Q289 110 310.5 121 Q332 132 355 152 L233 295 Z " />
<glyph glyph-name="quotesingle" unicode="&#x27;" horiz-adv-x="227" d="M47 667 L180 667 L180 418 L47 418 L47 667 Z " />
<glyph glyph-name="parenleft" unicode="&#x28;" horiz-adv-x="322" d="M151 -93 Q141 -75 125 -38.5 Q109 -2 93.5 49.5 Q78 101 67 166 Q56 231 56 306 Q56 381 67 446 Q78 511 93.5 562.5 Q109 614 125 651 Q141 688 151 706 L295 706 Q285 688 269.5 649 Q254 610 240 556.5 Q226 503 215.5 439 Q205 375 205 306 Q205 238 215.5 173.5 Q226 109 240 56 Q254 3 269.5 -36 Q285 -75 295 -93 L151 -93 Z " />
<glyph glyph-name="parenright" unicode="&#x29;" horiz-adv-x="322" d="M27 -93 Q37 -75 52.5 -36 Q68 3 82 56 Q96 109 106.5 173.5 Q117 238 117 306 Q117 375 106.5 439 Q96 503 82 556.5 Q68 610 52.5 649 Q37 688 27 706 L171 706 Q181 688 197 651 Q213 614 228.5 562.5 Q244 511 255 446 Q266 381 266 306 Q266 231 255 166 Q244 101 228.5 49.5 Q213 -2 197 -38.5 Q181 -75 171 -93 L27 -93 Z " />
<glyph glyph-name="asterisk" unicode="&#x2a;" horiz-adv-x="493" d="M49 468 L157 518 L49 568 L105 665 L200 599 L190 714 L302 714 L294 598 L388 663 L444 566 L337 519 L444 469 L388 372 L293 438 L302 322 L190 322 L201 436 L105 371 L49 468 Z " />
<glyph glyph-name="plus" unicode="&#x2b;" horiz-adv-x="545" d="M73 376 L213 376 L213 518 L331 518 L331 376 L472 376 L472 261 L331 261 L331 121 L213 121 L213 261 L73 261 L73 376 Z " />
<glyph glyph-name="comma" unicode="&#x2c;" horiz-adv-x="285" d="M122 0 L65 0 L65 160 L230 160 L230 1 L146 -143 L59 -143 L122 0 Z " />
<glyph glyph-name="hyphen" unicode="&#x2d;" horiz-adv-x="445" d="M64 348 L381 348 L381 211 L64 211 L64 348 Z " />
<glyph glyph-name="period" unicode="&#x2e;" horiz-adv-x="285" d="M61 159 L224 159 L224 0 L61 0 L61 159 Z " />
<glyph glyph-name="slash" unicode="&#x2f;" horiz-adv-x="448" d="M286 685 L428 685 L165 -16 L20 -16 L286 685 Z " />
<glyph glyph-name="zero" unicode="0" horiz-adv-x="545" d="M272 -16 Q210 -16 164 8.5 Q118 33 86.5 77 Q55 121 39.5 183 Q24 245 24 319 Q24 392 39.5 453 Q55 514 86.5 557 Q118 600 164.5 624 Q211 648 273 648 Q336 648 383 624 Q430 600 460.5 557 Q491 514 506 453 Q521 392 521 319 Q521 245 506 183 Q491 121 460 77 Q429 33 382.5 8.5 Q336 -16 272 -16 Z M273 115 Q300 115 319.5 131 Q339 147 351.5 174.5 Q364 202 369.5 239 Q375 276 375 319 Q375 361 369 397 Q363 433 350.5 459.5 Q338 486 318.5 501 Q299 516 272 516 Q245 516 225.5 501 Q206 486 193.5 459.5 Q181 433 175.5 397 Q170 361 170 319 Q170 276 175.5 239 Q181 202 193.5 174.5 Q206 147 225.5 131 Q245 115 273 115 Z " />
<glyph glyph-name="one" unicode="1" horiz-adv-x="545" d="M112 123 L221 123 L221 473 L116 417 L55 527 L242 630 L361 630 L361 123 L464 123 L464 0 L112 0 L112 123 Z " />
<glyph glyph-name="two" unicode="2" horiz-adv-x="545" d="M49 85 Q49 135 69.5 175 Q90 215 121 248 Q152 281 188.5 308.5 Q225 336 256 360.5 Q287 385 307.5 408.5 Q328 432 328 457 Q328 481 309 502 Q290 523 246 523 Q224 523 206.5 516 Q189 509 175.5 498.5 Q162 488 152.5 475.5 Q143 463 136 453 L31 526 Q44 548 64.5 570 Q85 592 113.5 609.5 Q142 627 179 637.5 Q216 648 262 648 Q316 648 356 632.5 Q396 617 422.5 592 Q449 567 462 535 Q475 503 475 469 Q475 424 456 388 Q437 352 408 322 Q379 292 345.5 266.5 Q312 241 283 218 Q254 195 234.5 173 Q215 151 215 128 L478 128 L478 0 L49 0 L49 85 Z " />
<glyph glyph-name="three" unicode="3" horiz-adv-x="545" d="M88 163 Q119 136 151.5 121.5 Q184 107 223 107 Q269 107 299.5 132 Q330 157 330 202 Q330 237 306.5 264 Q283 291 232 291 Q213 291 196.5 287.5 Q180 284 171 280 L134 339 L295 504 L60 504 L60 629 L456 629 L456 526 L325 378 Q400 364 438.5 315 Q477 266 477 192 Q477 142 456.5 103 Q436 64 402 37.5 Q368 11 323.5 -3 Q279 -17 231 -17 Q161 -17 105.5 4 Q50 25 10 61 L88 163 Z " />
<glyph glyph-name="four" unicode="4" horiz-adv-x="545" d="M29 226 L301 630 L444 630 L444 228 L508 228 L508 115 L444 115 L444 0 L310 0 L310 115 L29 115 L29 226 Z M310 228 L310 461 L158 228 L310 228 Z " />
<glyph glyph-name="five" unicode="5" horiz-adv-x="545" d="M93 163 Q120 138 151 123 Q182 108 224 108 Q252 108 272.5 116.5 Q293 125 306 139 Q319 153 325 171 Q331 189 331 208 Q331 223 325 240 Q319 257 306 271 Q293 285 272 294 Q251 303 221 303 Q195 303 173 297.5 Q151 292 131 284 L65 333 L120 629 L460 629 L460 503 L219 503 L200 402 Q207 405 225.5 407.5 Q244 410 263 410 Q309 410 348 396 Q387 382 415.5 355.5 Q444 329 459.5 292 Q475 255 475 209 Q475 164 460.5 123 Q446 82 415.5 51 Q385 20 338.5 1.5 Q292 -17 228 -17 Q156 -17 105 5.5 Q54 28 16 63 L93 163 Z " />
<glyph glyph-name="six" unicode="6" horiz-adv-x="545" d="M433 497 Q421 503 393.5 513.5 Q366 524 332 524 Q305 524 280.5 513.5 Q256 503 237 483.5 Q218 464 205 437 Q192 410 189 377 Q211 391 241 402.5 Q271 414 309 414 Q355 414 392.5 399 Q430 384 456 357 Q482 330 496 292 Q510 254 510 208 Q510 162 495 121 Q480 80 451 49.5 Q422 19 380.5 1 Q339 -17 285 -17 Q234 -17 189.5 0.5 Q145 18 112.5 56.5 Q80 95 61.5 154.5 Q43 214 43 298 Q43 372 61.5 436 Q80 500 117 547 Q154 594 207.5 621 Q261 648 332 648 Q386 648 424.5 634 Q463 620 487 608 L433 497 Z M186 264 Q186 219 194.5 188.5 Q203 158 216.5 140 Q230 122 248 114.5 Q266 107 285 107 Q327 107 351.5 135.5 Q376 164 376 209 Q376 251 351 275 Q326 299 288 299 Q252 299 227.5 288.5 Q203 278 186 264 Z " />
<glyph glyph-name="seven" unicode="7" horiz-adv-x="545" d="M108 0 Q127 62 156 135 Q185 208 216 278 Q247 348 277 407.5 Q307 467 329 502 L51 502 L51 630 L476 630 L476 509 Q446 458 414.5 394 Q383 330 354.5 262 Q326 194 301 126 Q276 58 259 0 L108 0 Z " />
<glyph glyph-name="eight" unicode="8" horiz-adv-x="545" d="M272 388 Q307 399 330 422 Q353 445 353 474 Q353 506 330.5 526 Q308 546 272 546 Q237 546 213.5 525.5 Q190 505 190 472 Q190 445 213.5 422 Q237 399 272 388 Z M271 285 Q251 280 233 271.5 Q215 263 200.5 250 Q186 237 177.5 220.5 Q169 204 169 184 Q169 161 178 145 Q187 129 201.5 118.5 Q216 108 234.5 103 Q253 98 272 98 Q290 98 308.5 103 Q327 108 342 118.5 Q357 129 366 145 Q375 161 375 184 Q375 204 366 220.5 Q357 237 342 250 Q327 263 308.5 271.5 Q290 280 271 285 Z M135 347 Q105 365 82 399.5 Q59 434 59 479 Q59 515 74 546 Q89 577 117 599.5 Q145 622 184.5 635 Q224 648 272 648 Q322 648 362 635.5 Q402 623 429.5 600.5 Q457 578 471.5 547.5 Q486 517 486 481 Q486 435 462 401 Q438 367 408 349 Q459 326 489 284 Q519 242 519 181 Q519 148 504.5 113 Q490 78 460 49.5 Q430 21 383 2.5 Q336 -16 272 -16 Q207 -16 160.5 1.5 Q114 19 84 46.5 Q54 74 39.5 109 Q25 144 25 179 Q25 240 55.5 282 Q86 324 135 347 Z " />
<glyph glyph-name="nine" unicode="9" horiz-adv-x="545" d="M112 136 Q118 133 129.5 128 Q141 123 156 118.5 Q171 114 188 110.5 Q205 107 222 107 Q287 107 319.5 147.5 Q352 188 357 250 Q337 237 306.5 225.5 Q276 214 233 214 Q186 214 149.5 231 Q113 248 88 276.5 Q63 305 49.5 342.5 Q36 380 36 422 Q36 468 51 509 Q66 550 94.5 581 Q123 612 164.5 630 Q206 648 260 648 Q311 648 355.5 630 Q400 612 432 573 Q464 534 482.5 472 Q501 410 501 323 Q501 255 485 193.5 Q469 132 435.5 85.5 Q402 39 349 11.5 Q296 -16 222 -16 Q168 -16 124 -2.5 Q80 11 57 24 L112 136 Z M360 367 Q360 410 352.5 440 Q345 470 331.5 488.5 Q318 507 300.5 515 Q283 523 262 523 Q220 523 195 495.5 Q170 468 170 423 Q170 385 193.5 358.5 Q217 332 256 332 Q296 332 318.5 342.5 Q341 353 360 367 Z " />
<glyph glyph-name="colon" unicode="&#x3a;" horiz-adv-x="285" d="M61 469 L224 469 L224 310 L61 310 L61 469 Z M61 159 L224 159 L224 0 L61 0 L61 159 Z " />
<glyph glyph-name="semicolon" unicode="&#x3b;" horiz-adv-x="285" d="M118 0 L61 0 L61 160 L226 160 L226 1 L142 -143 L55 -143 L118 0 Z M61 469 L224 469 L224 310 L61 310 L61 469 Z " />
<glyph glyph-name="less" unicode="&#x3c;" horiz-adv-x="545" d="M67 360 L422 550 L474 448 L226 319 L478 190 L422 85 L67 275 L67 360 Z " />
<glyph glyph-name="equal" unicode="&#x3d;" horiz-adv-x="545" d="M73 463 L472 463 L472 348 L73 348 L73 463 Z M73 281 L472 281 L472 166 L73 166 L73 281 Z " />
<glyph glyph-name="greater" unicode="&#x3e;" horiz-adv-x="545" d="M75 190 L327 319 L79 448 L131 550 L486 360 L486 275 L131 85 L75 190 Z " />
<glyph glyph-name="question" unicode="&#x3f;" horiz-adv-x="526" d="M174 230 Q174 284 192.5 325 Q211 366 253 397 Q268 408 282 418.5 Q296 429 307.5 440 Q319 451 326 463.5 Q333 476 333 491 Q333 522 308 537.5 Q283 553 251 553 Q228 553 208 547 Q188 541 171.5 531.5 Q155 522 141.5 511.5 Q128 501 119 492 L31 585 Q44 600 65 617.5 Q86 635 114.5 650 Q143 665 179.5 675 Q216 685 261 685 Q307 685 347 672.5 Q387 660 416 636 Q445 612 461.5 577.5 Q478 543 478 500 Q478 471 472 449 Q466 427 455 409 Q444 391 429 376 Q414 361 396 348 Q378 334 362 322 Q346 310 335 297 Q324 284 317.5 268 Q311 252 311 230 L311 217 L174 217 L174 230 Z M164 154 L321 154 L321 0 L164 0 L164 154 Z " />
<glyph glyph-name="at" unicode="&#x40;" horiz-adv-x="960" d="M556 208 Q554 207 540.5 209 Q527 211 509 211 Q452 211 426.5 194 Q401 177 401 146 Q401 118 419 103 Q437 88 470 88 Q504 88 530 109 Q556 130 556 169 L556 208 Z M152 -18 Q136 -5 116.5 21 Q97 47 79.5 84.5 Q62 122 50.5 169.5 Q39 217 39 271 Q39 376 76.5 454 Q114 532 176 583.5 Q238 635 319 660.5 Q400 686 487 686 Q590 686 671 658.5 Q752 631 807 579.5 Q862 528 891 454 Q920 380 920 288 Q920 201 899 143 Q878 85 846 50 Q814 15 775.5 0 Q737 -15 701 -15 Q656 -15 628 -1.5 Q600 12 580 43 Q549 13 513.5 -1.5 Q478 -16 422 -16 Q397 -16 369.5 -8.5 Q342 -1 318.5 16.5 Q295 34 279.5 62 Q264 90 264 131 Q264 172 280 203.5 Q296 235 324.5 256 Q353 277 392.5 287.5 Q432 298 478 298 Q501 298 524.5 297 Q548 296 556 294 L556 312 Q556 344 530.5 359 Q505 374 472 374 Q422 374 391 362 Q360 350 338 335 L278 423 Q293 435 312.5 446 Q332 457 357.5 465.5 Q383 474 415.5 479.5 Q448 485 491 485 Q584 485 638 438 Q692 391 692 306 L692 140 Q692 91 727 91 Q741 91 756 103 Q771 115 783 140 Q795 165 802.5 202 Q810 239 810 290 Q810 369 784 425.5 Q758 482 713.5 518 Q669 554 610 570.5 Q551 587 485 587 Q428 587 369 570.5 Q310 554 261.5 517 Q213 480 182.5 420.5 Q152 361 152 275 Q152 229 161.5 191 Q171 153 184 123.5 Q197 94 210.5 75 Q224 56 233 47 L152 -18 Z " />
<glyph glyph-name="A" unicode="A" horiz-adv-x="675" d="M256 667 L423 667 L667 0 L502 0 L451 153 L216 153 L165 0 L7 0 L256 667 Z M415 270 L334 522 L251 270 L415 270 Z " />
<glyph glyph-name="B" unicode="B" horiz-adv-x="614" d="M65 667 L315 667 Q377 667 420 652.5 Q463 638 490 614 Q517 590 529 558.5 Q541 527 541 493 Q541 461 529.5 436.5 Q518 412 502.5 394.5 Q487 377 469.5 367 Q452 357 441 354 Q458 349 481 339 Q505 329 526 309.5 Q547 290 561.5 260.5 Q576 231 576 191 Q576 139 557.5 103 Q539 67 505.5 44 Q472 21 423.5 10.5 Q375 0 315 0 L65 0 L65 667 Z M310 116 Q326 116 346 118.5 Q366 121 383 130 Q400 139 411.5 156 Q423 173 423 203 Q423 230 412 247 Q401 264 384 273.5 Q367 283 347 286.5 Q327 290 310 290 L212 290 L212 116 L310 116 Z M301 400 Q318 400 334.5 404 Q351 408 363.5 416.5 Q376 425 384 439.5 Q392 454 392 475 Q392 497 384 511.5 Q376 526 363 534.5 Q350 543 333.5 546.5 Q317 550 301 550 L212 550 L212 400 L301 400 Z " />
<glyph glyph-name="C" unicode="C" horiz-adv-x="681" d="M667 123 Q646 94 616 68.5 Q586 43 549.5 24 Q513 5 470.5 -6 Q428 -17 382 -17 Q306 -17 243 9 Q180 35 134.5 81.5 Q89 128 64 191.5 Q39 255 39 331 Q39 405 64 469.5 Q89 534 134.5 581.5 Q180 629 243.5 656.5 Q307 684 384 684 Q477 684 546.5 650 Q616 616 662 552 L559 453 Q529 495 488 520.5 Q447 546 390 546 Q345 546 309 529.5 Q273 513 248 484 Q223 455 209.5 416.5 Q196 378 196 335 Q196 291 209.5 253 Q223 215 248 187 Q273 159 308 143 Q343 127 387 127 Q423 127 449.5 134.5 Q476 142 496.5 154.5 Q517 167 533 183.5 Q549 200 564 217 L667 123 Z " />
<glyph glyph-name="D" unicode="D" horiz-adv-x="717" d="M65 667 L317 667 Q394 667 459.5 647 Q525 627 572.5 586 Q620 545 646.5 481 Q673 417 673 330 Q673 247 646 185.5 Q619 124 571.5 82.5 Q524 41 458.5 20.5 Q393 0 316 0 L65 0 L65 667 Z M308 134 Q408 134 462 186.5 Q516 239 516 331 Q516 377 503.5 414.5 Q491 452 465.5 478.5 Q440 505 401 519.5 Q362 534 308 534 L216 534 L216 134 L308 134 Z " />
<glyph glyph-name="E" unicode="E" horiz-adv-x="580" d="M65 667 L521 667 L521 535 L216 535 L216 405 L453 405 L453 277 L216 277 L216 133 L543 133 L543 0 L65 0 L65 667 Z " />
<glyph glyph-name="F" unicode="F" horiz-adv-x="539" d="M65 667 L513 667 L513 534 L216 534 L216 383 L442 383 L442 254 L216 254 L216 0 L65 0 L65 667 Z " />
<glyph glyph-name="G" unicode="G" horiz-adv-x="723" d="M410 367 L667 367 L667 78 Q615 33 545.5 8.5 Q476 -16 387 -16 Q305 -16 240.5 9.5 Q176 35 131 81 Q86 127 62.5 191 Q39 255 39 332 Q39 407 64 471 Q89 535 135 582.5 Q181 630 244 657 Q307 684 384 684 Q475 684 543.5 650.5 Q612 617 657 557 L555 460 Q523 498 484.5 522 Q446 546 390 546 Q344 546 308 529 Q272 512 247 483 Q222 454 209 415 Q196 376 196 332 Q196 284 211 245 Q226 206 253 178.5 Q280 151 316.5 136 Q353 121 396 121 Q436 121 469 130.5 Q502 140 528 161 L528 245 L410 245 L410 367 Z " />
<glyph glyph-name="H" unicode="H" horiz-adv-x="721" d="M65 667 L216 667 L216 411 L505 411 L505 667 L656 667 L656 0 L505 0 L505 274 L216 274 L216 0 L65 0 L65 667 Z " />
<glyph glyph-name="I" unicode="I" horiz-adv-x="281" d="M65 667 L216 667 L216 0 L65 0 L65 667 Z " />
<glyph glyph-name="J" unicode="J" horiz-adv-x="524" d="M108 174 Q135 142 162.5 128.5 Q190 115 222 115 Q264 115 288.5 140 Q313 165 313 213 L313 667 L464 667 L464 203 Q464 146 445 104 Q426 62 394 35 Q362 8 320.5 -5 Q279 -18 233 -18 Q88 -18 10 81 L108 174 Z " />
<glyph glyph-name="K" unicode="K" horiz-adv-x="654" d="M65 667 L216 667 L216 401 L439 667 L614 667 L385 407 L645 0 L462 0 L284 291 L216 215 L216 0 L65 0 L65 667 Z " />
<glyph glyph-name="L" unicode="L" horiz-adv-x="559" d="M65 667 L216 667 L216 134 L535 134 L535 0 L65 0 L65 667 Z " />
<glyph glyph-name="M" unicode="M" horiz-adv-x="801" d="M85 667 L228 667 L402 354 L572 667 L716 667 L747 0 L596 0 L577 436 L439 176 L361 176 L215 433 L198 0 L54 0 L85 667 Z " />
<glyph glyph-name="N" unicode="N" horiz-adv-x="712" d="M65 667 L209 667 L498 234 L498 667 L647 667 L647 0 L510 0 L214 441 L214 0 L65 0 L65 667 Z " />
<glyph glyph-name="O" unicode="O" horiz-adv-x="772" d="M386 -17 Q312 -17 248.5 10 Q185 37 138.5 84 Q92 131 65.5 195.5 Q39 260 39 334 Q39 409 65.5 473 Q92 537 138.5 584 Q185 631 248.5 658 Q312 685 386 685 Q460 685 523.5 658 Q587 631 633.5 584 Q680 537 706.5 473 Q733 409 733 334 Q733 260 706.5 195.5 Q680 131 633.5 84 Q587 37 523.5 10 Q460 -17 386 -17 Z M386 125 Q430 125 465 142 Q500 159 524.5 188 Q549 217 562 255 Q575 293 575 336 Q575 379 562 417 Q549 455 524.5 483.5 Q500 512 465 528.5 Q430 545 386 545 Q342 545 306.5 528.5 Q271 512 246.5 483.5 Q222 455 209 417 Q196 379 196 336 Q196 293 209 255 Q222 217 246.5 188 Q271 159 306.5 142 Q342 125 386 125 Z " />
<glyph glyph-name="P" unicode="P" horiz-adv-x="578" d="M65 667 L308 667 Q370 667 414 649 Q458 631 486.5 601.5 Q515 572 528.5 533 Q542 494 542 452 Q542 398 523.5 357.5 Q505 317 473.5 290 Q442 263 401 249 Q360 235 315 235 L212 235 L212 0 L65 0 L65 667 Z M300 357 Q342 357 366.5 382.5 Q391 408 391 449 Q391 491 366 517.5 Q341 544 299 544 L212 544 L212 357 L300 357 Z " />
<glyph glyph-name="Q" unicode="Q" horiz-adv-x="772" d="M542 18 Q507 1 467.5 -8 Q428 -17 386 -17 Q312 -17 248.5 10 Q185 37 138.5 84 Q92 131 65.5 195.5 Q39 260 39 334 Q39 409 65.5 473 Q92 537 138.5 584 Q185 631 248.5 658 Q312 685 386 685 Q460 685 523.5 658 Q587 631 633.5 584 Q680 537 706.5 473 Q733 409 733 334 Q733 258 705.5 193 Q678 128 629 80 L699 -7 L617 -75 L542 18 Z M375 226 L456 294 L532 198 Q553 226 564 261.5 Q575 297 575 336 Q575 379 562 417 Q549 455 524.5 483.5 Q500 512 465 528.5 Q430 545 386 545 Q342 545 306.5 528.5 Q271 512 246.5 483.5 Q222 455 209 417 Q196 379 196 336 Q196 293 209 255 Q222 217 246.5 188 Q271 159 306.5 142 Q342 125 386 125 Q403 125 418 127.5 Q433 130 447 135 L375 226 Z " />
<glyph glyph-name="R" unicode="R" horiz-adv-x="607" d="M65 667 L313 667 Q371 667 415 650.5 Q459 634 488.5 605.5 Q518 577 532.5 539 Q547 501 547 458 Q547 393 518.5 344.5 Q490 296 438 267 L586 0 L420 0 L296 245 L212 245 L212 0 L65 0 L65 667 Z M305 366 Q347 366 371 391 Q395 416 395 454 Q395 495 371 519 Q347 543 305 543 L212 543 L212 366 L305 366 Z " />
<glyph glyph-name="S" unicode="S" horiz-adv-x="591" d="M115 199 Q128 185 145.5 170.5 Q163 156 184.5 144 Q206 132 231.5 124.5 Q257 117 286 117 Q303 117 320 122 Q337 127 351 136.5 Q365 146 373.5 159.5 Q382 173 382 190 Q382 227 346 247.5 Q310 268 232 288 Q194 297 161.5 314 Q129 331 105.5 355 Q82 379 69 410 Q56 441 56 479 Q56 521 71 558 Q86 595 116.5 623.5 Q147 652 192.5 668.5 Q238 685 300 685 Q351 685 390 674.5 Q429 664 456.5 649.5 Q484 635 501.5 619.5 Q519 604 528 595 L441 499 Q430 508 415.5 518.5 Q401 529 383 538 Q365 547 343.5 553 Q322 559 298 559 Q282 559 266.5 554 Q251 549 238.5 540.5 Q226 532 218.5 520.5 Q211 509 211 496 Q211 462 247 441 Q283 420 346 406 Q383 397 418.5 381.5 Q454 366 482 341 Q510 316 527 279.5 Q544 243 544 191 Q544 146 524 108 Q504 70 469.5 42 Q435 14 388.5 -1.5 Q342 -17 288 -17 Q238 -17 197 -7.5 Q156 2 123 17.5 Q90 33 63.5 53 Q37 73 18 94 L115 199 Z " />
<glyph glyph-name="T" unicode="T" horiz-adv-x="625" d="M237 534 L21 534 L21 667 L604 667 L604 534 L389 534 L389 0 L237 0 L237 534 Z " />
<glyph glyph-name="U" unicode="U" horiz-adv-x="680" d="M60 667 L212 667 L212 272 Q212 239 218.5 212.5 Q225 186 240 167 Q255 148 279.5 137.5 Q304 127 340 127 Q375 127 399.5 137.5 Q424 148 439 167 Q454 186 460.5 212.5 Q467 239 467 272 L467 667 L620 667 L620 253 Q620 193 600.5 143 Q581 93 544.5 57.5 Q508 22 456 2 Q404 -18 340 -18 Q276 -18 224 1.5 Q172 21 135.5 57 Q99 93 79.5 143 Q60 193 60 253 L60 667 Z " />
<glyph glyph-name="V" unicode="V" horiz-adv-x="664" d="M7 667 L174 667 L337 180 L496 667 L656 667 L411 0 L252 0 L7 667 Z " />
<glyph glyph-name="W" unicode="W" horiz-adv-x="905" d="M10 667 L172 667 L270 184 L387 649 L524 649 L642 184 L739 667 L895 667 L725 0 L566 0 L452 436 L336 0 L177 0 L10 667 Z " />
<glyph glyph-name="X" unicode="X" horiz-adv-x="641" d="M227 343 L7 667 L192 667 L317 471 L437 667 L604 667 L398 353 L638 0 L452 0 L308 224 L168 0 L2 0 L227 343 Z " />
<glyph glyph-name="Y" unicode="Y" horiz-adv-x="636" d="M241 279 L7 667 L178 667 L323 415 L464 667 L628 667 L394 280 L394 0 L241 0 L241 279 Z " />
<glyph glyph-name="Z" unicode="Z" horiz-adv-x="635" d="M39 123 L404 534 L56 534 L56 667 L589 667 L589 543 L231 132 L596 132 L596 0 L39 0 L39 123 Z " />
<glyph glyph-name="bracketleft" unicode="&#x5b;" horiz-adv-x="349" d="M71 706 L322 706 L322 589 L205 589 L205 25 L322 25 L322 -93 L71 -93 L71 706 Z " />
<glyph glyph-name="backslash" unicode="&#x5c;" horiz-adv-x="448" d="M20 685 L162 685 L428 -16 L283 -16 L20 685 Z " />
<glyph glyph-name="bracketright" unicode="&#x5d;" horiz-adv-x="349" d="M27 25 L144 25 L144 589 L27 589 L27 706 L278 706 L278 -93 L27 -93 L27 25 Z " />
<glyph glyph-name="asciicircum" unicode="&#x5e;" horiz-adv-x="564" d="M220 667 L344 667 L520 300 L376 300 L282 511 L188 300 L44 300 L220 667 Z " />
<glyph glyph-name="underscore" unicode="&#x5f;" horiz-adv-x="500" d="M0 -65 L500 -65 L500 -120 L0 -120 L0 -65 Z " />
<glyph glyph-name="grave" unicode="&#x60;" horiz-adv-x="471" d="M130 682 L273 682 L321 540 L215 540 L130 682 Z " />
<glyph glyph-name="a" unicode="a" horiz-adv-x="515" d="M325 44 Q301 16 264.5 1 Q228 -14 183 -14 Q158 -14 130.5 -7 Q103 0 79.5 16.5 Q56 33 40.5 61 Q25 89 25 131 Q25 172 41.5 204 Q58 236 87 257.5 Q116 279 155.5 290 Q195 301 241 301 Q266 301 291.5 300 Q317 299 325 297 L325 307 Q325 325 317.5 337.5 Q310 350 297.5 358.5 Q285 367 269 370.5 Q253 374 235 374 Q187 374 155.5 362 Q124 350 102 335 L43 423 Q58 434 77 445 Q96 456 122 465 Q148 474 180.5 479.5 Q213 485 255 485 Q362 485 413 427.5 Q464 370 464 273 L464 0 L329 0 L325 44 Z M325 207 Q320 208 306 209.5 Q292 211 274 211 Q214 211 189 194 Q164 177 164 146 Q164 88 234 88 Q251 88 267.5 93.5 Q284 99 296.5 109 Q309 119 317 134 Q325 149 325 169 L325 207 Z " />
<glyph glyph-name="b" unicode="b" horiz-adv-x="562" d="M197 114 Q209 109 223.5 106.5 Q238 104 264 104 Q321 104 352.5 141 Q384 178 384 238 Q384 260 378.5 281 Q373 302 362 318.5 Q351 335 333.5 345.5 Q316 356 291 356 Q243 356 220 329.5 Q197 303 197 259 L197 114 Z M53 667 L197 667 L197 434 Q217 455 251.5 467 Q286 479 320 479 Q370 479 409 460 Q448 441 474.5 408.5 Q501 376 515 333.5 Q529 291 529 243 Q529 186 510.5 138 Q492 90 457 56 Q422 22 371 3 Q320 -16 255 -16 Q195 -16 141.5 -5 Q88 6 53 18 L53 667 Z " />
<glyph glyph-name="c" unicode="c" horiz-adv-x="487" d="M474 62 Q445 30 397.5 7 Q350 -16 285 -16 Q228 -16 181.5 2.5 Q135 21 102 54.5 Q69 88 50.5 134 Q32 180 32 235 Q32 287 51 332.5 Q70 378 103.5 412 Q137 446 183.5 465.5 Q230 485 285 485 Q349 485 396 464 Q443 443 475 408 L388 314 Q372 332 349 346 Q326 360 288 360 Q262 360 241.5 349.5 Q221 339 206.5 322 Q192 305 184.5 282.5 Q177 260 177 235 Q177 212 184.5 189.5 Q192 167 206.5 149.5 Q221 132 241.5 121 Q262 110 288 110 Q325 110 350 124.5 Q375 139 390 156 L474 62 Z " />
<glyph glyph-name="d" unicode="d" horiz-adv-x="565" d="M372 47 Q350 21 315.5 3.5 Q281 -14 237 -14 Q194 -14 156.5 3 Q119 20 91.5 51.5 Q64 83 48 127.5 Q32 172 32 228 Q32 291 54.5 338.5 Q77 386 112.5 417 Q148 448 191.5 463.5 Q235 479 277 479 Q311 479 330 474.5 Q349 470 369 463 L369 667 L512 667 L512 0 L378 0 L372 47 Z M369 340 Q354 349 336.5 353 Q319 357 293 357 Q238 357 207.5 320 Q177 283 177 225 Q177 174 202 141.5 Q227 109 277 109 Q301 109 318.5 117.5 Q336 126 347.5 140 Q359 154 364 173 Q369 192 369 212 L369 340 Z " />
<glyph glyph-name="e" unicode="e" horiz-adv-x="535" d="M496 51 Q488 46 472 34.5 Q456 23 430.5 12 Q405 1 370 -7.5 Q335 -16 290 -16 Q230 -16 182 2.5 Q134 21 100.5 54 Q67 87 49.5 133.5 Q32 180 32 236 Q32 285 48.5 330.5 Q65 376 96 410 Q127 444 172 464.5 Q217 485 274 485 Q331 485 374 465 Q417 445 446.5 409.5 Q476 374 491 324.5 Q506 275 506 216 L506 192 L172 192 Q173 154 205.5 125.5 Q238 97 295 97 Q351 97 386 113.5 Q421 130 437 142 L496 51 Z M370 284 Q370 299 364 314.5 Q358 330 346 343 Q334 356 316 364.5 Q298 373 273 373 Q248 373 229 364.5 Q210 356 197.5 343 Q185 330 178.5 314.5 Q172 299 172 284 L370 284 Z " />
<glyph glyph-name="f" unicode="f" horiz-adv-x="356" d="M90 356 L14 356 L14 469 L90 469 L90 493 Q90 543 106.5 579 Q123 615 150 638.5 Q177 662 211.5 673.5 Q246 685 282 685 Q320 685 359 674 Q398 663 430 636 Q415 613 399.5 590.5 Q384 568 369 545 Q354 556 336 562 Q318 568 299 568 Q269 568 251 549 Q233 530 233 495 L233 469 L344 469 L344 356 L233 356 L233 0 L90 0 L90 356 Z " />
<glyph glyph-name="g" unicode="g" horiz-adv-x="561" d="M130 -60 Q158 -77 189.5 -86.5 Q221 -96 259 -96 Q308 -96 336 -70 Q364 -44 364 8 L364 41 Q319 2 244 2 Q194 2 154.5 18.5 Q115 35 88 65 Q61 95 46.5 136 Q32 177 32 226 Q32 283 51.5 329.5 Q71 376 106.5 409.5 Q142 443 191.5 461 Q241 479 302 479 Q360 479 412.5 469 Q465 459 507 444 L507 15 Q507 -101 443 -156.5 Q379 -212 268 -212 Q205 -212 158 -200 Q111 -188 72 -162 L130 -60 Z M365 350 Q351 355 337 357.5 Q323 360 300 360 Q269 360 246 349.5 Q223 339 207.5 321.5 Q192 304 184.5 280.5 Q177 257 177 231 Q177 180 201.5 150 Q226 120 273 120 Q317 120 341 141.5 Q365 163 365 209 L365 350 Z " />
<glyph glyph-name="h" unicode="h" horiz-adv-x="564" d="M53 667 L196 667 L196 424 Q219 451 257 465.5 Q295 480 334 480 Q415 480 463.5 432 Q512 384 512 290 L512 0 L369 0 L369 268 Q369 309 348 332 Q327 355 292 355 Q269 355 251 346.5 Q233 338 221 324 Q209 310 203 291.5 Q197 273 197 252 L197 0 L53 0 L53 667 Z " />
<glyph glyph-name="i" unicode="i" horiz-adv-x="258" d="M57 469 L201 469 L201 0 L57 0 L57 469 Z M52 667 L206 667 L206 538 L52 538 L52 667 Z " />
<glyph glyph-name="j" unicode="j" horiz-adv-x="265" d="M-54 -60 Q-43 -67 -28.5 -72.5 Q-14 -78 3 -78 Q37 -78 50.5 -57 Q64 -36 64 2 L64 469 L207 469 L207 24 Q207 -20 200 -60.5 Q193 -101 173 -132 Q153 -163 118 -181.5 Q83 -200 27 -200 Q-16 -200 -50 -187.5 Q-84 -175 -107 -157 L-54 -60 Z M58 667 L212 667 L212 538 L58 538 L58 667 Z " />
<glyph glyph-name="k" unicode="k" horiz-adv-x="533" d="M53 667 L197 667 L197 321 L340 469 L503 469 L335 296 L526 0 L359 0 L239 198 L197 155 L197 0 L53 0 L53 667 Z " />
<glyph glyph-name="l" unicode="l" horiz-adv-x="250" d="M53 667 L197 667 L197 0 L53 0 L53 667 Z " />
<glyph glyph-name="m" unicode="m" horiz-adv-x="863" d="M53 469 L191 469 L196 417 Q218 444 252 462 Q286 480 332 480 Q360 480 382 474 Q404 468 420.5 458.5 Q437 449 449.5 437.5 Q462 426 470 415 Q499 446 540.5 463 Q582 480 627 480 Q717 480 764.5 429 Q812 378 812 290 L812 0 L668 0 L668 267 Q668 309 649.5 332 Q631 355 594 355 Q552 355 527 326 Q502 297 502 252 L502 0 L363 0 L363 267 Q363 309 344.5 332 Q326 355 289 355 Q248 355 222.5 326 Q197 297 197 252 L197 0 L53 0 L53 469 Z " />
<glyph glyph-name="n" unicode="n" horiz-adv-x="562" d="M54 469 L192 469 L196 418 Q219 446 256.5 463 Q294 480 335 480 Q416 480 463.5 432 Q511 384 511 290 L511 0 L367 0 L367 270 Q367 309 347.5 332 Q328 355 293 355 Q269 355 251 346.5 Q233 338 221 324 Q209 310 203 291.5 Q197 273 197 252 L197 0 L54 0 L54 469 Z " />
<glyph glyph-name="o" unicode="o" horiz-adv-x="568" d="M284 109 Q311 109 332 119.5 Q353 130 367.5 148 Q382 166 389 188.5 Q396 211 396 235 Q396 259 389 281.5 Q382 304 367.5 321.5 Q353 339 332 349.5 Q311 360 284 360 Q257 360 235.5 349.5 Q214 339 200 321.5 Q186 304 178.5 281.5 Q171 259 171 235 Q171 211 178.5 188.5 Q186 166 200 148 Q214 130 235.5 119.5 Q257 109 284 109 Z M32 235 Q32 287 50.5 332.5 Q69 378 102 412 Q135 446 181.5 465.5 Q228 485 284 485 Q340 485 386 465.5 Q432 446 465 412 Q498 378 516.5 332.5 Q535 287 535 235 Q535 183 516.5 137.5 Q498 92 465 58 Q432 24 386 4 Q340 -16 284 -16 Q228 -16 181.5 4 Q135 24 102 58 Q69 92 50.5 137.5 Q32 183 32 235 Z " />
<glyph glyph-name="p" unicode="p" horiz-adv-x="570" d="M53 469 L191 469 Q193 456 194 443.5 Q195 431 196 418 Q219 447 255 462.5 Q291 478 330 478 Q381 478 420 458 Q459 438 485 404.5 Q511 371 524 327.5 Q537 284 537 238 Q537 173 515 125 Q493 77 458 46 Q423 15 379 0 Q335 -15 292 -15 Q258 -15 236 -9 Q214 -3 196 3 L196 -200 L53 -200 L53 469 Z M196 124 Q224 105 279 105 Q332 105 362.5 140.5 Q393 176 393 235 Q393 258 387.5 280 Q382 302 370.5 318.5 Q359 335 340.5 345 Q322 355 295 355 Q271 355 252.5 346 Q234 337 221.5 322 Q209 307 202.5 288 Q196 269 196 249 L196 124 Z " />
<glyph glyph-name="q" unicode="q" horiz-adv-x="564" d="M367 27 Q351 10 321.5 -1.5 Q292 -13 249 -13 Q199 -13 159 4 Q119 21 91 52.5 Q63 84 47.5 128.5 Q32 173 32 229 Q32 282 50.5 327.5 Q69 373 104 407 Q139 441 189.5 460 Q240 479 304 479 Q361 479 412 470 Q463 461 511 444 L511 -200 L367 -200 L367 27 Z M367 348 Q353 353 339.5 355 Q326 357 302 357 Q240 357 208.5 322 Q177 287 177 228 Q177 204 183 182.5 Q189 161 201 144.5 Q213 128 231.5 118.5 Q250 109 276 109 Q321 109 344 132 Q367 155 367 205 L367 348 Z " />
<glyph glyph-name="r" unicode="r" horiz-adv-x="393" d="M53 469 L191 469 L196 410 Q214 434 245.5 456 Q277 478 327 478 Q346 478 359.5 476 Q373 474 386 469 L363 342 Q341 349 311 349 Q260 349 228.5 318.5 Q197 288 197 232 L197 0 L53 0 L53 469 Z " />
<glyph glyph-name="s" unicode="s" horiz-adv-x="482" d="M101 145 Q124 124 161.5 110 Q199 96 234 96 Q266 96 287 104 Q308 112 308 135 Q308 144 303.5 151.5 Q299 159 287 165.5 Q275 172 253.5 179 Q232 186 199 195 Q172 202 145.5 213.5 Q119 225 98.5 242 Q78 259 65.5 283 Q53 307 53 339 Q53 372 68 398.5 Q83 425 109.5 444.5 Q136 464 172.5 474.5 Q209 485 251 485 Q311 485 356 471.5 Q401 458 439 432 L378 337 Q355 352 325.5 364 Q296 376 259 376 Q226 376 211 366.5 Q196 357 196 341 Q196 318 227 307 Q258 296 311 282 Q383 262 415.5 227 Q448 192 448 134 Q448 95 430.5 67 Q413 39 383.5 20.5 Q354 2 316.5 -7 Q279 -16 240 -16 Q177 -16 121 1 Q65 18 30 53 L101 145 Z " />
<glyph glyph-name="t" unicode="t" horiz-adv-x="418" d="M88 356 L14 356 L14 469 L88 469 L88 611 L232 611 L232 469 L353 469 L353 356 L232 356 L232 171 Q232 137 245.5 118.5 Q259 100 288 100 Q310 100 326 107.5 Q342 115 356 125 L414 37 Q346 -17 266 -17 Q216 -17 182 -2.5 Q148 12 127 37.5 Q106 63 97 99 Q88 135 88 179 L88 356 Z " />
<glyph glyph-name="u" unicode="u" horiz-adv-x="561" d="M51 469 L195 469 L195 199 Q195 159 214.5 136 Q234 113 272 113 Q294 113 311 121.5 Q328 130 340 144 Q352 158 358 177 Q364 196 364 216 L364 469 L507 469 L507 0 L369 0 L365 50 Q342 23 304.5 5.5 Q267 -12 226 -12 Q145 -12 98 36 Q51 84 51 178 L51 469 Z " />
<glyph glyph-name="v" unicode="v" horiz-adv-x="545" d="M5 469 L165 469 L276 161 L383 469 L540 469 L339 0 L203 0 L5 469 Z " />
<glyph glyph-name="w" unicode="w" horiz-adv-x="769" d="M7 469 L155 469 L237 168 L328 469 L443 469 L535 168 L617 469 L762 469 L601 0 L471 0 L383 262 L296 0 L168 0 L7 469 Z " />
<glyph glyph-name="x" unicode="x" horiz-adv-x="527" d="M180 235 L9 469 L181 469 L265 344 L350 469 L507 469 L342 245 L522 0 L350 0 L257 135 L163 0 L6 0 L180 235 Z " />
<glyph glyph-name="y" unicode="y" horiz-adv-x="550" d="M79 -74 Q91 -83 105.5 -90 Q120 -97 137 -97 Q160 -97 175.5 -82.5 Q191 -68 205 -33 L219 5 L5 469 L169 469 L286 173 L392 469 L545 469 L353 3 Q337 -36 321.5 -74.5 Q306 -113 283.5 -143.5 Q261 -174 228.5 -193 Q196 -212 147 -212 Q109 -212 78 -202 Q47 -192 21 -173 L79 -74 Z " />
<glyph glyph-name="z" unicode="z" horiz-adv-x="490" d="M40 97 L270 353 L50 353 L50 469 L452 469 L452 370 L221 113 L453 113 L453 0 L40 0 L40 97 Z " />
<glyph glyph-name="braceleft" unicode="&#x7b;" horiz-adv-x="310" d="M101 194 Q98 225 82 246 Q66 267 28 267 L28 347 Q66 347 82 368 Q98 389 101 420 L115 585 Q119 629 130 658 Q141 687 164 706 L296 706 Q273 683 261.5 645.5 Q250 608 246 566 L232 401 Q229 365 205.5 340 Q182 315 154 307 Q189 296 208 266.5 Q227 237 235 183 L248 18 Q250 -11 264 -43 Q278 -75 296 -93 L164 -93 Q141 -74 130 -44.5 Q119 -15 115 29 L101 194 Z " />
<glyph glyph-name="bar" unicode="&#x7c;" horiz-adv-x="263" d="M66 833 L196 833 L196 -164 L66 -164 L66 833 Z " />
<glyph glyph-name="braceright" unicode="&#x7d;" horiz-adv-x="310" d="M14 -93 Q32 -75 46 -43 Q60 -11 62 18 L75 183 Q83 237 102 266.5 Q121 296 156 307 Q128 315 104.5 340 Q81 365 78 401 L64 566 Q60 608 48.5 645.5 Q37 683 14 706 L146 706 Q169 687 180 658 Q191 629 195 585 L209 420 Q212 389 228 368 Q244 347 282 347 L282 267 Q244 267 228 246 Q212 225 209 194 L195 29 Q191 -15 180 -44.5 Q169 -74 146 -93 L14 -93 Z " />
<glyph glyph-name="asciitilde" unicode="&#x7e;" horiz-adv-x="503" d="M35 317 Q45 328 59.5 341 Q74 354 92 365 Q110 376 131 383 Q152 390 176 390 Q197 390 213.5 383.5 Q230 377 245.5 368.5 Q261 360 277 353.5 Q293 347 312 347 Q341 347 361.5 359.5 Q382 372 405 392 L468 292 Q458 279 443.5 266 Q429 253 411 242 Q393 231 373 224 Q353 217 333 217 Q310 217 292 224 Q274 231 258 239.5 Q242 248 226 255 Q210 262 191 262 Q161 262 140.5 249 Q120 236 97 217 L35 317 Z " />
<glyph glyph-name="Euro" unicode="&#x20ac;" horiz-adv-x="545" d="M40 282 L97 282 Q96 291 96 300 L96 349 L19 349 L46 430 L108 430 Q120 477 141.5 517 Q163 557 195.5 586 Q228 615 270.5 631.5 Q313 648 366 648 Q423 648 468.5 628.5 Q514 609 548 572 L473 476 Q433 519 372 519 Q327 519 299.5 494 Q272 469 258 430 L426 430 L399 349 L243 349 Q242 341 242 333 L242 300 Q242 291 243 282 L415 282 L387 202 L260 202 Q274 164 301 140 Q328 116 372 116 Q405 116 429.5 126.5 Q454 137 474 158 L548 63 Q514 26 468.5 6.5 Q423 -13 366 -13 Q313 -13 271 3 Q229 19 197 48 Q165 77 143.5 116 Q122 155 110 202 L12 202 L40 282 Z " />
<glyph glyph-name="uni20BA" unicode="&#x20ba;" horiz-adv-x="545" d="M398 298 L526 265 Q497 134 417.5 67 Q338 0 210 0 L92 0 L92 223 L39 199 L5 272 L92 312 L92 375 L39 351 L5 424 L92 464 L92 630 L232 630 L232 529 L336 577 L370 505 L232 440 L232 377 L336 425 L370 353 L232 288 L232 128 Q300 130 339.5 176 Q379 222 398 298 Z " />
<glyph glyph-name="quotesinglbase" unicode="&#x201a;" horiz-adv-x="281" d="M81 153 L237 153 L164 -76 L57 -76 L81 153 Z " />
<glyph glyph-name="florin" unicode="&#x192;" horiz-adv-x="545" d="M-28 -49 Q-15 -60 2 -67.5 Q19 -75 39 -75 Q69 -75 88 -57 Q107 -39 118 17 L165 276 L92 276 L97 390 L186 390 L201 465 Q218 550 265.5 599 Q313 648 408 648 Q461 648 498.5 630 Q536 612 557 592 L486 498 Q472 509 455 516.5 Q438 524 418 524 Q386 524 368 506 Q350 488 339 431 L331 390 L432 390 L427 276 L311 276 L267 29 Q258 -23 243 -65 Q228 -107 203 -137 Q178 -167 140 -183 Q102 -199 46 -199 Q4 -199 -35.5 -182.5 Q-75 -166 -100 -146 L-28 -49 Z " />
<glyph glyph-name="quotedblbase" unicode="&#x201e;" horiz-adv-x="487" d="M81 153 L237 153 L164 -76 L57 -76 L81 153 Z M287 153 L443 153 L370 -76 L263 -76 L287 153 Z " />
<glyph glyph-name="ellipsis" unicode="&#x2026;" horiz-adv-x="855" d="M61 159 L224 159 L224 0 L61 0 L61 159 Z M631 159 L794 159 L794 0 L631 0 L631 159 Z M346 159 L509 159 L509 0 L346 0 L346 159 Z " />
<glyph glyph-name="dagger" unicode="&#x2020;" horiz-adv-x="542" d="M201 362 L57 362 L57 483 L201 483 L201 667 L341 667 L341 483 L485 483 L485 362 L341 362 L341 -121 L201 -121 L201 362 Z " />
<glyph glyph-name="daggerdbl" unicode="&#x2021;" horiz-adv-x="547" d="M204 62 L59 62 L59 183 L204 183 L204 362 L59 362 L59 483 L204 483 L204 667 L343 667 L343 483 L488 483 L488 362 L343 362 L343 183 L488 183 L488 62 L343 62 L343 -121 L204 -121 L204 62 Z " />
<glyph glyph-name="circumflex" unicode="&#x2c6;" horiz-adv-x="444" d="M162 682 L283 682 L389 540 L270 540 L222 606 L175 540 L56 540 L162 682 Z " />
<glyph glyph-name="perthousand" unicode="&#x2030;" horiz-adv-x="1301" d="M597 630 L722 630 L322 0 L195 0 L597 630 Z M714 -10 Q638 -10 595.5 38.5 Q553 87 553 172 Q553 257 595.5 304.5 Q638 352 714 352 Q790 352 832.5 304.5 Q875 257 875 172 Q875 87 832.5 38.5 Q790 -10 714 -10 Z M714 77 Q740 77 753.5 103.5 Q767 130 767 172 Q767 213 753.5 239.5 Q740 266 714 266 Q688 266 674.5 239.5 Q661 213 661 172 Q661 130 674.5 103.5 Q688 77 714 77 Z M1091 -10 Q1015 -10 972.5 38.5 Q930 87 930 172 Q930 257 972.5 304.5 Q1015 352 1091 352 Q1167 352 1209.5 304.5 Q1252 257 1252 172 Q1252 87 1209.5 38.5 Q1167 -10 1091 -10 Z M1091 77 Q1117 77 1130.5 103.5 Q1144 130 1144 172 Q1144 213 1130.5 239.5 Q1117 266 1091 266 Q1065 266 1051.5 239.5 Q1038 213 1038 172 Q1038 130 1051.5 103.5 Q1065 77 1091 77 Z M209 284 Q133 284 90.5 332.5 Q48 381 48 466 Q48 551 90.5 598.5 Q133 646 209 646 Q285 646 327.5 598.5 Q370 551 370 466 Q370 381 327.5 332.5 Q285 284 209 284 Z M209 371 Q235 371 248.5 397.5 Q262 424 262 466 Q262 507 248.5 533.5 Q235 560 209 560 Q183 560 169.5 533.5 Q156 507 156 466 Q156 424 169.5 397.5 Q183 371 209 371 Z " />
<glyph glyph-name="Scaron" unicode="&#x160;" horiz-adv-x="591" d="M115 199 Q128 185 145.5 170.5 Q163 156 184.5 144 Q206 132 231.5 124.5 Q257 117 286 117 Q303 117 320 122 Q337 127 351 136.5 Q365 146 373.5 159.5 Q382 173 382 190 Q382 227 346 247.5 Q310 268 232 288 Q194 297 161.5 314 Q129 331 105.5 355 Q82 379 69 410 Q56 441 56 479 Q56 521 71 558 Q86 595 116.5 623.5 Q147 652 192.5 668.5 Q238 685 300 685 Q351 685 390 674.5 Q429 664 456.5 649.5 Q484 635 501.5 619.5 Q519 604 528 595 L441 499 Q430 508 415.5 518.5 Q401 529 383 538 Q365 547 343.5 553 Q322 559 298 559 Q282 559 266.5 554 Q251 549 238.5 540.5 Q226 532 218.5 520.5 Q211 509 211 496 Q211 462 247 441 Q283 420 346 406 Q383 397 418.5 381.5 Q454 366 482 341 Q510 316 527 279.5 Q544 243 544 191 Q544 146 524 108 Q504 70 469.5 42 Q435 14 388.5 -1.5 Q342 -17 288 -17 Q238 -17 197 -7.5 Q156 2 123 17.5 Q90 33 63.5 53 Q37 73 18 94 L115 199 Z M127 873 L247 873 L300 798 L354 873 L473 873 L360 717 L240 717 L127 873 Z " />
<glyph glyph-name="guilsinglleft" unicode="&#x2039;" horiz-adv-x="356" d="M53 241 L157 438 L299 438 L197 241 L299 44 L157 44 L53 241 Z " />
<glyph glyph-name="OE" unicode="&#x152;" horiz-adv-x="1076" d="M582 80 Q550 38 497 11.5 Q444 -15 371 -15 Q300 -15 239.5 11.5 Q179 38 134.5 85 Q90 132 64.5 196 Q39 260 39 334 Q39 409 65 472.5 Q91 536 136.5 583 Q182 630 243 656.5 Q304 683 374 683 Q414 683 447.5 675 Q481 667 507.5 653.5 Q534 640 552.5 623 Q571 606 582 587 L582 667 L1017 667 L1017 535 L712 535 L712 405 L950 405 L950 277 L712 277 L712 133 L1039 133 L1039 0 L582 0 L582 80 Z M386 125 Q430 125 465 142 Q500 159 524.5 188 Q549 217 562 255 Q575 293 575 336 Q575 379 562 417 Q549 455 524.5 483.5 Q500 512 465 528.5 Q430 545 385 545 Q341 545 306 528.5 Q271 512 246.5 483.5 Q222 455 209 417 Q196 379 196 336 Q196 293 209 255 Q222 217 246.5 188 Q271 159 306.5 142 Q342 125 386 125 Z " />
<glyph glyph-name="quoteleft" unicode="&#x2018;" horiz-adv-x="281" d="M116 666 L223 666 L199 437 L44 437 L116 666 Z " />
<glyph glyph-name="quoteright" unicode="&#x2019;" horiz-adv-x="281" d="M81 666 L237 666 L164 437 L57 437 L81 666 Z " />
<glyph glyph-name="quotedblleft" unicode="&#x201c;" horiz-adv-x="487" d="M322 666 L429 666 L405 437 L250 437 L322 666 Z M116 666 L223 666 L199 437 L44 437 L116 666 Z " />
<glyph glyph-name="quotedblright" unicode="&#x201d;" horiz-adv-x="487" d="M287 666 L443 666 L370 437 L263 437 L287 666 Z M81 666 L237 666 L164 437 L57 437 L81 666 Z " />
<glyph glyph-name="bullet" unicode="&#x2022;" horiz-adv-x="439" d="M76 337 Q76 367 87 393 Q98 419 117.5 438.5 Q137 458 163 469 Q189 480 219 480 Q249 480 275 469 Q301 458 320.5 438.5 Q340 419 351.5 393 Q363 367 363 337 Q363 307 351.5 281 Q340 255 320.5 235.5 Q301 216 275 205 Q249 194 219 194 Q189 194 163 205 Q137 216 117.5 235.5 Q98 255 87 281 Q76 307 76 337 Z " />
<glyph glyph-name="endash" unicode="&#x2013;" horiz-adv-x="500" d="M0 348 L500 348 L500 211 L0 211 L0 348 Z " />
<glyph glyph-name="emdash" unicode="&#x2014;" horiz-adv-x="1000" d="M0 348 L1000 348 L1000 211 L0 211 L0 348 Z " />
<glyph glyph-name="tilde" unicode="&#x2dc;" horiz-adv-x="451" d="M26 620 Q46 642 78.5 661 Q111 680 150 680 Q169 680 185.5 673.5 Q202 667 217 659 Q232 651 248 644.5 Q264 638 283 638 Q313 638 334.5 650 Q356 662 373 675 L424 596 Q404 574 371.5 554.5 Q339 535 300 535 Q280 535 264 541.5 Q248 548 233 556 Q218 564 202 570.5 Q186 577 167 577 Q137 577 115.5 565.5 Q94 554 77 541 L26 620 Z " />
<glyph glyph-name="trademark" unicode="&#x2122;" horiz-adv-x="878" d="M433 667 L527 667 L626 506 L725 667 L822 667 L837 284 L736 284 L728 509 L650 377 L601 377 L523 504 L516 284 L418 284 L433 667 Z M154 574 L30 574 L30 667 L387 667 L387 574 L263 574 L263 284 L154 284 L154 574 Z " />
<glyph glyph-name="scaron" unicode="&#x161;" horiz-adv-x="482" d="M101 145 Q124 124 161.5 110 Q199 96 234 96 Q266 96 287 104 Q308 112 308 135 Q308 144 303.5 151.5 Q299 159 287 165.5 Q275 172 253.5 179 Q232 186 199 195 Q172 202 145.5 213.5 Q119 225 98.5 242 Q78 259 65.5 283 Q53 307 53 339 Q53 372 68 398.5 Q83 425 109.5 444.5 Q136 464 172.5 474.5 Q209 485 251 485 Q311 485 356 471.5 Q401 458 439 432 L378 337 Q355 352 325.5 364 Q296 376 259 376 Q226 376 211 366.5 Q196 357 196 341 Q196 318 227 307 Q258 296 311 282 Q383 262 415.5 227 Q448 192 448 134 Q448 95 430.5 67 Q413 39 383.5 20.5 Q354 2 316.5 -7 Q279 -16 240 -16 Q177 -16 121 1 Q65 18 30 53 L101 145 Z M88 682 L206 682 L255 615 L302 682 L421 682 L315 540 L193 540 L88 682 Z " />
<glyph glyph-name="guilsinglright" unicode="&#x203a;" horiz-adv-x="356" d="M159 241 L57 438 L199 438 L303 241 L199 44 L57 44 L159 241 Z " />
<glyph glyph-name="oe" unicode="&#x153;" horiz-adv-x="895" d="M856 51 Q848 46 832 34.5 Q816 23 790.5 12 Q765 1 730 -7.5 Q695 -16 650 -16 Q587 -16 539 4 Q491 24 457 61 Q428 26 383 5 Q338 -16 284 -16 Q228 -16 181.5 4 Q135 24 102 58 Q69 92 50.5 137.5 Q32 183 32 235 Q32 287 50.5 332.5 Q69 378 102 412 Q135 446 181.5 465.5 Q228 485 284 485 Q339 485 383 464 Q427 443 457 408 Q488 444 532.5 464.5 Q577 485 634 485 Q692 485 736 464.5 Q780 444 808.5 408 Q837 372 851.5 323 Q866 274 866 216 L866 192 L532 192 Q533 154 565.5 125.5 Q598 97 655 97 Q711 97 746 113.5 Q781 130 797 142 L856 51 Z M730 284 Q730 299 724 314.5 Q718 330 706 343 Q694 356 676 364.5 Q658 373 633 373 Q608 373 589 364.5 Q570 356 557.5 343 Q545 330 538.5 314.5 Q532 299 532 284 L730 284 Z M284 109 Q311 109 332 119.5 Q353 130 367.5 148 Q382 166 389 188.5 Q396 211 396 235 Q396 259 389 281.5 Q382 304 367.5 321.5 Q353 339 332 349.5 Q311 360 284 360 Q257 360 235.5 349.5 Q214 339 200 321.5 Q186 304 178.5 281.5 Q171 259 171 235 Q171 211 178.5 188.5 Q186 166 200 148 Q214 130 235.5 119.5 Q257 109 284 109 Z " />
<glyph glyph-name="Ydieresis" unicode="&#x178;" horiz-adv-x="636" d="M241 279 L7 667 L178 667 L323 415 L464 667 L628 667 L394 280 L394 0 L241 0 L241 279 Z M362 856 L494 856 L494 734 L362 734 L362 856 Z M143 856 L275 856 L275 734 L143 734 L143 856 Z " />
<glyph glyph-name="uni00A0" unicode="&#xa0;" horiz-adv-x="181" d="" />
<glyph glyph-name="exclamdown" unicode="&#xa1;" horiz-adv-x="292" d="M73 252 L219 252 L225 -197 L67 -197 L73 252 Z M67 469 L224 469 L224 315 L67 315 L67 469 Z " />
<glyph glyph-name="cent" unicode="&#xa2;" horiz-adv-x="545" d="M273 66 Q226 73 188 94 Q150 115 123 147.5 Q96 180 81.5 222 Q67 264 67 313 Q67 359 82 400.5 Q97 442 124.5 474.5 Q152 507 190 529 Q228 551 273 559 L273 649 L361 649 L361 560 Q409 554 446 534.5 Q483 515 510 486 L423 392 Q407 410 384 424 Q361 438 323 438 Q297 438 276.5 427.5 Q256 417 241.5 400 Q227 383 219.5 360.5 Q212 338 212 313 Q212 288 220 265.5 Q228 243 242 225.5 Q256 208 276.5 198 Q297 188 323 188 Q360 188 385 203 Q410 218 425 235 L509 140 Q484 113 447 92.5 Q410 72 361 65 L361 -19 L273 -19 L273 66 Z " />
<glyph glyph-name="sterling" unicode="&#xa3;" horiz-adv-x="545" d="M110 269 L37 269 L37 365 L110 365 L110 426 Q110 467 122.5 506.5 Q135 546 161.5 577.5 Q188 609 230 628.5 Q272 648 332 648 Q401 648 446 624 Q491 600 521 567 L433 471 Q415 490 394.5 502.5 Q374 515 344 515 Q321 515 305 506 Q289 497 279.5 482.5 Q270 468 265.5 449 Q261 430 261 410 L261 365 L439 365 L439 269 L261 269 L261 133 L524 133 L524 0 L110 0 L110 269 Z " />
<glyph glyph-name="currency" unicode="&#xa4;" horiz-adv-x="545" d="M92 226 Q67 271 67 324 Q67 377 91 419 L27 485 L107 566 L172 500 Q193 511 217 518 Q241 525 267 525 Q294 525 319.5 517.5 Q345 510 368 496 L436 566 L517 485 L446 413 Q456 393 462 370.5 Q468 348 468 324 Q468 299 462 276 Q456 253 445 232 L517 159 L436 79 L366 150 Q320 124 267 124 Q215 124 175 147 L107 79 L27 159 L92 226 Z M178 324 Q178 287 204 261 Q230 235 267 235 Q304 235 330 261 Q356 287 356 324 Q356 361 330 387 Q304 413 267 413 Q230 413 204 387 Q178 361 178 324 Z " />
<glyph glyph-name="yen" unicode="&#xa5;" horiz-adv-x="545" d="M66 190 L197 190 L197 260 L66 260 L66 342 L153 342 L-1 630 L159 630 L275 374 L391 630 L546 630 L391 342 L483 342 L483 260 L348 260 L348 190 L483 190 L483 108 L348 108 L348 0 L197 0 L197 108 L66 108 L66 190 Z " />
<glyph glyph-name="brokenbar" unicode="&#xa6;" horiz-adv-x="263" d="M66 215 L196 215 L196 -164 L66 -164 L66 215 Z M66 833 L196 833 L196 454 L66 454 L66 833 Z " />
<glyph glyph-name="section" unicode="&#xa7;" horiz-adv-x="470" d="M145 327 Q94 359 72 402.5 Q50 446 50 494 Q50 533 64.5 567.5 Q79 602 105.5 628.5 Q132 655 168.5 670 Q205 685 250 685 Q282 685 308 677.5 Q334 670 354 660 Q374 650 387.5 640 Q401 630 407 625 L338 520 Q320 532 297.5 544 Q275 556 251 556 Q223 556 207.5 540 Q192 524 192 504 Q192 487 199 472 Q206 457 232 440 L426 310 L349 195 L145 327 Z M127 -48 Q145 -60 167 -72 Q189 -84 214 -84 Q241 -84 257 -67.5 Q273 -51 273 -31 Q273 -14 266 0.5 Q259 15 233 32 L39 163 L116 278 L320 145 Q370 113 392.5 69.5 Q415 26 414 -22 Q414 -61 399.5 -95.5 Q385 -130 358.5 -156 Q332 -182 295.5 -197 Q259 -212 214 -212 Q182 -212 156 -204.5 Q130 -197 110 -187.5 Q90 -178 76.5 -168 Q63 -158 57 -153 L127 -48 Z " />
<glyph glyph-name="dieresis" unicode="&#xa8;" horiz-adv-x="393" d="M231 668 L354 668 L354 554 L231 554 L231 668 Z M38 668 L161 668 L161 554 L38 554 L38 668 Z " />
<glyph glyph-name="copyright" unicode="&#xa9;" horiz-adv-x="806" d="M562 229 Q538 194 498.5 170 Q459 146 407 146 Q364 146 329 160.5 Q294 175 269 200.5 Q244 226 230 261.5 Q216 297 216 338 Q216 377 230 412 Q244 447 269.5 472.5 Q295 498 330 513 Q365 528 407 528 Q459 528 498.5 503.5 Q538 479 562 444 L492 390 Q481 409 460 423.5 Q439 438 412 438 Q368 438 342 409 Q316 380 316 337 Q316 295 342.5 266 Q369 237 412 237 Q441 237 461 252.5 Q481 268 492 285 L562 229 Z M402 -14 Q329 -14 266 13 Q203 40 156.5 87.5 Q110 135 83 198.5 Q56 262 56 335 Q56 408 83 471.5 Q110 535 156.5 582 Q203 629 266.5 656.5 Q330 684 403 684 Q476 684 539 656.5 Q602 629 648.5 582 Q695 535 722 471.5 Q749 408 749 335 Q749 262 722 198.5 Q695 135 648 87.5 Q601 40 538 13 Q475 -14 402 -14 Z M402 69 Q457 69 504 89.5 Q551 110 585.5 145.5 Q620 181 639.5 229.5 Q659 278 659 335 Q659 391 639.5 439.5 Q620 488 585.5 524 Q551 560 504 580.5 Q457 601 403 601 Q348 601 301 580.5 Q254 560 219.5 524 Q185 488 165 439.5 Q145 391 145 335 Q145 278 164.5 229.5 Q184 181 218.5 145.5 Q253 110 300 89.5 Q347 69 402 69 Z " />
<glyph glyph-name="ordfeminine" unicode="&#xaa;" horiz-adv-x="384" d="M45 604 Q74 626 108.5 637 Q143 648 190 648 Q253 648 292.5 616.5 Q332 585 332 525 L332 322 L239 322 Q239 325 238.5 333 Q238 341 237 348 Q220 331 196.5 321.5 Q173 312 147 312 Q125 312 105 318.5 Q85 325 70 337.5 Q55 350 46 369 Q37 388 37 413 Q37 442 49.5 462.5 Q62 483 82.5 495.5 Q103 508 129.5 514 Q156 520 184 520 Q208 520 235 517 L235 529 Q235 549 219 559.5 Q203 570 180 570 Q151 570 129 562 Q107 554 88 542 L45 604 Z M235 454 Q230 455 220 456 Q210 457 190 457 Q161 457 147 446 Q133 435 133 420 Q133 386 179 386 Q203 386 219 400 Q235 414 235 435 L235 454 Z " />
<glyph glyph-name="guillemotleft" unicode="&#xab;" horiz-adv-x="577" d="M53 241 L157 438 L299 438 L197 241 L299 44 L157 44 L53 241 Z M274 241 L378 438 L520 438 L418 241 L520 44 L378 44 L274 241 Z " />
<glyph glyph-name="logicalnot" unicode="&#xac;" horiz-adv-x="545" d="M73 376 L472 376 L472 121 L354 121 L354 261 L73 261 L73 376 Z " />
<glyph glyph-name="uni00AD" unicode="&#xad;" horiz-adv-x="445" d="M64 348 L381 348 L381 211 L64 211 L64 348 Z " />
<glyph glyph-name="registered" unicode="&#xae;" horiz-adv-x="806" d="M268 512 L414 512 Q450 512 474.5 501.5 Q499 491 515 475.5 Q531 460 538 441 Q545 422 545 406 Q545 377 529.5 350 Q514 323 485 308 L568 165 L468 165 L395 293 L357 293 L357 165 L268 165 L268 512 Z M411 364 Q436 364 445.5 374 Q455 384 455 400 Q455 437 411 437 L357 437 L357 364 L411 364 Z M402 -14 Q329 -14 266 13 Q203 40 156.5 87.5 Q110 135 83 198.5 Q56 262 56 335 Q56 408 83 471.5 Q110 535 156.5 582 Q203 629 266.5 656.5 Q330 684 403 684 Q476 684 539 656.5 Q602 629 648.5 582 Q695 535 722 471.5 Q749 408 749 335 Q749 262 722 198.5 Q695 135 648 87.5 Q601 40 538 13 Q475 -14 402 -14 Z M402 69 Q457 69 504 89.5 Q551 110 585.5 145.5 Q620 181 639.5 229.5 Q659 278 659 335 Q659 391 639.5 439.5 Q620 488 585.5 524 Q551 560 504 580.5 Q457 601 403 601 Q348 601 301 580.5 Q254 560 219.5 524 Q185 488 165 439.5 Q145 391 145 335 Q145 278 164.5 229.5 Q184 181 218.5 145.5 Q253 110 300 89.5 Q347 69 402 69 Z " />
<glyph glyph-name="macron" unicode="&#xaf;" horiz-adv-x="393" d="M60 654 L333 654 L333 552 L60 552 L60 654 Z " />
<glyph glyph-name="degree" unicode="&#xb0;" horiz-adv-x="359" d="M34 524 Q34 555 45.5 581.5 Q57 608 76.5 627 Q96 646 122.5 656.5 Q149 667 179 667 Q209 667 236 656.5 Q263 646 282.5 627 Q302 608 313.5 582 Q325 556 325 525 Q325 494 313.5 468 Q302 442 282.5 423 Q263 404 236 393.5 Q209 383 179 383 Q149 383 122.5 393.5 Q96 404 76.5 423 Q57 442 45.5 468 Q34 494 34 524 Z M179 467 Q204 467 219.5 483.5 Q235 500 235 525 Q235 549 219.5 565.5 Q204 582 179 582 Q154 582 139 565.5 Q124 549 124 524 Q124 500 139 483.5 Q154 467 179 467 Z " />
<glyph glyph-name="plusminus" unicode="&#xb1;" horiz-adv-x="545" d="M73 115 L472 115 L472 0 L73 0 L73 115 Z M73 376 L213 376 L213 518 L331 518 L331 376 L472 376 L472 261 L331 261 L331 144 L213 144 L213 261 L73 261 L73 376 Z " />
<glyph glyph-name="acute" unicode="&#xb4;" horiz-adv-x="471" d="M212 682 L354 682 L270 540 L164 540 L212 682 Z " />
<glyph glyph-name="mu" unicode="&#xb5;" horiz-adv-x="562" d="M54 469 L197 469 L197 200 Q197 158 217 135.5 Q237 113 274 113 Q319 113 342.5 142.5 Q366 172 366 214 L366 469 L510 469 L510 0 L372 0 Q370 11 369.5 22.5 Q369 34 368 45 Q352 22 323.5 7 Q295 -8 259 -8 Q243 -8 228.5 -4.5 Q214 -1 197 8 L197 -200 L54 -200 L54 469 Z " />
<glyph glyph-name="paragraph" unicode="&#xb6;" horiz-adv-x="568" d="M364 667 L501 667 L501 -122 L364 -122 L364 667 Z M270 296 Q221 296 177.5 305 Q134 314 101.5 335 Q69 356 50 391.5 Q31 427 31 481 Q31 534 50 570 Q69 606 102 627.5 Q135 649 178.5 658 Q222 667 270 667 L306 667 L306 296 L270 296 Z M169 250 Q192 243 219.5 241 Q247 239 270 239 L306 239 L306 -122 L169 -122 L169 250 Z " />
<glyph glyph-name="periodcentered" unicode="&#xb7;" horiz-adv-x="285" d="M61 399 L224 399 L224 240 L61 240 L61 399 Z " />
<glyph glyph-name="cedilla" unicode="&#xb8;" horiz-adv-x="572" d="M109 -135 Q127 -141 144.5 -144.5 Q162 -148 179 -148 Q200 -148 217.5 -141.5 Q235 -135 235 -118 Q235 -103 219.5 -97 Q204 -91 183 -91 Q147 -91 117 -103 L130 -35 Q150 -30 170 -26.5 Q190 -23 216 -23 Q265 -23 299 -46.5 Q333 -70 333 -116 Q333 -143 321.5 -163 Q310 -183 291 -196 Q272 -209 248 -215.5 Q224 -222 199 -222 Q161 -222 134.5 -216.5 Q108 -211 95 -206 L109 -135 Z " />
<glyph glyph-name="ordmasculine" unicode="&#xba;" horiz-adv-x="423" d="M42 480 Q42 516 54.5 546.5 Q67 577 89.5 599.5 Q112 622 143 635 Q174 648 212 648 Q249 648 280 635 Q311 622 333 599.5 Q355 577 367.5 546.5 Q380 516 380 480 Q380 444 367.5 413.5 Q355 383 333 360.5 Q311 338 280 325.5 Q249 313 212 313 Q174 313 143 325.5 Q112 338 89.5 360.5 Q67 383 54.5 413.5 Q42 444 42 480 Z M212 404 Q244 404 261.5 426 Q279 448 279 480 Q279 512 261.5 534.5 Q244 557 212 557 Q179 557 161.5 534.5 Q144 512 144 480 Q144 448 161.5 426 Q179 404 212 404 Z " />
<glyph glyph-name="guillemotright" unicode="&#xbb;" horiz-adv-x="577" d="M380 241 L278 438 L420 438 L524 241 L420 44 L278 44 L380 241 Z M159 241 L57 438 L199 438 L303 241 L199 44 L57 44 L159 241 Z " />
<glyph glyph-name="onequarter" unicode="&#xbc;" horiz-adv-x="900" d="M165 528 L93 492 L53 571 L177 637 L274 637 L274 294 L165 294 L165 528 Z M583 630 L708 630 L308 0 L181 0 L583 630 Z M523 138 L683 343 L794 343 L794 133 L833 133 L833 59 L794 59 L794 0 L696 0 L696 59 L523 59 L523 138 Z M696 133 L696 254 L605 133 L696 133 Z " />
<glyph glyph-name="onehalf" unicode="&#xbd;" horiz-adv-x="925" d="M161 528 L89 492 L49 571 L173 637 L270 637 L270 294 L161 294 L161 528 Z M577 630 L702 630 L302 0 L175 0 L577 630 Z M584 55 Q584 80 596 99.5 Q608 119 626 135 Q644 151 665 164.5 Q686 178 704 190.5 Q722 203 734 214.5 Q746 226 746 238 Q746 252 736.5 258.5 Q727 265 711 265 Q691 265 667.5 256 Q644 247 623 233 L577 305 Q608 326 643.5 339.5 Q679 353 721 353 Q783 353 819.5 325 Q856 297 856 247 Q856 212 841 190 Q826 168 803.5 151.5 Q781 135 756 121 Q731 107 710 88 L858 88 L858 1 L584 1 L584 55 Z " />
<glyph glyph-name="threequarters" unicode="&#xbe;" horiz-adv-x="925" d="M112 402 Q132 388 155 379.5 Q178 371 202 371 Q223 371 237 379.5 Q251 388 251 406 Q251 428 234 435 Q217 442 196 442 Q184 442 170.5 440 Q157 438 146 435 L125 478 L234 553 L96 553 L96 637 L343 637 L343 561 L269 502 Q317 494 337 465.5 Q357 437 357 398 Q357 371 344.5 349.5 Q332 328 311 313.5 Q290 299 262 291.5 Q234 284 203 284 Q163 284 127.5 295.5 Q92 307 63 327 L112 402 Z M619 630 L744 630 L344 0 L217 0 L619 630 Z M554 139 L714 344 L825 344 L825 134 L864 134 L864 60 L825 60 L825 1 L727 1 L727 60 L554 60 L554 139 Z M727 134 L727 255 L636 134 L727 134 Z " />
<glyph glyph-name="questiondown" unicode="&#xbf;" horiz-adv-x="526" d="M495 -116 Q481 -131 460.5 -148.5 Q440 -166 411.5 -181 Q383 -196 346.5 -206 Q310 -216 265 -216 Q218 -216 178.5 -203.5 Q139 -191 110 -167 Q81 -143 64.5 -108.5 Q48 -74 48 -31 Q48 -2 54 20 Q60 42 71 60 Q82 78 97 92.5 Q112 107 130 121 Q148 135 164 147 Q180 159 191 172 Q202 185 208.5 201 Q215 217 215 239 L215 252 L352 252 L352 239 Q352 185 333.5 144 Q315 103 273 72 Q258 61 244 50.5 Q230 40 218.5 29 Q207 18 200 5.5 Q193 -7 193 -22 Q193 -53 218 -68.5 Q243 -84 275 -84 Q297 -84 317.5 -78 Q338 -72 354.5 -62.5 Q371 -53 384.5 -42.5 Q398 -32 407 -23 L495 -116 Z M205 469 L362 469 L362 315 L205 315 L205 469 Z " />
<glyph glyph-name="Agrave" unicode="&#xc0;" horiz-adv-x="675" d="M256 667 L423 667 L667 0 L502 0 L451 153 L216 153 L165 0 L7 0 L256 667 Z M415 270 L334 522 L251 270 L415 270 Z M176 873 L339 873 L412 717 L295 717 L176 873 Z " />
<glyph glyph-name="Aacute" unicode="&#xc1;" horiz-adv-x="675" d="M256 667 L423 667 L667 0 L502 0 L451 153 L216 153 L165 0 L7 0 L256 667 Z M415 270 L334 522 L251 270 L415 270 Z M346 873 L509 873 L390 717 L273 717 L346 873 Z " />
<glyph glyph-name="Acircumflex" unicode="&#xc2;" horiz-adv-x="675" d="M256 667 L423 667 L667 0 L502 0 L451 153 L216 153 L165 0 L7 0 L256 667 Z M415 270 L334 522 L251 270 L415 270 Z M277 873 L397 873 L510 717 L390 717 L337 792 L283 717 L164 717 L277 873 Z " />
<glyph glyph-name="Atilde" unicode="&#xc3;" horiz-adv-x="675" d="M256 667 L423 667 L667 0 L502 0 L451 153 L216 153 L165 0 L7 0 L256 667 Z M415 270 L334 522 L251 270 L415 270 Z M131 806 Q152 829 185.5 848.5 Q219 868 260 868 Q280 868 296.5 861.5 Q313 855 329 847 Q345 839 361 832.5 Q377 826 397 826 Q428 826 450.5 837.5 Q473 849 490 863 L544 781 Q522 758 489 738 Q456 718 415 718 Q395 718 378.5 724.5 Q362 731 346 739.5 Q330 748 314 754.5 Q298 761 278 761 Q246 761 224 749.5 Q202 738 185 724 L131 806 Z " />
<glyph glyph-name="Adieresis" unicode="&#xc4;" horiz-adv-x="675" d="M256 667 L423 667 L667 0 L502 0 L451 153 L216 153 L165 0 L7 0 L256 667 Z M415 270 L334 522 L251 270 L415 270 Z M380 856 L512 856 L512 734 L380 734 L380 856 Z M161 856 L293 856 L293 734 L161 734 L161 856 Z " />
<glyph glyph-name="Aring" unicode="&#xc5;" horiz-adv-x="675" d="M252 658 Q229 675 216 702 Q203 729 203 761 Q203 789 213.5 813.5 Q224 838 242.5 856 Q261 874 286 884 Q311 894 339 894 Q367 894 392 884 Q417 874 436 856 Q455 838 465.5 813.5 Q476 789 476 761 Q476 729 462.5 702 Q449 675 426 658 L667 0 L502 0 L451 153 L216 153 L165 0 L7 0 L252 658 Z M415 270 L334 522 L251 270 L415 270 Z M340 713 Q360 713 373 727 Q386 741 386 761 Q386 782 373 795.5 Q360 809 339 809 Q319 809 306 795.5 Q293 782 293 761 Q293 741 306 727 Q319 713 340 713 Z " />
<glyph glyph-name="AE" unicode="&#xc6;" horiz-adv-x="959" d="M365 667 L900 667 L900 535 L608 535 L608 405 L833 405 L833 277 L608 277 L608 133 L922 133 L922 0 L463 0 L463 155 L241 155 L161 0 L0 0 L365 667 Z M463 271 L463 543 L441 543 L301 271 L463 271 Z " />
<glyph glyph-name="Ccedilla" unicode="&#xc7;" horiz-adv-x="681" d="M667 123 Q646 94 616 68.5 Q586 43 549.5 24 Q513 5 470.5 -6 Q428 -17 382 -17 Q306 -17 243 9 Q180 35 134.5 81.5 Q89 128 64 191.5 Q39 255 39 331 Q39 405 64 469.5 Q89 534 134.5 581.5 Q180 629 243.5 656.5 Q307 684 384 684 Q477 684 546.5 650 Q616 616 662 552 L559 453 Q529 495 488 520.5 Q447 546 390 546 Q345 546 309 529.5 Q273 513 248 484 Q223 455 209.5 416.5 Q196 378 196 335 Q196 291 209.5 253 Q223 215 248 187 Q273 159 308 143 Q343 127 387 127 Q423 127 449.5 134.5 Q476 142 496.5 154.5 Q517 167 533 183.5 Q549 200 564 217 L667 123 Z M268 -144 Q304 -156 339 -156 Q359 -156 376.5 -151 Q394 -146 394 -129 Q394 -115 378.5 -109.5 Q363 -104 343 -104 Q326 -104 308.5 -106.5 Q291 -109 276 -114 L289 -46 Q309 -40 329.5 -37.5 Q350 -35 376 -35 Q425 -35 460 -58 Q495 -81 495 -126 Q495 -153 483 -173 Q471 -193 451.5 -206 Q432 -219 408 -225 Q384 -231 359 -231 Q321 -231 294 -226 Q267 -221 254 -216 L268 -144 Z " />
<glyph glyph-name="Egrave" unicode="&#xc8;" horiz-adv-x="580" d="M65 667 L521 667 L521 535 L216 535 L216 405 L453 405 L453 277 L216 277 L216 133 L543 133 L543 0 L65 0 L65 667 Z M148 873 L311 873 L384 717 L267 717 L148 873 Z " />
<glyph glyph-name="Eacute" unicode="&#xc9;" horiz-adv-x="580" d="M65 667 L521 667 L521 535 L216 535 L216 405 L453 405 L453 277 L216 277 L216 133 L543 133 L543 0 L65 0 L65 667 Z M306 873 L469 873 L350 717 L233 717 L306 873 Z " />
<glyph glyph-name="Ecircumflex" unicode="&#xca;" horiz-adv-x="580" d="M65 667 L521 667 L521 535 L216 535 L216 405 L453 405 L453 277 L216 277 L216 133 L543 133 L543 0 L65 0 L65 667 Z M236 873 L356 873 L469 717 L349 717 L296 792 L242 717 L123 717 L236 873 Z " />
<glyph glyph-name="Edieresis" unicode="&#xcb;" horiz-adv-x="580" d="M65 667 L521 667 L521 535 L216 535 L216 405 L453 405 L453 277 L216 277 L216 133 L543 133 L543 0 L65 0 L65 667 Z M338 856 L470 856 L470 734 L338 734 L338 856 Z M119 856 L251 856 L251 734 L119 734 L119 856 Z " />
<glyph glyph-name="Igrave" unicode="&#xcc;" horiz-adv-x="281" d="M65 667 L216 667 L216 0 L65 0 L65 667 Z M-23 873 L140 873 L213 717 L96 717 L-23 873 Z " />
<glyph glyph-name="Iacute" unicode="&#xcd;" horiz-adv-x="281" d="M65 667 L216 667 L216 0 L65 0 L65 667 Z M144 873 L307 873 L188 717 L71 717 L144 873 Z " />
<glyph glyph-name="Icircumflex" unicode="&#xce;" horiz-adv-x="281" d="M65 667 L216 667 L216 0 L65 0 L65 667 Z M82 873 L202 873 L315 717 L195 717 L142 792 L88 717 L-31 717 L82 873 Z " />
<glyph glyph-name="Idieresis" unicode="&#xcf;" horiz-adv-x="281" d="M65 667 L216 667 L216 0 L65 0 L65 667 Z M185 856 L317 856 L317 734 L185 734 L185 856 Z M-34 856 L98 856 L98 734 L-34 734 L-34 856 Z " />
<glyph glyph-name="Eth" unicode="&#xd0;" horiz-adv-x="717" d="M65 288 L1 288 L1 384 L65 384 L65 667 L317 667 Q394 667 459.5 647 Q525 627 572.5 586 Q620 545 646.5 481 Q673 417 673 330 Q673 247 646 185.5 Q619 124 571.5 82.5 Q524 41 458.5 20.5 Q393 0 316 0 L65 0 L65 288 Z M309 134 Q409 134 463 186.5 Q517 239 517 331 Q517 377 505 414.5 Q493 452 467.5 478.5 Q442 505 402.5 519.5 Q363 534 309 534 L216 534 L216 384 L348 384 L348 288 L216 288 L216 134 L309 134 Z " />
<glyph glyph-name="Ntilde" unicode="&#xd1;" horiz-adv-x="712" d="M65 667 L209 667 L498 234 L498 667 L647 667 L647 0 L510 0 L214 441 L214 0 L65 0 L65 667 Z M142 806 Q163 829 196.5 848.5 Q230 868 271 868 Q291 868 307.5 861.5 Q324 855 340 847 Q356 839 372 832.5 Q388 826 408 826 Q439 826 461.5 837.5 Q484 849 501 863 L555 781 Q533 758 500 738 Q467 718 426 718 Q406 718 389.5 724.5 Q373 731 357 739.5 Q341 748 325 754.5 Q309 761 289 761 Q257 761 235 749.5 Q213 738 196 724 L142 806 Z " />
<glyph glyph-name="Ograve" unicode="&#xd2;" horiz-adv-x="772" d="M386 -17 Q312 -17 248.5 10 Q185 37 138.5 84 Q92 131 65.5 195.5 Q39 260 39 334 Q39 409 65.5 473 Q92 537 138.5 584 Q185 631 248.5 658 Q312 685 386 685 Q460 685 523.5 658 Q587 631 633.5 584 Q680 537 706.5 473 Q733 409 733 334 Q733 260 706.5 195.5 Q680 131 633.5 84 Q587 37 523.5 10 Q460 -17 386 -17 Z M386 125 Q430 125 465 142 Q500 159 524.5 188 Q549 217 562 255 Q575 293 575 336 Q575 379 562 417 Q549 455 524.5 483.5 Q500 512 465 528.5 Q430 545 386 545 Q342 545 306.5 528.5 Q271 512 246.5 483.5 Q222 455 209 417 Q196 379 196 336 Q196 293 209 255 Q222 217 246.5 188 Q271 159 306.5 142 Q342 125 386 125 Z M225 873 L388 873 L461 717 L344 717 L225 873 Z " />
<glyph glyph-name="Oacute" unicode="&#xd3;" horiz-adv-x="772" d="M386 -17 Q312 -17 248.5 10 Q185 37 138.5 84 Q92 131 65.5 195.5 Q39 260 39 334 Q39 409 65.5 473 Q92 537 138.5 584 Q185 631 248.5 658 Q312 685 386 685 Q460 685 523.5 658 Q587 631 633.5 584 Q680 537 706.5 473 Q733 409 733 334 Q733 260 706.5 195.5 Q680 131 633.5 84 Q587 37 523.5 10 Q460 -17 386 -17 Z M386 125 Q430 125 465 142 Q500 159 524.5 188 Q549 217 562 255 Q575 293 575 336 Q575 379 562 417 Q549 455 524.5 483.5 Q500 512 465 528.5 Q430 545 386 545 Q342 545 306.5 528.5 Q271 512 246.5 483.5 Q222 455 209 417 Q196 379 196 336 Q196 293 209 255 Q222 217 246.5 188 Q271 159 306.5 142 Q342 125 386 125 Z M383 873 L546 873 L427 717 L310 717 L383 873 Z " />
<glyph glyph-name="Ocircumflex" unicode="&#xd4;" horiz-adv-x="772" d="M386 -17 Q312 -17 248.5 10 Q185 37 138.5 84 Q92 131 65.5 195.5 Q39 260 39 334 Q39 409 65.5 473 Q92 537 138.5 584 Q185 631 248.5 658 Q312 685 386 685 Q460 685 523.5 658 Q587 631 633.5 584 Q680 537 706.5 473 Q733 409 733 334 Q733 260 706.5 195.5 Q680 131 633.5 84 Q587 37 523.5 10 Q460 -17 386 -17 Z M386 125 Q430 125 465 142 Q500 159 524.5 188 Q549 217 562 255 Q575 293 575 336 Q575 379 562 417 Q549 455 524.5 483.5 Q500 512 465 528.5 Q430 545 386 545 Q342 545 306.5 528.5 Q271 512 246.5 483.5 Q222 455 209 417 Q196 379 196 336 Q196 293 209 255 Q222 217 246.5 188 Q271 159 306.5 142 Q342 125 386 125 Z M326 873 L446 873 L559 717 L439 717 L386 792 L332 717 L213 717 L326 873 Z " />
<glyph glyph-name="Otilde" unicode="&#xd5;" horiz-adv-x="772" d="M386 -17 Q312 -17 248.5 10 Q185 37 138.5 84 Q92 131 65.5 195.5 Q39 260 39 334 Q39 409 65.5 473 Q92 537 138.5 584 Q185 631 248.5 658 Q312 685 386 685 Q460 685 523.5 658 Q587 631 633.5 584 Q680 537 706.5 473 Q733 409 733 334 Q733 260 706.5 195.5 Q680 131 633.5 84 Q587 37 523.5 10 Q460 -17 386 -17 Z M386 125 Q430 125 465 142 Q500 159 524.5 188 Q549 217 562 255 Q575 293 575 336 Q575 379 562 417 Q549 455 524.5 483.5 Q500 512 465 528.5 Q430 545 386 545 Q342 545 306.5 528.5 Q271 512 246.5 483.5 Q222 455 209 417 Q196 379 196 336 Q196 293 209 255 Q222 217 246.5 188 Q271 159 306.5 142 Q342 125 386 125 Z M180 806 Q201 829 234.5 848.5 Q268 868 309 868 Q329 868 345.5 861.5 Q362 855 378 847 Q394 839 410 832.5 Q426 826 446 826 Q477 826 499.5 837.5 Q522 849 539 863 L593 781 Q571 758 538 738 Q505 718 464 718 Q444 718 427.5 724.5 Q411 731 395 739.5 Q379 748 363 754.5 Q347 761 327 761 Q295 761 273 749.5 Q251 738 234 724 L180 806 Z " />
<glyph glyph-name="Odieresis" unicode="&#xd6;" horiz-adv-x="772" d="M386 -17 Q312 -17 248.5 10 Q185 37 138.5 84 Q92 131 65.5 195.5 Q39 260 39 334 Q39 409 65.5 473 Q92 537 138.5 584 Q185 631 248.5 658 Q312 685 386 685 Q460 685 523.5 658 Q587 631 633.5 584 Q680 537 706.5 473 Q733 409 733 334 Q733 260 706.5 195.5 Q680 131 633.5 84 Q587 37 523.5 10 Q460 -17 386 -17 Z M386 125 Q430 125 465 142 Q500 159 524.5 188 Q549 217 562 255 Q575 293 575 336 Q575 379 562 417 Q549 455 524.5 483.5 Q500 512 465 528.5 Q430 545 386 545 Q342 545 306.5 528.5 Q271 512 246.5 483.5 Q222 455 209 417 Q196 379 196 336 Q196 293 209 255 Q222 217 246.5 188 Q271 159 306.5 142 Q342 125 386 125 Z M429 856 L561 856 L561 734 L429 734 L429 856 Z M210 856 L342 856 L342 734 L210 734 L210 856 Z " />
<glyph glyph-name="multiply" unicode="&#xd7;" horiz-adv-x="545" d="M191 318 L76 434 L157 515 L273 399 L390 516 L470 435 L354 318 L469 203 L388 121 L272 237 L156 120 L75 201 L191 318 Z " />
<glyph glyph-name="Oslash" unicode="&#xd8;" horiz-adv-x="772" d="M147 73 Q96 121 67.5 187.5 Q39 254 39 332 Q39 407 65.5 471 Q92 535 138.5 582 Q185 629 248.5 656 Q312 683 386 683 Q472 683 544 646 L601 729 L685 675 L626 589 Q676 541 704.5 475.5 Q733 410 733 332 Q733 258 706.5 193.5 Q680 129 633.5 82 Q587 35 523.5 8 Q460 -19 386 -19 Q343 -19 303.5 -10 Q264 -1 229 16 L173 -65 L89 -11 L147 73 Z M462 528 Q427 543 386 543 Q342 543 306.5 526.5 Q271 510 246.5 481.5 Q222 453 209 415 Q196 377 196 334 Q196 256 235 200 L462 528 Z M313 138 Q344 123 386 123 Q430 123 465 140 Q500 157 524.5 186 Q549 215 562 253 Q575 291 575 334 Q575 407 538 463 L313 138 Z " />
<glyph glyph-name="Ugrave" unicode="&#xd9;" horiz-adv-x="680" d="M60 667 L212 667 L212 272 Q212 239 218.5 212.5 Q225 186 240 167 Q255 148 279.5 137.5 Q304 127 340 127 Q375 127 399.5 137.5 Q424 148 439 167 Q454 186 460.5 212.5 Q467 239 467 272 L467 667 L620 667 L620 253 Q620 193 600.5 143 Q581 93 544.5 57.5 Q508 22 456 2 Q404 -18 340 -18 Q276 -18 224 1.5 Q172 21 135.5 57 Q99 93 79.5 143 Q60 193 60 253 L60 667 Z M190 873 L353 873 L426 717 L309 717 L190 873 Z " />
<glyph glyph-name="Uacute" unicode="&#xda;" horiz-adv-x="680" d="M60 667 L212 667 L212 272 Q212 239 218.5 212.5 Q225 186 240 167 Q255 148 279.5 137.5 Q304 127 340 127 Q375 127 399.5 137.5 Q424 148 439 167 Q454 186 460.5 212.5 Q467 239 467 272 L467 667 L620 667 L620 253 Q620 193 600.5 143 Q581 93 544.5 57.5 Q508 22 456 2 Q404 -18 340 -18 Q276 -18 224 1.5 Q172 21 135.5 57 Q99 93 79.5 143 Q60 193 60 253 L60 667 Z M341 873 L504 873 L385 717 L268 717 L341 873 Z " />
<glyph glyph-name="Ucircumflex" unicode="&#xdb;" horiz-adv-x="680" d="M60 667 L212 667 L212 272 Q212 239 218.5 212.5 Q225 186 240 167 Q255 148 279.5 137.5 Q304 127 340 127 Q375 127 399.5 137.5 Q424 148 439 167 Q454 186 460.5 212.5 Q467 239 467 272 L467 667 L620 667 L620 253 Q620 193 600.5 143 Q581 93 544.5 57.5 Q508 22 456 2 Q404 -18 340 -18 Q276 -18 224 1.5 Q172 21 135.5 57 Q99 93 79.5 143 Q60 193 60 253 L60 667 Z M280 873 L400 873 L513 717 L393 717 L340 792 L286 717 L167 717 L280 873 Z " />
<glyph glyph-name="Udieresis" unicode="&#xdc;" horiz-adv-x="680" d="M60 667 L212 667 L212 272 Q212 239 218.5 212.5 Q225 186 240 167 Q255 148 279.5 137.5 Q304 127 340 127 Q375 127 399.5 137.5 Q424 148 439 167 Q454 186 460.5 212.5 Q467 239 467 272 L467 667 L620 667 L620 253 Q620 193 600.5 143 Q581 93 544.5 57.5 Q508 22 456 2 Q404 -18 340 -18 Q276 -18 224 1.5 Q172 21 135.5 57 Q99 93 79.5 143 Q60 193 60 253 L60 667 Z M383 856 L515 856 L515 734 L383 734 L383 856 Z M164 856 L296 856 L296 734 L164 734 L164 856 Z " />
<glyph glyph-name="Yacute" unicode="&#xdd;" horiz-adv-x="636" d="M241 279 L7 667 L178 667 L323 415 L464 667 L628 667 L394 280 L394 0 L241 0 L241 279 Z M335 873 L498 873 L379 717 L262 717 L335 873 Z " />
<glyph glyph-name="Thorn" unicode="&#xde;" horiz-adv-x="578" d="M65 667 L212 667 L212 558 L308 558 Q370 558 414 540 Q458 522 486.5 492.5 Q515 463 528.5 424.5 Q542 386 542 344 Q542 290 523.5 249 Q505 208 473.5 181 Q442 154 401 140 Q360 126 315 126 L212 126 L212 0 L65 0 L65 667 Z M300 249 Q342 249 366.5 274 Q391 299 391 340 Q391 383 366 409 Q341 435 299 435 L212 435 L212 249 L300 249 Z " />
<glyph glyph-name="germandbls" unicode="&#xdf;" horiz-adv-x="618" d="M51 467 Q51 526 69 567 Q87 608 119 634 Q151 660 196 672 Q241 684 294 684 Q334 684 371 674 Q408 664 436.5 644 Q465 624 482.5 593.5 Q500 563 500 523 Q500 486 485.5 458.5 Q471 431 453 409.5 Q435 388 420.5 371 Q406 354 406 339 Q406 322 423.5 312 Q441 302 470 293 Q495 285 517 274 Q539 263 555.5 245.5 Q572 228 581 202.5 Q590 177 590 141 Q590 104 575 75 Q560 46 534.5 26.5 Q509 7 474.5 -3.5 Q440 -14 400 -14 Q352 -14 308.5 -2 Q265 10 231 37 L304 134 Q323 118 345.5 109 Q368 100 389 100 Q418 100 435.5 109 Q453 118 453 140 Q453 163 433 176.5 Q413 190 368 205 Q348 212 330 221 Q312 230 297.5 244 Q283 258 274.5 279 Q266 300 266 330 Q266 361 280.5 385.5 Q295 410 313 431 Q331 452 345.5 470.5 Q360 489 360 507 Q360 536 340.5 552.5 Q321 569 287 569 Q237 569 216 538.5 Q195 508 195 462 L195 0 L51 0 L51 467 Z " />
<glyph glyph-name="agrave" unicode="&#xe0;" horiz-adv-x="515" d="M325 44 Q301 16 264.5 1 Q228 -14 183 -14 Q158 -14 130.5 -7 Q103 0 79.5 16.5 Q56 33 40.5 61 Q25 89 25 131 Q25 172 41.5 204 Q58 236 87 257.5 Q116 279 155.5 290 Q195 301 241 301 Q266 301 291.5 300 Q317 299 325 297 L325 307 Q325 325 317.5 337.5 Q310 350 297.5 358.5 Q285 367 269 370.5 Q253 374 235 374 Q187 374 155.5 362 Q124 350 102 335 L43 423 Q58 434 77 445 Q96 456 122 465 Q148 474 180.5 479.5 Q213 485 255 485 Q362 485 413 427.5 Q464 370 464 273 L464 0 L329 0 L325 44 Z M325 207 Q320 208 306 209.5 Q292 211 274 211 Q214 211 189 194 Q164 177 164 146 Q164 88 234 88 Q251 88 267.5 93.5 Q284 99 296.5 109 Q309 119 317 134 Q325 149 325 169 L325 207 Z M132 682 L275 682 L323 540 L217 540 L132 682 Z " />
<glyph glyph-name="aacute" unicode="&#xe1;" horiz-adv-x="515" d="M325 44 Q301 16 264.5 1 Q228 -14 183 -14 Q158 -14 130.5 -7 Q103 0 79.5 16.5 Q56 33 40.5 61 Q25 89 25 131 Q25 172 41.5 204 Q58 236 87 257.5 Q116 279 155.5 290 Q195 301 241 301 Q266 301 291.5 300 Q317 299 325 297 L325 307 Q325 325 317.5 337.5 Q310 350 297.5 358.5 Q285 367 269 370.5 Q253 374 235 374 Q187 374 155.5 362 Q124 350 102 335 L43 423 Q58 434 77 445 Q96 456 122 465 Q148 474 180.5 479.5 Q213 485 255 485 Q362 485 413 427.5 Q464 370 464 273 L464 0 L329 0 L325 44 Z M325 207 Q320 208 306 209.5 Q292 211 274 211 Q214 211 189 194 Q164 177 164 146 Q164 88 234 88 Q251 88 267.5 93.5 Q284 99 296.5 109 Q309 119 317 134 Q325 149 325 169 L325 207 Z M240 682 L382 682 L298 540 L192 540 L240 682 Z " />
<glyph glyph-name="acircumflex" unicode="&#xe2;" horiz-adv-x="515" d="M325 44 Q301 16 264.5 1 Q228 -14 183 -14 Q158 -14 130.5 -7 Q103 0 79.5 16.5 Q56 33 40.5 61 Q25 89 25 131 Q25 172 41.5 204 Q58 236 87 257.5 Q116 279 155.5 290 Q195 301 241 301 Q266 301 291.5 300 Q317 299 325 297 L325 307 Q325 325 317.5 337.5 Q310 350 297.5 358.5 Q285 367 269 370.5 Q253 374 235 374 Q187 374 155.5 362 Q124 350 102 335 L43 423 Q58 434 77 445 Q96 456 122 465 Q148 474 180.5 479.5 Q213 485 255 485 Q362 485 413 427.5 Q464 370 464 273 L464 0 L329 0 L325 44 Z M325 207 Q320 208 306 209.5 Q292 211 274 211 Q214 211 189 194 Q164 177 164 146 Q164 88 234 88 Q251 88 267.5 93.5 Q284 99 296.5 109 Q309 119 317 134 Q325 149 325 169 L325 207 Z M193 682 L314 682 L420 540 L301 540 L253 606 L206 540 L87 540 L193 682 Z " />
<glyph glyph-name="atilde" unicode="&#xe3;" horiz-adv-x="515" d="M325 44 Q301 16 264.5 1 Q228 -14 183 -14 Q158 -14 130.5 -7 Q103 0 79.5 16.5 Q56 33 40.5 61 Q25 89 25 131 Q25 172 41.5 204 Q58 236 87 257.5 Q116 279 155.5 290 Q195 301 241 301 Q266 301 291.5 300 Q317 299 325 297 L325 307 Q325 325 317.5 337.5 Q310 350 297.5 358.5 Q285 367 269 370.5 Q253 374 235 374 Q187 374 155.5 362 Q124 350 102 335 L43 423 Q58 434 77 445 Q96 456 122 465 Q148 474 180.5 479.5 Q213 485 255 485 Q362 485 413 427.5 Q464 370 464 273 L464 0 L329 0 L325 44 Z M325 207 Q320 208 306 209.5 Q292 211 274 211 Q214 211 189 194 Q164 177 164 146 Q164 88 234 88 Q251 88 267.5 93.5 Q284 99 296.5 109 Q309 119 317 134 Q325 149 325 169 L325 207 Z M52 620 Q72 642 104.5 661 Q137 680 176 680 Q195 680 211.5 673.5 Q228 667 243 659 Q258 651 274 644.5 Q290 638 309 638 Q339 638 360.5 650 Q382 662 399 675 L450 596 Q430 574 397.5 554.5 Q365 535 326 535 Q306 535 290 541.5 Q274 548 259 556 Q244 564 228 570.5 Q212 577 193 577 Q163 577 141.5 565.5 Q120 554 103 541 L52 620 Z " />
<glyph glyph-name="adieresis" unicode="&#xe4;" horiz-adv-x="515" d="M325 44 Q301 16 264.5 1 Q228 -14 183 -14 Q158 -14 130.5 -7 Q103 0 79.5 16.5 Q56 33 40.5 61 Q25 89 25 131 Q25 172 41.5 204 Q58 236 87 257.5 Q116 279 155.5 290 Q195 301 241 301 Q266 301 291.5 300 Q317 299 325 297 L325 307 Q325 325 317.5 337.5 Q310 350 297.5 358.5 Q285 367 269 370.5 Q253 374 235 374 Q187 374 155.5 362 Q124 350 102 335 L43 423 Q58 434 77 445 Q96 456 122 465 Q148 474 180.5 479.5 Q213 485 255 485 Q362 485 413 427.5 Q464 370 464 273 L464 0 L329 0 L325 44 Z M325 207 Q320 208 306 209.5 Q292 211 274 211 Q214 211 189 194 Q164 177 164 146 Q164 88 234 88 Q251 88 267.5 93.5 Q284 99 296.5 109 Q309 119 317 134 Q325 149 325 169 L325 207 Z M293 668 L416 668 L416 554 L293 554 L293 668 Z M100 668 L223 668 L223 554 L100 554 L100 668 Z " />
<glyph glyph-name="aring" unicode="&#xe5;" horiz-adv-x="515" d="M325 44 Q301 16 264.5 1 Q228 -14 183 -14 Q158 -14 130.5 -7 Q103 0 79.5 16.5 Q56 33 40.5 61 Q25 89 25 131 Q25 172 41.5 204 Q58 236 87 257.5 Q116 279 155.5 290 Q195 301 241 301 Q266 301 291.5 300 Q317 299 325 297 L325 307 Q325 325 317.5 337.5 Q310 350 297.5 358.5 Q285 367 269 370.5 Q253 374 235 374 Q187 374 155.5 362 Q124 350 102 335 L43 423 Q58 434 77 445 Q96 456 122 465 Q148 474 180.5 479.5 Q213 485 255 485 Q362 485 413 427.5 Q464 370 464 273 L464 0 L329 0 L325 44 Z M325 207 Q320 208 306 209.5 Q292 211 274 211 Q214 211 189 194 Q164 177 164 146 Q164 88 234 88 Q251 88 267.5 93.5 Q284 99 296.5 109 Q309 119 317 134 Q325 149 325 169 L325 207 Z M137 645 Q137 670 146.5 691.5 Q156 713 172.5 728.5 Q189 744 211 752.5 Q233 761 257 761 Q282 761 304 752.5 Q326 744 342.5 728.5 Q359 713 368.5 691.5 Q378 670 378 645 Q378 620 368.5 599 Q359 578 342.5 562.5 Q326 547 304 538 Q282 529 258 529 Q233 529 211 538 Q189 547 172.5 562.5 Q156 578 146.5 599 Q137 620 137 645 Z M257 604 Q274 604 286 616 Q298 628 298 645 Q298 662 286.5 674 Q275 686 258 686 Q241 686 229 674 Q217 662 217 645 Q217 628 228.5 616 Q240 604 257 604 Z " />
<glyph glyph-name="ae" unicode="&#xe6;" horiz-adv-x="822" d="M43 423 Q58 434 77 445 Q96 456 121 465 Q146 474 177.5 479.5 Q209 485 248 485 Q303 485 341.5 469.5 Q380 454 406 425 Q433 454 473 469.5 Q513 485 565 485 Q621 485 663.5 465 Q706 445 734.5 409.5 Q763 374 777.5 324.5 Q792 275 792 216 L792 192 L458 192 Q458 173 467 156 Q476 139 492 126 Q508 113 530.5 105 Q553 97 582 97 Q638 97 673 113.5 Q708 130 724 142 Q738 119 753 96.5 Q768 74 782 51 Q774 46 758 34.5 Q742 23 717 12 Q692 1 657 -7.5 Q622 -16 577 -16 Q514 -16 467.5 3.5 Q421 23 389 58 Q350 18 306.5 1.5 Q263 -15 203 -15 Q169 -15 137 -7 Q105 1 80 18.5 Q55 36 40 64 Q25 92 25 133 Q25 174 41.5 205 Q58 236 87 256.5 Q116 277 155.5 287 Q195 297 241 297 Q265 297 290 295.5 Q315 294 325 293 L325 307 Q325 343 297.5 358.5 Q270 374 231 374 Q187 374 155.5 362 Q124 350 102 335 L43 423 Z M325 203 Q310 206 265 206 Q216 206 189 191.5 Q162 177 162 146 Q162 118 180.5 103 Q199 88 234 88 Q272 88 298.5 109 Q325 130 325 169 L325 203 Z M657 284 Q657 300 651 316 Q645 332 633 345 Q621 358 603 365.5 Q585 373 560 373 Q535 373 516 364.5 Q497 356 484 343 Q471 330 464.5 314.5 Q458 299 458 284 L657 284 Z " />
<glyph glyph-name="ccedilla" unicode="&#xe7;" horiz-adv-x="487" d="M474 62 Q445 30 397.5 7 Q350 -16 285 -16 Q228 -16 181.5 2.5 Q135 21 102 54.5 Q69 88 50.5 134 Q32 180 32 235 Q32 287 51 332.5 Q70 378 103.5 412 Q137 446 183.5 465.5 Q230 485 285 485 Q349 485 396 464 Q443 443 475 408 L388 314 Q372 332 349 346 Q326 360 288 360 Q262 360 241.5 349.5 Q221 339 206.5 322 Q192 305 184.5 282.5 Q177 260 177 235 Q177 212 184.5 189.5 Q192 167 206.5 149.5 Q221 132 241.5 121 Q262 110 288 110 Q325 110 350 124.5 Q375 139 390 156 L474 62 Z M173 -144 Q191 -150 208.5 -153.5 Q226 -157 243 -157 Q264 -157 281.5 -150.5 Q299 -144 299 -127 Q299 -112 283.5 -106 Q268 -100 247 -100 Q211 -100 181 -112 L194 -44 Q214 -39 234 -35.5 Q254 -32 280 -32 Q329 -32 363 -55.5 Q397 -79 397 -125 Q397 -152 385.5 -172 Q374 -192 355 -205 Q336 -218 312 -224.5 Q288 -231 263 -231 Q225 -231 198.5 -225.5 Q172 -220 159 -215 L173 -144 Z " />
<glyph glyph-name="egrave" unicode="&#xe8;" horiz-adv-x="535" d="M496 51 Q488 46 472 34.5 Q456 23 430.5 12 Q405 1 370 -7.5 Q335 -16 290 -16 Q230 -16 182 2.5 Q134 21 100.5 54 Q67 87 49.5 133.5 Q32 180 32 236 Q32 285 48.5 330.5 Q65 376 96 410 Q127 444 172 464.5 Q217 485 274 485 Q331 485 374 465 Q417 445 446.5 409.5 Q476 374 491 324.5 Q506 275 506 216 L506 192 L172 192 Q173 154 205.5 125.5 Q238 97 295 97 Q351 97 386 113.5 Q421 130 437 142 L496 51 Z M370 284 Q370 299 364 314.5 Q358 330 346 343 Q334 356 316 364.5 Q298 373 273 373 Q248 373 229 364.5 Q210 356 197.5 343 Q185 330 178.5 314.5 Q172 299 172 284 L370 284 Z M148 682 L291 682 L339 540 L233 540 L148 682 Z " />
<glyph glyph-name="eacute" unicode="&#xe9;" horiz-adv-x="535" d="M496 51 Q488 46 472 34.5 Q456 23 430.5 12 Q405 1 370 -7.5 Q335 -16 290 -16 Q230 -16 182 2.5 Q134 21 100.5 54 Q67 87 49.5 133.5 Q32 180 32 236 Q32 285 48.5 330.5 Q65 376 96 410 Q127 444 172 464.5 Q217 485 274 485 Q331 485 374 465 Q417 445 446.5 409.5 Q476 374 491 324.5 Q506 275 506 216 L506 192 L172 192 Q173 154 205.5 125.5 Q238 97 295 97 Q351 97 386 113.5 Q421 130 437 142 L496 51 Z M370 284 Q370 299 364 314.5 Q358 330 346 343 Q334 356 316 364.5 Q298 373 273 373 Q248 373 229 364.5 Q210 356 197.5 343 Q185 330 178.5 314.5 Q172 299 172 284 L370 284 Z M265 682 L407 682 L323 540 L217 540 L265 682 Z " />
<glyph glyph-name="ecircumflex" unicode="&#xea;" horiz-adv-x="535" d="M496 51 Q488 46 472 34.5 Q456 23 430.5 12 Q405 1 370 -7.5 Q335 -16 290 -16 Q230 -16 182 2.5 Q134 21 100.5 54 Q67 87 49.5 133.5 Q32 180 32 236 Q32 285 48.5 330.5 Q65 376 96 410 Q127 444 172 464.5 Q217 485 274 485 Q331 485 374 465 Q417 445 446.5 409.5 Q476 374 491 324.5 Q506 275 506 216 L506 192 L172 192 Q173 154 205.5 125.5 Q238 97 295 97 Q351 97 386 113.5 Q421 130 437 142 L496 51 Z M370 284 Q370 299 364 314.5 Q358 330 346 343 Q334 356 316 364.5 Q298 373 273 373 Q248 373 229 364.5 Q210 356 197.5 343 Q185 330 178.5 314.5 Q172 299 172 284 L370 284 Z M209 682 L330 682 L436 540 L317 540 L269 606 L222 540 L103 540 L209 682 Z " />
<glyph glyph-name="edieresis" unicode="&#xeb;" horiz-adv-x="535" d="M496 51 Q488 46 472 34.5 Q456 23 430.5 12 Q405 1 370 -7.5 Q335 -16 290 -16 Q230 -16 182 2.5 Q134 21 100.5 54 Q67 87 49.5 133.5 Q32 180 32 236 Q32 285 48.5 330.5 Q65 376 96 410 Q127 444 172 464.5 Q217 485 274 485 Q331 485 374 465 Q417 445 446.5 409.5 Q476 374 491 324.5 Q506 275 506 216 L506 192 L172 192 Q173 154 205.5 125.5 Q238 97 295 97 Q351 97 386 113.5 Q421 130 437 142 L496 51 Z M370 284 Q370 299 364 314.5 Q358 330 346 343 Q334 356 316 364.5 Q298 373 273 373 Q248 373 229 364.5 Q210 356 197.5 343 Q185 330 178.5 314.5 Q172 299 172 284 L370 284 Z M304 668 L427 668 L427 554 L304 554 L304 668 Z M111 668 L234 668 L234 554 L111 554 L111 668 Z " />
<glyph glyph-name="igrave" unicode="&#xec;" horiz-adv-x="258" d="M57 469 L201 469 L201 0 L57 0 L57 469 Z M-5 682 L138 682 L186 540 L80 540 L-5 682 Z " />
<glyph glyph-name="iacute" unicode="&#xed;" horiz-adv-x="258" d="M57 469 L201 469 L201 0 L57 0 L57 469 Z M121 682 L263 682 L179 540 L73 540 L121 682 Z " />
<glyph glyph-name="icircumflex" unicode="&#xee;" horiz-adv-x="258" d="M57 469 L201 469 L201 0 L57 0 L57 469 Z M70 682 L191 682 L297 540 L178 540 L130 606 L83 540 L-36 540 L70 682 Z " />
<glyph glyph-name="idieresis" unicode="&#xef;" horiz-adv-x="258" d="M57 469 L201 469 L201 0 L57 0 L57 469 Z M165 668 L288 668 L288 554 L165 554 L165 668 Z M-28 668 L95 668 L95 554 L-28 554 L-28 668 Z " />
<glyph glyph-name="eth" unicode="&#xf0;" horiz-adv-x="559" d="M181 570 Q164 575 145 578 Q126 581 106 583 L124 681 Q189 676 243 663 L284 723 L349 681 L319 636 Q376 609 415.5 570.5 Q455 532 479.5 485 Q504 438 515 385 Q526 332 526 277 Q526 205 507 150 Q488 95 454 58.5 Q420 22 372.5 3 Q325 -16 269 -16 Q221 -16 177.5 0 Q134 16 102 46.5 Q70 77 51 120.5 Q32 164 32 219 Q32 268 50.5 310 Q69 352 100.5 383 Q132 414 174.5 431.5 Q217 449 266 449 Q296 449 320 444 Q344 439 359 434 Q346 463 322 491 Q298 519 256 542 L209 472 L144 515 L181 570 Z M380 313 Q364 322 341.5 329.5 Q319 337 292 337 Q267 337 245 329.5 Q223 322 207 307 Q191 292 181.5 270.5 Q172 249 172 221 Q172 173 201 141 Q230 109 275 109 Q324 109 355 147 Q386 185 386 257 Q386 270 385 284 Q384 298 380 313 Z " />
<glyph glyph-name="ntilde" unicode="&#xf1;" horiz-adv-x="562" d="M54 469 L192 469 L196 418 Q219 446 256.5 463 Q294 480 335 480 Q416 480 463.5 432 Q511 384 511 290 L511 0 L367 0 L367 270 Q367 309 347.5 332 Q328 355 293 355 Q269 355 251 346.5 Q233 338 221 324 Q209 310 203 291.5 Q197 273 197 252 L197 0 L54 0 L54 469 Z M78 620 Q98 642 130.5 661 Q163 680 202 680 Q221 680 237.5 673.5 Q254 667 269 659 Q284 651 300 644.5 Q316 638 335 638 Q365 638 386.5 650 Q408 662 425 675 L476 596 Q456 574 423.5 554.5 Q391 535 352 535 Q332 535 316 541.5 Q300 548 285 556 Q270 564 254 570.5 Q238 577 219 577 Q189 577 167.5 565.5 Q146 554 129 541 L78 620 Z " />
<glyph glyph-name="ograve" unicode="&#xf2;" horiz-adv-x="568" d="M284 109 Q311 109 332 119.5 Q353 130 367.5 148 Q382 166 389 188.5 Q396 211 396 235 Q396 259 389 281.5 Q382 304 367.5 321.5 Q353 339 332 349.5 Q311 360 284 360 Q257 360 235.5 349.5 Q214 339 200 321.5 Q186 304 178.5 281.5 Q171 259 171 235 Q171 211 178.5 188.5 Q186 166 200 148 Q214 130 235.5 119.5 Q257 109 284 109 Z M32 235 Q32 287 50.5 332.5 Q69 378 102 412 Q135 446 181.5 465.5 Q228 485 284 485 Q340 485 386 465.5 Q432 446 465 412 Q498 378 516.5 332.5 Q535 287 535 235 Q535 183 516.5 137.5 Q498 92 465 58 Q432 24 386 4 Q340 -16 284 -16 Q228 -16 181.5 4 Q135 24 102 58 Q69 92 50.5 137.5 Q32 183 32 235 Z M158 682 L301 682 L349 540 L243 540 L158 682 Z " />
<glyph glyph-name="oacute" unicode="&#xf3;" horiz-adv-x="568" d="M284 109 Q311 109 332 119.5 Q353 130 367.5 148 Q382 166 389 188.5 Q396 211 396 235 Q396 259 389 281.5 Q382 304 367.5 321.5 Q353 339 332 349.5 Q311 360 284 360 Q257 360 235.5 349.5 Q214 339 200 321.5 Q186 304 178.5 281.5 Q171 259 171 235 Q171 211 178.5 188.5 Q186 166 200 148 Q214 130 235.5 119.5 Q257 109 284 109 Z M32 235 Q32 287 50.5 332.5 Q69 378 102 412 Q135 446 181.5 465.5 Q228 485 284 485 Q340 485 386 465.5 Q432 446 465 412 Q498 378 516.5 332.5 Q535 287 535 235 Q535 183 516.5 137.5 Q498 92 465 58 Q432 24 386 4 Q340 -16 284 -16 Q228 -16 181.5 4 Q135 24 102 58 Q69 92 50.5 137.5 Q32 183 32 235 Z M268 682 L410 682 L326 540 L220 540 L268 682 Z " />
<glyph glyph-name="ocircumflex" unicode="&#xf4;" horiz-adv-x="568" d="M284 109 Q311 109 332 119.5 Q353 130 367.5 148 Q382 166 389 188.5 Q396 211 396 235 Q396 259 389 281.5 Q382 304 367.5 321.5 Q353 339 332 349.5 Q311 360 284 360 Q257 360 235.5 349.5 Q214 339 200 321.5 Q186 304 178.5 281.5 Q171 259 171 235 Q171 211 178.5 188.5 Q186 166 200 148 Q214 130 235.5 119.5 Q257 109 284 109 Z M32 235 Q32 287 50.5 332.5 Q69 378 102 412 Q135 446 181.5 465.5 Q228 485 284 485 Q340 485 386 465.5 Q432 446 465 412 Q498 378 516.5 332.5 Q535 287 535 235 Q535 183 516.5 137.5 Q498 92 465 58 Q432 24 386 4 Q340 -16 284 -16 Q228 -16 181.5 4 Q135 24 102 58 Q69 92 50.5 137.5 Q32 183 32 235 Z M224 682 L345 682 L451 540 L332 540 L284 606 L237 540 L118 540 L224 682 Z " />
<glyph glyph-name="otilde" unicode="&#xf5;" horiz-adv-x="568" d="M284 109 Q311 109 332 119.5 Q353 130 367.5 148 Q382 166 389 188.5 Q396 211 396 235 Q396 259 389 281.5 Q382 304 367.5 321.5 Q353 339 332 349.5 Q311 360 284 360 Q257 360 235.5 349.5 Q214 339 200 321.5 Q186 304 178.5 281.5 Q171 259 171 235 Q171 211 178.5 188.5 Q186 166 200 148 Q214 130 235.5 119.5 Q257 109 284 109 Z M32 235 Q32 287 50.5 332.5 Q69 378 102 412 Q135 446 181.5 465.5 Q228 485 284 485 Q340 485 386 465.5 Q432 446 465 412 Q498 378 516.5 332.5 Q535 287 535 235 Q535 183 516.5 137.5 Q498 92 465 58 Q432 24 386 4 Q340 -16 284 -16 Q228 -16 181.5 4 Q135 24 102 58 Q69 92 50.5 137.5 Q32 183 32 235 Z M86 620 Q106 642 138.5 661 Q171 680 210 680 Q229 680 245.5 673.5 Q262 667 277 659 Q292 651 308 644.5 Q324 638 343 638 Q373 638 394.5 650 Q416 662 433 675 L484 596 Q464 574 431.5 554.5 Q399 535 360 535 Q340 535 324 541.5 Q308 548 293 556 Q278 564 262 570.5 Q246 577 227 577 Q197 577 175.5 565.5 Q154 554 137 541 L86 620 Z " />
<glyph glyph-name="odieresis" unicode="&#xf6;" horiz-adv-x="568" d="M284 109 Q311 109 332 119.5 Q353 130 367.5 148 Q382 166 389 188.5 Q396 211 396 235 Q396 259 389 281.5 Q382 304 367.5 321.5 Q353 339 332 349.5 Q311 360 284 360 Q257 360 235.5 349.5 Q214 339 200 321.5 Q186 304 178.5 281.5 Q171 259 171 235 Q171 211 178.5 188.5 Q186 166 200 148 Q214 130 235.5 119.5 Q257 109 284 109 Z M32 235 Q32 287 50.5 332.5 Q69 378 102 412 Q135 446 181.5 465.5 Q228 485 284 485 Q340 485 386 465.5 Q432 446 465 412 Q498 378 516.5 332.5 Q535 287 535 235 Q535 183 516.5 137.5 Q498 92 465 58 Q432 24 386 4 Q340 -16 284 -16 Q228 -16 181.5 4 Q135 24 102 58 Q69 92 50.5 137.5 Q32 183 32 235 Z M319 668 L442 668 L442 554 L319 554 L319 668 Z M126 668 L249 668 L249 554 L126 554 L126 668 Z " />
<glyph glyph-name="divide" unicode="&#xf7;" horiz-adv-x="545" d="M209 207 L336 207 L336 89 L209 89 L209 207 Z M209 549 L336 549 L336 431 L209 431 L209 549 Z M73 376 L472 376 L472 261 L73 261 L73 376 Z " />
<glyph glyph-name="oslash" unicode="&#xf8;" horiz-adv-x="568" d="M107 52 Q72 87 52 134 Q32 181 32 235 Q32 287 50.5 332.5 Q69 378 102 412 Q135 446 181.5 465.5 Q228 485 284 485 Q343 485 392 462 L436 525 L504 480 L460 416 Q495 381 515 335 Q535 289 535 235 Q535 183 516.5 137.5 Q498 92 465 58 Q432 24 386 4 Q340 -16 284 -16 Q225 -16 175 6 L132 -56 L64 -11 L107 52 Z M248 111 Q266 106 284 106 Q312 106 333.5 117 Q355 128 369.5 146 Q384 164 391.5 187.5 Q399 211 399 235 Q399 272 382 303 L248 111 Z M319 357 Q302 363 284 363 Q256 363 234.5 352 Q213 341 198.5 323 Q184 305 176.5 282 Q169 259 169 235 Q169 216 173 198 Q177 180 186 165 L319 357 Z " />
<glyph glyph-name="ugrave" unicode="&#xf9;" horiz-adv-x="561" d="M51 469 L195 469 L195 199 Q195 159 214.5 136 Q234 113 272 113 Q294 113 311 121.5 Q328 130 340 144 Q352 158 358 177 Q364 196 364 216 L364 469 L507 469 L507 0 L369 0 L365 50 Q342 23 304.5 5.5 Q267 -12 226 -12 Q145 -12 98 36 Q51 84 51 178 L51 469 Z M158 682 L301 682 L349 540 L243 540 L158 682 Z " />
<glyph glyph-name="uacute" unicode="&#xfa;" horiz-adv-x="561" d="M51 469 L195 469 L195 199 Q195 159 214.5 136 Q234 113 272 113 Q294 113 311 121.5 Q328 130 340 144 Q352 158 358 177 Q364 196 364 216 L364 469 L507 469 L507 0 L369 0 L365 50 Q342 23 304.5 5.5 Q267 -12 226 -12 Q145 -12 98 36 Q51 84 51 178 L51 469 Z M267 682 L409 682 L325 540 L219 540 L267 682 Z " />
<glyph glyph-name="ucircumflex" unicode="&#xfb;" horiz-adv-x="561" d="M51 469 L195 469 L195 199 Q195 159 214.5 136 Q234 113 272 113 Q294 113 311 121.5 Q328 130 340 144 Q352 158 358 177 Q364 196 364 216 L364 469 L507 469 L507 0 L369 0 L365 50 Q342 23 304.5 5.5 Q267 -12 226 -12 Q145 -12 98 36 Q51 84 51 178 L51 469 Z M220 682 L341 682 L447 540 L328 540 L280 606 L233 540 L114 540 L220 682 Z " />
<glyph glyph-name="udieresis" unicode="&#xfc;" horiz-adv-x="561" d="M51 469 L195 469 L195 199 Q195 159 214.5 136 Q234 113 272 113 Q294 113 311 121.5 Q328 130 340 144 Q352 158 358 177 Q364 196 364 216 L364 469 L507 469 L507 0 L369 0 L365 50 Q342 23 304.5 5.5 Q267 -12 226 -12 Q145 -12 98 36 Q51 84 51 178 L51 469 Z M317 668 L440 668 L440 554 L317 554 L317 668 Z M124 668 L247 668 L247 554 L124 554 L124 668 Z " />
<glyph glyph-name="yacute" unicode="&#xfd;" horiz-adv-x="550" d="M79 -74 Q91 -83 105.5 -90 Q120 -97 137 -97 Q160 -97 175.5 -82.5 Q191 -68 205 -33 L219 5 L5 469 L169 469 L286 173 L392 469 L545 469 L353 3 Q337 -36 321.5 -74.5 Q306 -113 283.5 -143.5 Q261 -174 228.5 -193 Q196 -212 147 -212 Q109 -212 78 -202 Q47 -192 21 -173 L79 -74 Z M273 682 L415 682 L331 540 L225 540 L273 682 Z " />
<glyph glyph-name="thorn" unicode="&#xfe;" horiz-adv-x="570" d="M53 667 L196 667 L196 421 Q219 450 256 464 Q293 478 330 478 Q381 478 420 458 Q459 438 485 405 Q511 372 524 329 Q537 286 537 240 Q537 174 515.5 126 Q494 78 459 46.5 Q424 15 380 0 Q336 -15 292 -15 Q258 -15 236 -9 Q214 -3 196 3 L196 -201 L53 -201 L53 667 Z M196 124 Q224 105 279 105 Q332 105 362.5 140.5 Q393 176 393 237 Q393 260 387.5 281.5 Q382 303 370.5 319.5 Q359 336 340.5 345.5 Q322 355 295 355 Q271 355 252.5 346 Q234 337 221.5 322 Q209 307 202.5 288 Q196 269 196 249 L196 124 Z " />
<glyph glyph-name="ydieresis" unicode="&#xff;" horiz-adv-x="550" d="M79 -74 Q91 -83 105.5 -90 Q120 -97 137 -97 Q160 -97 175.5 -82.5 Q191 -68 205 -33 L219 5 L5 469 L169 469 L286 173 L392 469 L545 469 L353 3 Q337 -36 321.5 -74.5 Q306 -113 283.5 -143.5 Q261 -174 228.5 -193 Q196 -212 147 -212 Q109 -212 78 -202 Q47 -192 21 -173 L79 -74 Z M312 668 L435 668 L435 554 L312 554 L312 668 Z M119 668 L242 668 L242 554 L119 554 L119 668 Z " />
<glyph glyph-name="Amacron" unicode="&#x100;" horiz-adv-x="675" d="M256 667 L423 667 L667 0 L502 0 L451 153 L216 153 L165 0 L7 0 L256 667 Z M415 270 L334 522 L251 270 L415 270 Z M178 848 L495 848 L495 742 L178 742 L178 848 Z " />
<glyph glyph-name="amacron" unicode="&#x101;" horiz-adv-x="515" d="M325 44 Q301 16 264.5 1 Q228 -14 183 -14 Q158 -14 130.5 -7 Q103 0 79.5 16.5 Q56 33 40.5 61 Q25 89 25 131 Q25 172 41.5 204 Q58 236 87 257.5 Q116 279 155.5 290 Q195 301 241 301 Q266 301 291.5 300 Q317 299 325 297 L325 307 Q325 325 317.5 337.5 Q310 350 297.5 358.5 Q285 367 269 370.5 Q253 374 235 374 Q187 374 155.5 362 Q124 350 102 335 L43 423 Q58 434 77 445 Q96 456 122 465 Q148 474 180.5 479.5 Q213 485 255 485 Q362 485 413 427.5 Q464 370 464 273 L464 0 L329 0 L325 44 Z M325 207 Q320 208 306 209.5 Q292 211 274 211 Q214 211 189 194 Q164 177 164 146 Q164 88 234 88 Q251 88 267.5 93.5 Q284 99 296.5 109 Q309 119 317 134 Q325 149 325 169 L325 207 Z M123 654 L396 654 L396 552 L123 552 L123 654 Z " />
<glyph glyph-name="Abreve" unicode="&#x102;" horiz-adv-x="675" d="M256 667 L423 667 L667 0 L502 0 L451 153 L216 153 L165 0 L7 0 L256 667 Z M415 270 L334 522 L251 270 L415 270 Z M279 863 Q280 840 294.5 823 Q309 806 336 806 Q363 806 377.5 823 Q392 840 392 863 L498 863 Q498 798 454.5 756 Q411 714 336 714 Q261 714 217.5 756 Q174 798 174 863 L279 863 Z " />
<glyph glyph-name="abreve" unicode="&#x103;" horiz-adv-x="515" d="M325 44 Q301 16 264.5 1 Q228 -14 183 -14 Q158 -14 130.5 -7 Q103 0 79.5 16.5 Q56 33 40.5 61 Q25 89 25 131 Q25 172 41.5 204 Q58 236 87 257.5 Q116 279 155.5 290 Q195 301 241 301 Q266 301 291.5 300 Q317 299 325 297 L325 307 Q325 325 317.5 337.5 Q310 350 297.5 358.5 Q285 367 269 370.5 Q253 374 235 374 Q187 374 155.5 362 Q124 350 102 335 L43 423 Q58 434 77 445 Q96 456 122 465 Q148 474 180.5 479.5 Q213 485 255 485 Q362 485 413 427.5 Q464 370 464 273 L464 0 L329 0 L325 44 Z M325 207 Q320 208 306 209.5 Q292 211 274 211 Q214 211 189 194 Q164 177 164 146 Q164 88 234 88 Q251 88 267.5 93.5 Q284 99 296.5 109 Q309 119 317 134 Q325 149 325 169 L325 207 Z M199 682 Q200 660 211.5 643 Q223 626 251 626 Q280 626 291.5 643 Q303 660 303 682 L407 682 Q407 651 396 625 Q385 599 364.5 580 Q344 561 315 550.5 Q286 540 251 540 Q216 540 187 550.5 Q158 561 138 580 Q118 599 106.5 625 Q95 651 95 682 L199 682 Z " />
<glyph glyph-name="Aogonek" unicode="&#x104;" horiz-adv-x="675" d="M256 667 L423 667 L667 0 Q660 -8 651.5 -18 Q643 -28 636 -39 Q629 -50 624.5 -60.5 Q620 -71 620 -80 Q620 -102 645 -102 Q659 -102 671.5 -97.5 Q684 -93 695 -85 L726 -165 Q700 -182 670 -191.5 Q640 -201 611 -201 Q564 -201 536.5 -180.5 Q509 -160 509 -118 Q509 -86 528 -56 Q547 -26 572 0 L502 0 L451 153 L216 153 L165 0 L7 0 L256 667 Z M415 270 L334 522 L251 270 L415 270 Z " />
<glyph glyph-name="aogonek" unicode="&#x105;" horiz-adv-x="515" d="M325 44 Q301 16 264.5 1 Q228 -14 183 -14 Q158 -14 130.5 -7 Q103 0 79.5 16.5 Q56 33 40.5 61 Q25 89 25 131 Q25 172 41.5 204 Q58 236 87 257.5 Q116 279 155.5 290 Q195 301 241 301 Q266 301 291.5 300 Q317 299 325 297 L325 307 Q325 325 317.5 337.5 Q310 350 297.5 358.5 Q285 367 269 370.5 Q253 374 235 374 Q187 374 155.5 362 Q124 350 102 335 L43 423 Q58 434 77 445 Q96 456 122 465 Q148 474 180.5 479.5 Q213 485 255 485 Q362 485 413 427.5 Q464 370 464 273 L464 0 Q455 -8 445.5 -18 Q436 -28 428 -38.5 Q420 -49 415 -59.5 Q410 -70 410 -78 Q410 -99 435 -99 Q449 -99 462 -94.5 Q475 -90 487 -82 L517 -160 Q492 -177 462 -186 Q432 -195 404 -195 Q359 -195 332 -175 Q305 -155 305 -115 Q305 -83 324 -54 Q343 -25 366 0 L329 0 L325 44 Z M325 207 Q320 208 306 209.5 Q292 211 274 211 Q214 211 189 194 Q164 177 164 146 Q164 88 234 88 Q251 88 267.5 93.5 Q284 99 296.5 109 Q309 119 317 134 Q325 149 325 169 L325 207 Z " />
<glyph glyph-name="Cacute" unicode="&#x106;" horiz-adv-x="681" d="M667 123 Q646 94 616 68.5 Q586 43 549.5 24 Q513 5 470.5 -6 Q428 -17 382 -17 Q306 -17 243 9 Q180 35 134.5 81.5 Q89 128 64 191.5 Q39 255 39 331 Q39 405 64 469.5 Q89 534 134.5 581.5 Q180 629 243.5 656.5 Q307 684 384 684 Q477 684 546.5 650 Q616 616 662 552 L559 453 Q529 495 488 520.5 Q447 546 390 546 Q345 546 309 529.5 Q273 513 248 484 Q223 455 209.5 416.5 Q196 378 196 335 Q196 291 209.5 253 Q223 215 248 187 Q273 159 308 143 Q343 127 387 127 Q423 127 449.5 134.5 Q476 142 496.5 154.5 Q517 167 533 183.5 Q549 200 564 217 L667 123 Z M381 873 L544 873 L425 717 L308 717 L381 873 Z " />
<glyph glyph-name="cacute" unicode="&#x107;" horiz-adv-x="487" d="M474 62 Q445 30 397.5 7 Q350 -16 285 -16 Q228 -16 181.5 2.5 Q135 21 102 54.5 Q69 88 50.5 134 Q32 180 32 235 Q32 287 51 332.5 Q70 378 103.5 412 Q137 446 183.5 465.5 Q230 485 285 485 Q349 485 396 464 Q443 443 475 408 L388 314 Q372 332 349 346 Q326 360 288 360 Q262 360 241.5 349.5 Q221 339 206.5 322 Q192 305 184.5 282.5 Q177 260 177 235 Q177 212 184.5 189.5 Q192 167 206.5 149.5 Q221 132 241.5 121 Q262 110 288 110 Q325 110 350 124.5 Q375 139 390 156 L474 62 Z M267 682 L409 682 L325 540 L219 540 L267 682 Z " />
<glyph glyph-name="Ccircumflex" unicode="&#x108;" horiz-adv-x="681" d="M667 123 Q646 94 616 68.5 Q586 43 549.5 24 Q513 5 470.5 -6 Q428 -17 382 -17 Q306 -17 243 9 Q180 35 134.5 81.5 Q89 128 64 191.5 Q39 255 39 331 Q39 405 64 469.5 Q89 534 134.5 581.5 Q180 629 243.5 656.5 Q307 684 384 684 Q477 684 546.5 650 Q616 616 662 552 L559 453 Q529 495 488 520.5 Q447 546 390 546 Q345 546 309 529.5 Q273 513 248 484 Q223 455 209.5 416.5 Q196 378 196 335 Q196 291 209.5 253 Q223 215 248 187 Q273 159 308 143 Q343 127 387 127 Q423 127 449.5 134.5 Q476 142 496.5 154.5 Q517 167 533 183.5 Q549 200 564 217 L667 123 Z M318 873 L438 873 L551 717 L431 717 L378 792 L324 717 L205 717 L318 873 Z " />
<glyph glyph-name="ccircumflex" unicode="&#x109;" horiz-adv-x="487" d="M474 62 Q445 30 397.5 7 Q350 -16 285 -16 Q228 -16 181.5 2.5 Q135 21 102 54.5 Q69 88 50.5 134 Q32 180 32 235 Q32 287 51 332.5 Q70 378 103.5 412 Q137 446 183.5 465.5 Q230 485 285 485 Q349 485 396 464 Q443 443 475 408 L388 314 Q372 332 349 346 Q326 360 288 360 Q262 360 241.5 349.5 Q221 339 206.5 322 Q192 305 184.5 282.5 Q177 260 177 235 Q177 212 184.5 189.5 Q192 167 206.5 149.5 Q221 132 241.5 121 Q262 110 288 110 Q325 110 350 124.5 Q375 139 390 156 L474 62 Z M220 682 L341 682 L447 540 L328 540 L280 606 L233 540 L114 540 L220 682 Z " />
<glyph glyph-name="Cdotaccent" unicode="&#x10a;" horiz-adv-x="681" d="M667 123 Q646 94 616 68.5 Q586 43 549.5 24 Q513 5 470.5 -6 Q428 -17 382 -17 Q306 -17 243 9 Q180 35 134.5 81.5 Q89 128 64 191.5 Q39 255 39 331 Q39 405 64 469.5 Q89 534 134.5 581.5 Q180 629 243.5 656.5 Q307 684 384 684 Q477 684 546.5 650 Q616 616 662 552 L559 453 Q529 495 488 520.5 Q447 546 390 546 Q345 546 309 529.5 Q273 513 248 484 Q223 455 209.5 416.5 Q196 378 196 335 Q196 291 209.5 253 Q223 215 248 187 Q273 159 308 143 Q343 127 387 127 Q423 127 449.5 134.5 Q476 142 496.5 154.5 Q517 167 533 183.5 Q549 200 564 217 L667 123 Z M311 860 L450 860 L450 730 L311 730 L311 860 Z " />
<glyph glyph-name="cdotaccent" unicode="&#x10b;" horiz-adv-x="487" d="M474 62 Q445 30 397.5 7 Q350 -16 285 -16 Q228 -16 181.5 2.5 Q135 21 102 54.5 Q69 88 50.5 134 Q32 180 32 235 Q32 287 51 332.5 Q70 378 103.5 412 Q137 446 183.5 465.5 Q230 485 285 485 Q349 485 396 464 Q443 443 475 408 L388 314 Q372 332 349 346 Q326 360 288 360 Q262 360 241.5 349.5 Q221 339 206.5 322 Q192 305 184.5 282.5 Q177 260 177 235 Q177 212 184.5 189.5 Q192 167 206.5 149.5 Q221 132 241.5 121 Q262 110 288 110 Q325 110 350 124.5 Q375 139 390 156 L474 62 Z M216 672 L347 672 L347 550 L216 550 L216 672 Z " />
<glyph glyph-name="Ccaron" unicode="&#x10c;" horiz-adv-x="681" d="M667 123 Q646 94 616 68.5 Q586 43 549.5 24 Q513 5 470.5 -6 Q428 -17 382 -17 Q306 -17 243 9 Q180 35 134.5 81.5 Q89 128 64 191.5 Q39 255 39 331 Q39 405 64 469.5 Q89 534 134.5 581.5 Q180 629 243.5 656.5 Q307 684 384 684 Q477 684 546.5 650 Q616 616 662 552 L559 453 Q529 495 488 520.5 Q447 546 390 546 Q345 546 309 529.5 Q273 513 248 484 Q223 455 209.5 416.5 Q196 378 196 335 Q196 291 209.5 253 Q223 215 248 187 Q273 159 308 143 Q343 127 387 127 Q423 127 449.5 134.5 Q476 142 496.5 154.5 Q517 167 533 183.5 Q549 200 564 217 L667 123 Z M215 873 L335 873 L388 798 L442 873 L561 873 L448 717 L328 717 L215 873 Z " />
<glyph glyph-name="ccaron" unicode="&#x10d;" horiz-adv-x="487" d="M474 62 Q445 30 397.5 7 Q350 -16 285 -16 Q228 -16 181.5 2.5 Q135 21 102 54.5 Q69 88 50.5 134 Q32 180 32 235 Q32 287 51 332.5 Q70 378 103.5 412 Q137 446 183.5 465.5 Q230 485 285 485 Q349 485 396 464 Q443 443 475 408 L388 314 Q372 332 349 346 Q326 360 288 360 Q262 360 241.5 349.5 Q221 339 206.5 322 Q192 305 184.5 282.5 Q177 260 177 235 Q177 212 184.5 189.5 Q192 167 206.5 149.5 Q221 132 241.5 121 Q262 110 288 110 Q325 110 350 124.5 Q375 139 390 156 L474 62 Z M110 682 L228 682 L277 615 L324 682 L443 682 L337 540 L215 540 L110 682 Z " />
<glyph glyph-name="Dcaron" unicode="&#x10e;" horiz-adv-x="717" d="M65 667 L317 667 Q394 667 459.5 647 Q525 627 572.5 586 Q620 545 646.5 481 Q673 417 673 330 Q673 247 646 185.5 Q619 124 571.5 82.5 Q524 41 458.5 20.5 Q393 0 316 0 L65 0 L65 667 Z M308 134 Q408 134 462 186.5 Q516 239 516 331 Q516 377 503.5 414.5 Q491 452 465.5 478.5 Q440 505 401 519.5 Q362 534 308 534 L216 534 L216 134 L308 134 Z M143 873 L263 873 L316 798 L370 873 L489 873 L376 717 L256 717 L143 873 Z " />
<glyph glyph-name="dcaron" unicode="&#x10f;" horiz-adv-x="631" d="M372 47 Q350 21 315.5 3.5 Q281 -14 237 -14 Q194 -14 156.5 3 Q119 20 91.5 51.5 Q64 83 48 127.5 Q32 172 32 228 Q32 291 54.5 338.5 Q77 386 112.5 417 Q148 448 191.5 463.5 Q235 479 277 479 Q311 479 330 474.5 Q349 470 369 463 L369 667 L512 667 L512 0 L378 0 L372 47 Z M369 340 Q354 349 336.5 353 Q319 357 293 357 Q238 357 207.5 320 Q177 283 177 225 Q177 174 202 141.5 Q227 109 277 109 Q301 109 318.5 117.5 Q336 126 347.5 140 Q359 154 364 173 Q369 192 369 212 L369 340 Z M569 667 L692 667 L655 498 L569 498 L569 667 Z " />
<glyph glyph-name="Dcroat" unicode="&#x110;" horiz-adv-x="717" d="M65 288 L1 288 L1 384 L65 384 L65 667 L317 667 Q394 667 459.5 647 Q525 627 572.5 586 Q620 545 646.5 481 Q673 417 673 330 Q673 247 646 185.5 Q619 124 571.5 82.5 Q524 41 458.5 20.5 Q393 0 316 0 L65 0 L65 288 Z M309 134 Q409 134 463 186.5 Q517 239 517 331 Q517 377 505 414.5 Q493 452 467.5 478.5 Q442 505 402.5 519.5 Q363 534 309 534 L216 534 L216 384 L348 384 L348 288 L216 288 L216 134 L309 134 Z " />
<glyph glyph-name="dcroat" unicode="&#x111;" horiz-adv-x="563" d="M372 47 Q350 21 315.5 3.5 Q281 -14 237 -14 Q194 -14 156.5 2 Q119 18 91.5 48.5 Q64 79 48 122.5 Q32 166 32 222 Q32 284 54.5 329.5 Q77 375 112 404.5 Q147 434 191 448.5 Q235 463 277 463 Q311 463 330 458.5 Q349 454 369 447 L369 520 L208 520 L208 603 L369 603 L369 667 L512 667 L512 603 L568 603 L568 520 L512 520 L512 0 L376 0 L372 47 Z M369 324 Q354 332 335.5 336.5 Q317 341 293 341 Q237 341 207 307.5 Q177 274 177 219 Q177 168 202 138.5 Q227 109 277 109 Q301 109 318.5 117.5 Q336 126 347.5 140 Q359 154 364 173 Q369 192 369 212 L369 324 Z " />
<glyph glyph-name="Emacron" unicode="&#x112;" horiz-adv-x="580" d="M65 667 L521 667 L521 535 L216 535 L216 405 L453 405 L453 277 L216 277 L216 133 L543 133 L543 0 L65 0 L65 667 Z M143 848 L460 848 L460 742 L143 742 L143 848 Z " />
<glyph glyph-name="emacron" unicode="&#x113;" horiz-adv-x="535" d="M496 51 Q488 46 472 34.5 Q456 23 430.5 12 Q405 1 370 -7.5 Q335 -16 290 -16 Q230 -16 182 2.5 Q134 21 100.5 54 Q67 87 49.5 133.5 Q32 180 32 236 Q32 285 48.5 330.5 Q65 376 96 410 Q127 444 172 464.5 Q217 485 274 485 Q331 485 374 465 Q417 445 446.5 409.5 Q476 374 491 324.5 Q506 275 506 216 L506 192 L172 192 Q173 154 205.5 125.5 Q238 97 295 97 Q351 97 386 113.5 Q421 130 437 142 L496 51 Z M370 284 Q370 299 364 314.5 Q358 330 346 343 Q334 356 316 364.5 Q298 373 273 373 Q248 373 229 364.5 Q210 356 197.5 343 Q185 330 178.5 314.5 Q172 299 172 284 L370 284 Z M143 654 L416 654 L416 552 L143 552 L143 654 Z " />
<glyph glyph-name="Ebreve" unicode="&#x114;" horiz-adv-x="580" d="M65 667 L521 667 L521 535 L216 535 L216 405 L453 405 L453 277 L216 277 L216 133 L543 133 L543 0 L65 0 L65 667 Z M242 863 Q243 840 257.5 823 Q272 806 299 806 Q326 806 340.5 823 Q355 840 355 863 L461 863 Q461 798 417.5 756 Q374 714 299 714 Q224 714 180.5 756 Q137 798 137 863 L242 863 Z " />
<glyph glyph-name="ebreve" unicode="&#x115;" horiz-adv-x="535" d="M496 51 Q488 46 472 34.5 Q456 23 430.5 12 Q405 1 370 -7.5 Q335 -16 290 -16 Q230 -16 182 2.5 Q134 21 100.5 54 Q67 87 49.5 133.5 Q32 180 32 236 Q32 285 48.5 330.5 Q65 376 96 410 Q127 444 172 464.5 Q217 485 274 485 Q331 485 374 465 Q417 445 446.5 409.5 Q476 374 491 324.5 Q506 275 506 216 L506 192 L172 192 Q173 154 205.5 125.5 Q238 97 295 97 Q351 97 386 113.5 Q421 130 437 142 L496 51 Z M370 284 Q370 299 364 314.5 Q358 330 346 343 Q334 356 316 364.5 Q298 373 273 373 Q248 373 229 364.5 Q210 356 197.5 343 Q185 330 178.5 314.5 Q172 299 172 284 L370 284 Z M222 682 Q223 660 234.5 643 Q246 626 274 626 Q303 626 314.5 643 Q326 660 326 682 L430 682 Q430 651 419 625 Q408 599 387.5 580 Q367 561 338 550.5 Q309 540 274 540 Q239 540 210 550.5 Q181 561 161 580 Q141 599 129.5 625 Q118 651 118 682 L222 682 Z " />
<glyph glyph-name="Edotaccent" unicode="&#x116;" horiz-adv-x="580" d="M65 667 L521 667 L521 535 L216 535 L216 405 L453 405 L453 277 L216 277 L216 133 L543 133 L543 0 L65 0 L65 667 Z M229 860 L368 860 L368 730 L229 730 L229 860 Z " />
<glyph glyph-name="edotaccent" unicode="&#x117;" horiz-adv-x="535" d="M496 51 Q488 46 472 34.5 Q456 23 430.5 12 Q405 1 370 -7.5 Q335 -16 290 -16 Q230 -16 182 2.5 Q134 21 100.5 54 Q67 87 49.5 133.5 Q32 180 32 236 Q32 285 48.5 330.5 Q65 376 96 410 Q127 444 172 464.5 Q217 485 274 485 Q331 485 374 465 Q417 445 446.5 409.5 Q476 374 491 324.5 Q506 275 506 216 L506 192 L172 192 Q173 154 205.5 125.5 Q238 97 295 97 Q351 97 386 113.5 Q421 130 437 142 L496 51 Z M370 284 Q370 299 364 314.5 Q358 330 346 343 Q334 356 316 364.5 Q298 373 273 373 Q248 373 229 364.5 Q210 356 197.5 343 Q185 330 178.5 314.5 Q172 299 172 284 L370 284 Z M210 672 L341 672 L341 550 L210 550 L210 672 Z " />
<glyph glyph-name="Eogonek" unicode="&#x118;" horiz-adv-x="580" d="M65 667 L521 667 L521 535 L216 535 L216 405 L453 405 L453 277 L216 277 L216 133 L543 133 L543 0 L492 0 Q484 -8 475.5 -18 Q467 -28 459.5 -39 Q452 -50 447.5 -60.5 Q443 -71 443 -80 Q443 -102 468 -102 Q482 -102 494.5 -97.5 Q507 -93 518 -85 L549 -165 Q523 -182 493 -191.5 Q463 -201 434 -201 Q387 -201 359.5 -180.5 Q332 -160 332 -118 Q332 -86 351 -56 Q370 -26 395 0 L65 0 L65 667 Z " />
<glyph glyph-name="eogonek" unicode="&#x119;" horiz-adv-x="535" d="M482 -160 Q457 -177 427 -186 Q397 -195 369 -195 Q324 -195 297 -175 Q270 -155 270 -114 Q270 -88 283.5 -62.5 Q297 -37 317 -15 Q309 -16 303 -16 L290 -16 Q230 -16 182 2.5 Q134 21 100.5 54 Q67 87 49.5 133.5 Q32 180 32 236 Q32 285 48.5 330.5 Q65 376 96 410 Q127 444 172 464.5 Q217 485 274 485 Q331 485 374 465 Q417 445 446.5 409.5 Q476 374 491 324.5 Q506 275 506 216 L506 192 L172 192 Q173 154 205.5 125.5 Q238 97 295 97 Q351 97 386 113.5 Q421 130 437 142 L496 51 Q440 18 407.5 -14.5 Q375 -47 375 -74 Q375 -99 400 -99 Q414 -99 427 -94 Q440 -89 452 -81 L482 -160 Z M370 284 Q370 299 364 314.5 Q358 330 346 343 Q334 356 316 364.5 Q298 373 273 373 Q248 373 229 364.5 Q210 356 197.5 343 Q185 330 178.5 314.5 Q172 299 172 284 L370 284 Z " />
<glyph glyph-name="Ecaron" unicode="&#x11a;" horiz-adv-x="580" d="M65 667 L521 667 L521 535 L216 535 L216 405 L453 405 L453 277 L216 277 L216 133 L543 133 L543 0 L65 0 L65 667 Z M130 873 L250 873 L303 798 L357 873 L476 873 L363 717 L243 717 L130 873 Z " />
<glyph glyph-name="ecaron" unicode="&#x11b;" horiz-adv-x="535" d="M496 51 Q488 46 472 34.5 Q456 23 430.5 12 Q405 1 370 -7.5 Q335 -16 290 -16 Q230 -16 182 2.5 Q134 21 100.5 54 Q67 87 49.5 133.5 Q32 180 32 236 Q32 285 48.5 330.5 Q65 376 96 410 Q127 444 172 464.5 Q217 485 274 485 Q331 485 374 465 Q417 445 446.5 409.5 Q476 374 491 324.5 Q506 275 506 216 L506 192 L172 192 Q173 154 205.5 125.5 Q238 97 295 97 Q351 97 386 113.5 Q421 130 437 142 L496 51 Z M370 284 Q370 299 364 314.5 Q358 330 346 343 Q334 356 316 364.5 Q298 373 273 373 Q248 373 229 364.5 Q210 356 197.5 343 Q185 330 178.5 314.5 Q172 299 172 284 L370 284 Z M108 682 L226 682 L275 615 L322 682 L441 682 L335 540 L213 540 L108 682 Z " />
<glyph glyph-name="Gcircumflex" unicode="&#x11c;" horiz-adv-x="723" d="M410 367 L667 367 L667 78 Q615 33 545.5 8.5 Q476 -16 387 -16 Q305 -16 240.5 9.5 Q176 35 131 81 Q86 127 62.5 191 Q39 255 39 332 Q39 407 64 471 Q89 535 135 582.5 Q181 630 244 657 Q307 684 384 684 Q475 684 543.5 650.5 Q612 617 657 557 L555 460 Q523 498 484.5 522 Q446 546 390 546 Q344 546 308 529 Q272 512 247 483 Q222 454 209 415 Q196 376 196 332 Q196 284 211 245 Q226 206 253 178.5 Q280 151 316.5 136 Q353 121 396 121 Q436 121 469 130.5 Q502 140 528 161 L528 245 L410 245 L410 367 Z M314 873 L434 873 L547 717 L427 717 L374 792 L320 717 L201 717 L314 873 Z " />
<glyph glyph-name="gcircumflex" unicode="&#x11d;" horiz-adv-x="560" d="M130 -60 Q158 -77 189.5 -86.5 Q221 -96 259 -96 Q308 -96 336 -70 Q364 -44 364 8 L364 41 Q319 2 244 2 Q194 2 154.5 18.5 Q115 35 88 65 Q61 95 46.5 136 Q32 177 32 226 Q32 283 51.5 329.5 Q71 376 106.5 409.5 Q142 443 191.5 461 Q241 479 302 479 Q360 479 412.5 469 Q465 459 507 444 L507 15 Q507 -101 443 -156.5 Q379 -212 268 -212 Q205 -212 158 -200 Q111 -188 72 -162 L130 -60 Z M365 350 Q351 355 337 357.5 Q323 360 300 360 Q269 360 246 349.5 Q223 339 207.5 321.5 Q192 304 184.5 280.5 Q177 257 177 231 Q177 180 201.5 150 Q226 120 273 120 Q317 120 341 141.5 Q365 163 365 209 L365 350 Z M234 682 L355 682 L461 540 L342 540 L294 606 L247 540 L128 540 L234 682 Z " />
<glyph glyph-name="Gbreve" unicode="&#x11e;" horiz-adv-x="723" d="M410 367 L667 367 L667 78 Q615 33 545.5 8.5 Q476 -16 387 -16 Q305 -16 240.5 9.5 Q176 35 131 81 Q86 127 62.5 191 Q39 255 39 332 Q39 407 64 471 Q89 535 135 582.5 Q181 630 244 657 Q307 684 384 684 Q475 684 543.5 650.5 Q612 617 657 557 L555 460 Q523 498 484.5 522 Q446 546 390 546 Q344 546 308 529 Q272 512 247 483 Q222 454 209 415 Q196 376 196 332 Q196 284 211 245 Q226 206 253 178.5 Q280 151 316.5 136 Q353 121 396 121 Q436 121 469 130.5 Q502 140 528 161 L528 245 L410 245 L410 367 Z M319 863 Q320 840 334.5 823 Q349 806 376 806 Q403 806 417.5 823 Q432 840 432 863 L538 863 Q538 798 494.5 756 Q451 714 376 714 Q301 714 257.5 756 Q214 798 214 863 L319 863 Z " />
<glyph glyph-name="gbreve" unicode="&#x11f;" horiz-adv-x="560" d="M130 -60 Q158 -77 189.5 -86.5 Q221 -96 259 -96 Q308 -96 336 -70 Q364 -44 364 8 L364 41 Q319 2 244 2 Q194 2 154.5 18.5 Q115 35 88 65 Q61 95 46.5 136 Q32 177 32 226 Q32 283 51.5 329.5 Q71 376 106.5 409.5 Q142 443 191.5 461 Q241 479 302 479 Q360 479 412.5 469 Q465 459 507 444 L507 15 Q507 -101 443 -156.5 Q379 -212 268 -212 Q205 -212 158 -200 Q111 -188 72 -162 L130 -60 Z M365 350 Q351 355 337 357.5 Q323 360 300 360 Q269 360 246 349.5 Q223 339 207.5 321.5 Q192 304 184.5 280.5 Q177 257 177 231 Q177 180 201.5 150 Q226 120 273 120 Q317 120 341 141.5 Q365 163 365 209 L365 350 Z M248 682 Q249 660 260.5 643 Q272 626 300 626 Q329 626 340.5 643 Q352 660 352 682 L456 682 Q456 651 445 625 Q434 599 413.5 580 Q393 561 364 550.5 Q335 540 300 540 Q265 540 236 550.5 Q207 561 187 580 Q167 599 155.5 625 Q144 651 144 682 L248 682 Z " />
<glyph glyph-name="Gdotaccent" unicode="&#x120;" horiz-adv-x="723" d="M410 367 L667 367 L667 78 Q615 33 545.5 8.5 Q476 -16 387 -16 Q305 -16 240.5 9.5 Q176 35 131 81 Q86 127 62.5 191 Q39 255 39 332 Q39 407 64 471 Q89 535 135 582.5 Q181 630 244 657 Q307 684 384 684 Q475 684 543.5 650.5 Q612 617 657 557 L555 460 Q523 498 484.5 522 Q446 546 390 546 Q344 546 308 529 Q272 512 247 483 Q222 454 209 415 Q196 376 196 332 Q196 284 211 245 Q226 206 253 178.5 Q280 151 316.5 136 Q353 121 396 121 Q436 121 469 130.5 Q502 140 528 161 L528 245 L410 245 L410 367 Z M310 860 L449 860 L449 730 L310 730 L310 860 Z " />
<glyph glyph-name="gdotaccent" unicode="&#x121;" horiz-adv-x="560" d="M130 -60 Q158 -77 189.5 -86.5 Q221 -96 259 -96 Q308 -96 336 -70 Q364 -44 364 8 L364 41 Q319 2 244 2 Q194 2 154.5 18.5 Q115 35 88 65 Q61 95 46.5 136 Q32 177 32 226 Q32 283 51.5 329.5 Q71 376 106.5 409.5 Q142 443 191.5 461 Q241 479 302 479 Q360 479 412.5 469 Q465 459 507 444 L507 15 Q507 -101 443 -156.5 Q379 -212 268 -212 Q205 -212 158 -200 Q111 -188 72 -162 L130 -60 Z M365 350 Q351 355 337 357.5 Q323 360 300 360 Q269 360 246 349.5 Q223 339 207.5 321.5 Q192 304 184.5 280.5 Q177 257 177 231 Q177 180 201.5 150 Q226 120 273 120 Q317 120 341 141.5 Q365 163 365 209 L365 350 Z M240 672 L371 672 L371 550 L240 550 L240 672 Z " />
<glyph glyph-name="Gcommaaccent" unicode="&#x122;" horiz-adv-x="723" d="M410 367 L667 367 L667 78 Q615 33 545.5 8.5 Q476 -16 387 -16 Q305 -16 240.5 9.5 Q176 35 131 81 Q86 127 62.5 191 Q39 255 39 332 Q39 407 64 471 Q89 535 135 582.5 Q181 630 244 657 Q307 684 384 684 Q475 684 543.5 650.5 Q612 617 657 557 L555 460 Q523 498 484.5 522 Q446 546 390 546 Q344 546 308 529 Q272 512 247 483 Q222 454 209 415 Q196 376 196 332 Q196 284 211 245 Q226 206 253 178.5 Q280 151 316.5 136 Q353 121 396 121 Q436 121 469 130.5 Q502 140 528 161 L528 245 L410 245 L410 367 Z M312 -51 L468 -51 L374 -209 L259 -209 L312 -51 Z " />
<glyph glyph-name="gcommaaccent" unicode="&#x123;" horiz-adv-x="560" d="M130 -60 Q158 -77 189.5 -86.5 Q221 -96 259 -96 Q308 -96 336 -70 Q364 -44 364 8 L364 41 Q319 2 244 2 Q194 2 154.5 18.5 Q115 35 88 65 Q61 95 46.5 136 Q32 177 32 226 Q32 283 51.5 329.5 Q71 376 106.5 409.5 Q142 443 191.5 461 Q241 479 302 479 Q360 479 412.5 469 Q465 459 507 444 L507 15 Q507 -101 443 -156.5 Q379 -212 268 -212 Q205 -212 158 -200 Q111 -188 72 -162 L130 -60 Z M365 350 Q351 355 337 357.5 Q323 360 300 360 Q269 360 246 349.5 Q223 339 207.5 321.5 Q192 304 184.5 280.5 Q177 257 177 231 Q177 180 201.5 150 Q226 120 273 120 Q317 120 341 141.5 Q365 163 365 209 L365 350 Z M307 682 L413 682 L365 540 L222 540 L307 682 Z " />
<glyph glyph-name="Hcircumflex" unicode="&#x124;" horiz-adv-x="721" d="M65 667 L216 667 L216 411 L505 411 L505 667 L656 667 L656 0 L505 0 L505 274 L216 274 L216 0 L65 0 L65 667 Z M299 873 L419 873 L532 717 L412 717 L359 792 L305 717 L186 717 L299 873 Z " />
<glyph glyph-name="hcircumflex" unicode="&#x125;" horiz-adv-x="564" d="M53 667 L196 667 L196 424 Q219 451 257 465.5 Q295 480 334 480 Q415 480 463.5 432 Q512 384 512 290 L512 0 L369 0 L369 268 Q369 309 348 332 Q327 355 292 355 Q269 355 251 346.5 Q233 338 221 324 Q209 310 203 291.5 Q197 273 197 252 L197 0 L53 0 L53 667 Z M165 873 L285 873 L398 717 L278 717 L225 792 L171 717 L52 717 L165 873 Z " />
<glyph glyph-name="Hbar" unicode="&#x126;" horiz-adv-x="721" d="M65 486 L1 486 L1 574 L65 574 L65 667 L216 667 L216 574 L505 574 L505 667 L656 667 L656 574 L720 574 L720 486 L656 486 L656 0 L505 0 L505 259 L216 259 L216 0 L65 0 L65 486 Z M505 396 L505 486 L216 486 L216 396 L505 396 Z " />
<glyph glyph-name="hbar" unicode="&#x127;" horiz-adv-x="559" d="M51 521 L-5 521 L-5 603 L51 603 L51 667 L194 667 L194 603 L355 603 L355 521 L194 521 L194 409 Q217 436 255 450.5 Q293 465 332 465 Q413 465 461.5 417 Q510 369 510 275 L510 0 L367 0 L367 253 Q367 294 346 317 Q325 340 290 340 Q267 340 249 331.5 Q231 323 219 309 Q207 295 201 276.5 Q195 258 195 237 L195 0 L51 0 L51 521 Z " />
<glyph glyph-name="Itilde" unicode="&#x128;" horiz-adv-x="281" d="M65 667 L216 667 L216 0 L65 0 L65 667 Z M-63 806 Q-42 829 -8.5 848.5 Q25 868 66 868 Q86 868 102.5 861.5 Q119 855 135 847 Q151 839 167 832.5 Q183 826 203 826 Q234 826 256.5 837.5 Q279 849 296 863 L350 781 Q328 758 295 738 Q262 718 221 718 Q201 718 184.5 724.5 Q168 731 152 739.5 Q136 748 120 754.5 Q104 761 84 761 Q52 761 30 749.5 Q8 738 -9 724 L-63 806 Z " />
<glyph glyph-name="itilde" unicode="&#x129;" horiz-adv-x="258" d="M57 469 L201 469 L201 0 L57 0 L57 469 Z M-68 620 Q-48 642 -15.5 661 Q17 680 56 680 Q75 680 91.5 673.5 Q108 667 123 659 Q138 651 154 644.5 Q170 638 189 638 Q219 638 240.5 650 Q262 662 279 675 L330 596 Q310 574 277.5 554.5 Q245 535 206 535 Q186 535 170 541.5 Q154 548 139 556 Q124 564 108 570.5 Q92 577 73 577 Q43 577 21.5 565.5 Q0 554 -17 541 L-68 620 Z " />
<glyph glyph-name="Imacron" unicode="&#x12a;" horiz-adv-x="281" d="M65 667 L216 667 L216 0 L65 0 L65 667 Z M-17 848 L300 848 L300 742 L-17 742 L-17 848 Z " />
<glyph glyph-name="imacron" unicode="&#x12b;" horiz-adv-x="258" d="M57 469 L201 469 L201 0 L57 0 L57 469 Z M-7 654 L266 654 L266 552 L-7 552 L-7 654 Z " />
<glyph glyph-name="Ibreve" unicode="&#x12c;" horiz-adv-x="281" d="M65 667 L216 667 L216 0 L65 0 L65 667 Z M84 863 Q85 840 99.5 823 Q114 806 141 806 Q168 806 182.5 823 Q197 840 197 863 L303 863 Q303 798 259.5 756 Q216 714 141 714 Q66 714 22.5 756 Q-21 798 -21 863 L84 863 Z " />
<glyph glyph-name="ibreve" unicode="&#x12d;" horiz-adv-x="258" d="M57 469 L201 469 L201 0 L57 0 L57 469 Z M79 682 Q80 660 91.5 643 Q103 626 131 626 Q160 626 171.5 643 Q183 660 183 682 L287 682 Q287 651 276 625 Q265 599 244.5 580 Q224 561 195 550.5 Q166 540 131 540 Q96 540 67 550.5 Q38 561 18 580 Q-2 599 -13.5 625 Q-25 651 -25 682 L79 682 Z " />
<glyph glyph-name="Iogonek" unicode="&#x12e;" horiz-adv-x="281" d="M65 667 L216 667 L216 0 Q209 -8 200.5 -18 Q192 -28 185 -39 Q178 -50 173.5 -60.5 Q169 -71 169 -80 Q169 -102 194 -102 Q208 -102 220.5 -97.5 Q233 -93 244 -85 L275 -165 Q249 -182 219 -191.5 Q189 -201 160 -201 Q113 -201 85.5 -180.5 Q58 -160 58 -118 Q58 -86 77 -56 Q96 -26 121 0 L65 0 L65 667 Z " />
<glyph glyph-name="iogonek" unicode="&#x12f;" horiz-adv-x="258" d="M57 469 L201 469 L201 0 Q193 -8 184.5 -18 Q176 -28 168 -38.5 Q160 -49 155 -59.5 Q150 -70 150 -78 Q150 -99 175 -99 Q189 -99 202 -94.5 Q215 -90 227 -82 L257 -160 Q232 -177 202 -186 Q172 -195 144 -195 Q99 -195 72 -175 Q45 -155 45 -115 Q45 -83 64 -54 Q83 -25 106 0 L57 0 L57 469 Z M52 667 L206 667 L206 538 L52 538 L52 667 Z " />
<glyph glyph-name="Idotaccent" unicode="&#x130;" horiz-adv-x="281" d="M65 667 L216 667 L216 0 L65 0 L65 667 Z M72 860 L211 860 L211 730 L72 730 L72 860 Z " />
<glyph glyph-name="dotlessi" unicode="&#x131;" horiz-adv-x="258" d="M57 469 L201 469 L201 0 L57 0 L57 469 Z " />
<glyph glyph-name="IJ" unicode="&#x132;" horiz-adv-x="817" d="M65 667 L216 667 L216 0 L65 0 L65 667 Z M401 174 Q428 142 455.5 128.5 Q483 115 515 115 Q557 115 581.5 140 Q606 165 606 213 L606 667 L757 667 L757 203 Q757 146 738 104 Q719 62 687 35 Q655 8 613.5 -5 Q572 -18 526 -18 Q381 -18 303 81 L401 174 Z " />
<glyph glyph-name="ij" unicode="&#x133;" horiz-adv-x="511" d="M57 469 L201 469 L201 0 L57 0 L57 469 Z M52 667 L206 667 L206 538 L52 538 L52 667 Z M192 -60 Q203 -67 217.5 -72.5 Q232 -78 249 -78 Q283 -78 296.5 -57 Q310 -36 310 2 L310 469 L453 469 L453 24 Q453 -20 446 -60.5 Q439 -101 419 -132 Q399 -163 364 -181.5 Q329 -200 273 -200 Q230 -200 196 -187.5 Q162 -175 139 -157 L192 -60 Z M304 667 L458 667 L458 538 L304 538 L304 667 Z " />
<glyph glyph-name="Jcircumflex" unicode="&#x134;" horiz-adv-x="524" d="M108 174 Q135 142 162.5 128.5 Q190 115 222 115 Q264 115 288.5 140 Q313 165 313 213 L313 667 L464 667 L464 203 Q464 146 445 104 Q426 62 394 35 Q362 8 320.5 -5 Q279 -18 233 -18 Q88 -18 10 81 L108 174 Z M328 873 L448 873 L561 717 L441 717 L388 792 L334 717 L215 717 L328 873 Z " />
<glyph glyph-name="jcircumflex" unicode="&#x135;" horiz-adv-x="265" d="M-54 -66 Q-43 -73 -28.5 -78.5 Q-14 -84 3 -84 Q37 -84 50.5 -63 Q64 -42 64 -4 L64 469 L207 469 L207 18 Q207 -26 200 -66.5 Q193 -107 173 -138 Q153 -169 118 -187.5 Q83 -206 27 -206 Q-16 -206 -50 -193.5 Q-84 -181 -107 -163 L-54 -66 Z M74 682 L195 682 L301 540 L182 540 L134 606 L87 540 L-32 540 L74 682 Z " />
<glyph glyph-name="Kcommaaccent" unicode="&#x136;" horiz-adv-x="654" d="M65 667 L216 667 L216 401 L439 667 L614 667 L385 407 L645 0 L462 0 L284 291 L216 215 L216 0 L65 0 L65 667 Z M254 -51 L410 -51 L316 -209 L201 -209 L254 -51 Z " />
<glyph glyph-name="kcommaaccent" unicode="&#x137;" horiz-adv-x="528" d="M53 667 L197 667 L197 321 L340 469 L503 469 L335 296 L526 0 L359 0 L239 198 L197 155 L197 0 L53 0 L53 667 Z M209 -51 L352 -51 L267 -193 L161 -193 L209 -51 Z " />
<glyph glyph-name="kgreenlandic" unicode="&#x138;" horiz-adv-x="533" d="M53 469 L197 469 L197 321 L340 469 L503 469 L335 296 L526 0 L359 0 L239 198 L197 155 L197 0 L53 0 L53 469 Z " />
<glyph glyph-name="Lacute" unicode="&#x139;" horiz-adv-x="559" d="M65 667 L216 667 L216 134 L535 134 L535 0 L65 0 L65 667 Z M151 873 L314 873 L195 717 L78 717 L151 873 Z " />
<glyph glyph-name="lacute" unicode="&#x13a;" horiz-adv-x="250" d="M53 667 L197 667 L197 0 L53 0 L53 667 Z M134 873 L297 873 L178 717 L61 717 L134 873 Z " />
<glyph glyph-name="Lcommaaccent" unicode="&#x13b;" horiz-adv-x="559" d="M65 667 L216 667 L216 134 L535 134 L535 0 L65 0 L65 667 Z M231 -51 L387 -51 L293 -209 L178 -209 L231 -51 Z " />
<glyph glyph-name="lcommaaccent" unicode="&#x13c;" horiz-adv-x="250" d="M53 667 L197 667 L197 0 L53 0 L53 667 Z M55 -51 L198 -51 L113 -193 L7 -193 L55 -51 Z " />
<glyph glyph-name="Lcaron" unicode="&#x13d;" horiz-adv-x="559" d="M301 667 L440 667 L403 476 L301 476 L301 667 Z M65 667 L216 667 L216 134 L535 134 L535 0 L65 0 L65 667 Z " />
<glyph glyph-name="lcaron" unicode="&#x13e;" horiz-adv-x="316" d="M53 667 L197 667 L197 0 L53 0 L53 667 Z M250 667 L373 667 L336 498 L250 498 L250 667 Z " />
<glyph glyph-name="Ldot" unicode="&#x13f;" horiz-adv-x="559" d="M65 667 L216 667 L216 134 L535 134 L535 0 L65 0 L65 667 Z M347 455 L486 455 L486 325 L347 325 L347 455 Z " />
<glyph glyph-name="ldot" unicode="&#x140;" horiz-adv-x="436" d="M53 667 L197 667 L197 0 L53 0 L53 667 Z M278 419 L409 419 L409 297 L278 297 L278 419 Z " />
<glyph glyph-name="Lslash" unicode="&#x141;" horiz-adv-x="559" d="M65 254 L2 215 L2 322 L65 361 L65 667 L216 667 L216 456 L338 532 L338 426 L216 350 L216 134 L535 134 L535 0 L65 0 L65 254 Z " />
<glyph glyph-name="lslash" unicode="&#x142;" horiz-adv-x="273" d="M65 256 L9 220 L9 326 L65 362 L65 667 L209 667 L209 452 L269 490 L269 385 L209 346 L209 0 L65 0 L65 256 Z " />
<glyph glyph-name="Nacute" unicode="&#x143;" horiz-adv-x="712" d="M65 667 L209 667 L498 234 L498 667 L647 667 L647 0 L510 0 L214 441 L214 0 L65 0 L65 667 Z M355 873 L518 873 L399 717 L282 717 L355 873 Z " />
<glyph glyph-name="nacute" unicode="&#x144;" horiz-adv-x="562" d="M54 469 L192 469 L196 418 Q219 446 256.5 463 Q294 480 335 480 Q416 480 463.5 432 Q511 384 511 290 L511 0 L367 0 L367 270 Q367 309 347.5 332 Q328 355 293 355 Q269 355 251 346.5 Q233 338 221 324 Q209 310 203 291.5 Q197 273 197 252 L197 0 L54 0 L54 469 Z M277 682 L419 682 L335 540 L229 540 L277 682 Z " />
<glyph glyph-name="Ncommaaccent" unicode="&#x145;" horiz-adv-x="712" d="M65 667 L209 667 L498 234 L498 667 L647 667 L647 0 L510 0 L214 441 L214 0 L65 0 L65 667 Z M302 -51 L458 -51 L364 -209 L249 -209 L302 -51 Z " />
<glyph glyph-name="ncommaaccent" unicode="&#x146;" horiz-adv-x="562" d="M54 469 L192 469 L196 418 Q219 446 256.5 463 Q294 480 335 480 Q416 480 463.5 432 Q511 384 511 290 L511 0 L367 0 L367 270 Q367 309 347.5 332 Q328 355 293 355 Q269 355 251 346.5 Q233 338 221 324 Q209 310 203 291.5 Q197 273 197 252 L197 0 L54 0 L54 469 Z M218 -51 L361 -51 L276 -193 L170 -193 L218 -51 Z " />
<glyph glyph-name="Ncaron" unicode="&#x147;" horiz-adv-x="712" d="M65 667 L209 667 L498 234 L498 667 L647 667 L647 0 L510 0 L214 441 L214 0 L65 0 L65 667 Z M179 873 L299 873 L352 798 L406 873 L525 873 L412 717 L292 717 L179 873 Z " />
<glyph glyph-name="ncaron" unicode="&#x148;" horiz-adv-x="562" d="M54 469 L192 469 L196 418 Q219 446 256.5 463 Q294 480 335 480 Q416 480 463.5 432 Q511 384 511 290 L511 0 L367 0 L367 270 Q367 309 347.5 332 Q328 355 293 355 Q269 355 251 346.5 Q233 338 221 324 Q209 310 203 291.5 Q197 273 197 252 L197 0 L54 0 L54 469 Z M120 682 L238 682 L287 615 L334 682 L453 682 L347 540 L225 540 L120 682 Z " />
<glyph glyph-name="napostrophe" unicode="&#x149;" horiz-adv-x="562" d="M54 469 L192 469 L196 418 Q219 446 256.5 463 Q294 480 335 480 Q416 480 463.5 432 Q511 384 511 290 L511 0 L367 0 L367 270 Q367 309 347.5 332 Q328 355 293 355 Q269 355 251 346.5 Q233 338 221 324 Q209 310 203 291.5 Q197 273 197 252 L197 0 L54 0 L54 469 Z M15 682 L143 682 L102 533 L8 533 L15 682 Z " />
<glyph glyph-name="Eng" unicode="&#x14a;" horiz-adv-x="712" d="M65 667 L209 667 L498 234 L498 667 L647 667 L647 12 Q647 -33 638.5 -71.5 Q630 -110 609.5 -139 Q589 -168 554 -184.5 Q519 -201 465 -201 Q423 -201 388 -188.5 Q353 -176 330 -162 L384 -63 Q395 -69 410 -74.5 Q425 -80 442 -80 Q474 -80 486.5 -56 Q499 -32 499 0 L499 16 L214 441 L214 0 L65 0 L65 667 Z " />
<glyph glyph-name="eng" unicode="&#x14b;" horiz-adv-x="562" d="M249 -59 Q260 -66 274.5 -71.5 Q289 -77 306 -77 Q338 -77 352.5 -57.5 Q367 -38 367 -3 L367 270 Q367 309 347 332 Q327 355 292 355 Q269 355 251 346.5 Q233 338 221 324 Q209 310 203 291.5 Q197 273 197 252 L197 0 L53 0 L53 469 L191 469 L196 418 Q219 446 256 463 Q293 480 334 480 Q415 480 462.5 432 Q510 384 510 290 L510 24 Q510 -20 503 -60.5 Q496 -101 476 -132 Q456 -163 421 -181.5 Q386 -200 330 -200 Q287 -200 253 -187.5 Q219 -175 196 -157 L249 -59 Z " />
<glyph glyph-name="Omacron" unicode="&#x14c;" horiz-adv-x="772" d="M386 -17 Q312 -17 248.5 10 Q185 37 138.5 84 Q92 131 65.5 195.5 Q39 260 39 334 Q39 409 65.5 473 Q92 537 138.5 584 Q185 631 248.5 658 Q312 685 386 685 Q460 685 523.5 658 Q587 631 633.5 584 Q680 537 706.5 473 Q733 409 733 334 Q733 260 706.5 195.5 Q680 131 633.5 84 Q587 37 523.5 10 Q460 -17 386 -17 Z M386 125 Q430 125 465 142 Q500 159 524.5 188 Q549 217 562 255 Q575 293 575 336 Q575 379 562 417 Q549 455 524.5 483.5 Q500 512 465 528.5 Q430 545 386 545 Q342 545 306.5 528.5 Q271 512 246.5 483.5 Q222 455 209 417 Q196 379 196 336 Q196 293 209 255 Q222 217 246.5 188 Q271 159 306.5 142 Q342 125 386 125 Z M227 848 L544 848 L544 742 L227 742 L227 848 Z " />
<glyph glyph-name="omacron" unicode="&#x14d;" horiz-adv-x="568" d="M284 109 Q311 109 332 119.5 Q353 130 367.5 148 Q382 166 389 188.5 Q396 211 396 235 Q396 259 389 281.5 Q382 304 367.5 321.5 Q353 339 332 349.5 Q311 360 284 360 Q257 360 235.5 349.5 Q214 339 200 321.5 Q186 304 178.5 281.5 Q171 259 171 235 Q171 211 178.5 188.5 Q186 166 200 148 Q214 130 235.5 119.5 Q257 109 284 109 Z M32 235 Q32 287 50.5 332.5 Q69 378 102 412 Q135 446 181.5 465.5 Q228 485 284 485 Q340 485 386 465.5 Q432 446 465 412 Q498 378 516.5 332.5 Q535 287 535 235 Q535 183 516.5 137.5 Q498 92 465 58 Q432 24 386 4 Q340 -16 284 -16 Q228 -16 181.5 4 Q135 24 102 58 Q69 92 50.5 137.5 Q32 183 32 235 Z M148 654 L421 654 L421 552 L148 552 L148 654 Z " />
<glyph glyph-name="Obreve" unicode="&#x14e;" horiz-adv-x="772" d="M386 -17 Q312 -17 248.5 10 Q185 37 138.5 84 Q92 131 65.5 195.5 Q39 260 39 334 Q39 409 65.5 473 Q92 537 138.5 584 Q185 631 248.5 658 Q312 685 386 685 Q460 685 523.5 658 Q587 631 633.5 584 Q680 537 706.5 473 Q733 409 733 334 Q733 260 706.5 195.5 Q680 131 633.5 84 Q587 37 523.5 10 Q460 -17 386 -17 Z M386 125 Q430 125 465 142 Q500 159 524.5 188 Q549 217 562 255 Q575 293 575 336 Q575 379 562 417 Q549 455 524.5 483.5 Q500 512 465 528.5 Q430 545 386 545 Q342 545 306.5 528.5 Q271 512 246.5 483.5 Q222 455 209 417 Q196 379 196 336 Q196 293 209 255 Q222 217 246.5 188 Q271 159 306.5 142 Q342 125 386 125 Z M328 863 Q329 840 343.5 823 Q358 806 385 806 Q412 806 426.5 823 Q441 840 441 863 L547 863 Q547 798 503.5 756 Q460 714 385 714 Q310 714 266.5 756 Q223 798 223 863 L328 863 Z " />
<glyph glyph-name="obreve" unicode="&#x14f;" horiz-adv-x="568" d="M284 109 Q311 109 332 119.5 Q353 130 367.5 148 Q382 166 389 188.5 Q396 211 396 235 Q396 259 389 281.5 Q382 304 367.5 321.5 Q353 339 332 349.5 Q311 360 284 360 Q257 360 235.5 349.5 Q214 339 200 321.5 Q186 304 178.5 281.5 Q171 259 171 235 Q171 211 178.5 188.5 Q186 166 200 148 Q214 130 235.5 119.5 Q257 109 284 109 Z M32 235 Q32 287 50.5 332.5 Q69 378 102 412 Q135 446 181.5 465.5 Q228 485 284 485 Q340 485 386 465.5 Q432 446 465 412 Q498 378 516.5 332.5 Q535 287 535 235 Q535 183 516.5 137.5 Q498 92 465 58 Q432 24 386 4 Q340 -16 284 -16 Q228 -16 181.5 4 Q135 24 102 58 Q69 92 50.5 137.5 Q32 183 32 235 Z M232 682 Q233 660 244.5 643 Q256 626 284 626 Q313 626 324.5 643 Q336 660 336 682 L440 682 Q440 651 429 625 Q418 599 397.5 580 Q377 561 348 550.5 Q319 540 284 540 Q249 540 220 550.5 Q191 561 171 580 Q151 599 139.5 625 Q128 651 128 682 L232 682 Z " />
<glyph glyph-name="Ohungarumlaut" unicode="&#x150;" horiz-adv-x="772" d="M386 -17 Q312 -17 248.5 10 Q185 37 138.5 84 Q92 131 65.5 195.5 Q39 260 39 334 Q39 409 65.5 473 Q92 537 138.5 584 Q185 631 248.5 658 Q312 685 386 685 Q460 685 523.5 658 Q587 631 633.5 584 Q680 537 706.5 473 Q733 409 733 334 Q733 260 706.5 195.5 Q680 131 633.5 84 Q587 37 523.5 10 Q460 -17 386 -17 Z M386 125 Q430 125 465 142 Q500 159 524.5 188 Q549 217 562 255 Q575 293 575 336 Q575 379 562 417 Q549 455 524.5 483.5 Q500 512 465 528.5 Q430 545 386 545 Q342 545 306.5 528.5 Q271 512 246.5 483.5 Q222 455 209 417 Q196 379 196 336 Q196 293 209 255 Q222 217 246.5 188 Q271 159 306.5 142 Q342 125 386 125 Z M309 873 L459 873 L344 717 L237 717 L309 873 Z M503 873 L653 873 L538 717 L431 717 L503 873 Z " />
<glyph glyph-name="ohungarumlaut" unicode="&#x151;" horiz-adv-x="568" d="M284 109 Q311 109 332 119.5 Q353 130 367.5 148 Q382 166 389 188.5 Q396 211 396 235 Q396 259 389 281.5 Q382 304 367.5 321.5 Q353 339 332 349.5 Q311 360 284 360 Q257 360 235.5 349.5 Q214 339 200 321.5 Q186 304 178.5 281.5 Q171 259 171 235 Q171 211 178.5 188.5 Q186 166 200 148 Q214 130 235.5 119.5 Q257 109 284 109 Z M32 235 Q32 287 50.5 332.5 Q69 378 102 412 Q135 446 181.5 465.5 Q228 485 284 485 Q340 485 386 465.5 Q432 446 465 412 Q498 378 516.5 332.5 Q535 287 535 235 Q535 183 516.5 137.5 Q498 92 465 58 Q432 24 386 4 Q340 -16 284 -16 Q228 -16 181.5 4 Q135 24 102 58 Q69 92 50.5 137.5 Q32 183 32 235 Z M367 682 L498 682 L417 540 L320 540 L367 682 Z M195 682 L326 682 L246 540 L148 540 L195 682 Z " />
<glyph glyph-name="Racute" unicode="&#x154;" horiz-adv-x="607" d="M65 667 L313 667 Q371 667 415 650.5 Q459 634 488.5 605.5 Q518 577 532.5 539 Q547 501 547 458 Q547 393 518.5 344.5 Q490 296 438 267 L586 0 L420 0 L296 245 L212 245 L212 0 L65 0 L65 667 Z M305 366 Q347 366 371 391 Q395 416 395 454 Q395 495 371 519 Q347 543 305 543 L212 543 L212 366 L305 366 Z M275 873 L438 873 L319 717 L202 717 L275 873 Z " />
<glyph glyph-name="racute" unicode="&#x155;" horiz-adv-x="393" d="M53 469 L191 469 L196 410 Q214 434 245.5 456 Q277 478 327 478 Q346 478 359.5 476 Q373 474 386 469 L363 342 Q341 349 311 349 Q260 349 228.5 318.5 Q197 288 197 232 L197 0 L53 0 L53 469 Z M205 682 L347 682 L263 540 L157 540 L205 682 Z " />
<glyph glyph-name="Rcommaaccent" unicode="&#x156;" horiz-adv-x="607" d="M65 667 L313 667 Q371 667 415 650.5 Q459 634 488.5 605.5 Q518 577 532.5 539 Q547 501 547 458 Q547 393 518.5 344.5 Q490 296 438 267 L586 0 L420 0 L296 245 L212 245 L212 0 L65 0 L65 667 Z M305 366 Q347 366 371 391 Q395 416 395 454 Q395 495 371 519 Q347 543 305 543 L212 543 L212 366 L305 366 Z M241 -51 L397 -51 L303 -209 L188 -209 L241 -51 Z " />
<glyph glyph-name="rcommaaccent" unicode="&#x157;" horiz-adv-x="393" d="M53 469 L191 469 L196 410 Q214 434 245.5 456 Q277 478 327 478 Q346 478 359.5 476 Q373 474 386 469 L363 342 Q341 349 311 349 Q260 349 228.5 318.5 Q197 288 197 232 L197 0 L53 0 L53 469 Z M56 -51 L199 -51 L114 -193 L8 -193 L56 -51 Z " />
<glyph glyph-name="Rcaron" unicode="&#x158;" horiz-adv-x="607" d="M65 667 L313 667 Q371 667 415 650.5 Q459 634 488.5 605.5 Q518 577 532.5 539 Q547 501 547 458 Q547 393 518.5 344.5 Q490 296 438 267 L586 0 L420 0 L296 245 L212 245 L212 0 L65 0 L65 667 Z M305 366 Q347 366 371 391 Q395 416 395 454 Q395 495 371 519 Q347 543 305 543 L212 543 L212 366 L305 366 Z M110 873 L230 873 L283 798 L337 873 L456 873 L343 717 L223 717 L110 873 Z " />
<glyph glyph-name="rcaron" unicode="&#x159;" horiz-adv-x="393" d="M53 469 L191 469 L196 410 Q214 434 245.5 456 Q277 478 327 478 Q346 478 359.5 476 Q373 474 386 469 L363 342 Q341 349 311 349 Q260 349 228.5 318.5 Q197 288 197 232 L197 0 L53 0 L53 469 Z M51 682 L169 682 L218 615 L265 682 L384 682 L278 540 L156 540 L51 682 Z " />
<glyph glyph-name="Sacute" unicode="&#x15a;" horiz-adv-x="591" d="M115 199 Q128 185 145.5 170.5 Q163 156 184.5 144 Q206 132 231.5 124.5 Q257 117 286 117 Q303 117 320 122 Q337 127 351 136.5 Q365 146 373.5 159.5 Q382 173 382 190 Q382 227 346 247.5 Q310 268 232 288 Q194 297 161.5 314 Q129 331 105.5 355 Q82 379 69 410 Q56 441 56 479 Q56 521 71 558 Q86 595 116.5 623.5 Q147 652 192.5 668.5 Q238 685 300 685 Q351 685 390 674.5 Q429 664 456.5 649.5 Q484 635 501.5 619.5 Q519 604 528 595 L441 499 Q430 508 415.5 518.5 Q401 529 383 538 Q365 547 343.5 553 Q322 559 298 559 Q282 559 266.5 554 Q251 549 238.5 540.5 Q226 532 218.5 520.5 Q211 509 211 496 Q211 462 247 441 Q283 420 346 406 Q383 397 418.5 381.5 Q454 366 482 341 Q510 316 527 279.5 Q544 243 544 191 Q544 146 524 108 Q504 70 469.5 42 Q435 14 388.5 -1.5 Q342 -17 288 -17 Q238 -17 197 -7.5 Q156 2 123 17.5 Q90 33 63.5 53 Q37 73 18 94 L115 199 Z M302 873 L465 873 L346 717 L229 717 L302 873 Z " />
<glyph glyph-name="sacute" unicode="&#x15b;" horiz-adv-x="482" d="M101 145 Q124 124 161.5 110 Q199 96 234 96 Q266 96 287 104 Q308 112 308 135 Q308 144 303.5 151.5 Q299 159 287 165.5 Q275 172 253.5 179 Q232 186 199 195 Q172 202 145.5 213.5 Q119 225 98.5 242 Q78 259 65.5 283 Q53 307 53 339 Q53 372 68 398.5 Q83 425 109.5 444.5 Q136 464 172.5 474.5 Q209 485 251 485 Q311 485 356 471.5 Q401 458 439 432 L378 337 Q355 352 325.5 364 Q296 376 259 376 Q226 376 211 366.5 Q196 357 196 341 Q196 318 227 307 Q258 296 311 282 Q383 262 415.5 227 Q448 192 448 134 Q448 95 430.5 67 Q413 39 383.5 20.5 Q354 2 316.5 -7 Q279 -16 240 -16 Q177 -16 121 1 Q65 18 30 53 L101 145 Z M237 682 L379 682 L295 540 L189 540 L237 682 Z " />
<glyph glyph-name="Scircumflex" unicode="&#x15c;" horiz-adv-x="591" d="M115 199 Q128 185 145.5 170.5 Q163 156 184.5 144 Q206 132 231.5 124.5 Q257 117 286 117 Q303 117 320 122 Q337 127 351 136.5 Q365 146 373.5 159.5 Q382 173 382 190 Q382 227 346 247.5 Q310 268 232 288 Q194 297 161.5 314 Q129 331 105.5 355 Q82 379 69 410 Q56 441 56 479 Q56 521 71 558 Q86 595 116.5 623.5 Q147 652 192.5 668.5 Q238 685 300 685 Q351 685 390 674.5 Q429 664 456.5 649.5 Q484 635 501.5 619.5 Q519 604 528 595 L441 499 Q430 508 415.5 518.5 Q401 529 383 538 Q365 547 343.5 553 Q322 559 298 559 Q282 559 266.5 554 Q251 549 238.5 540.5 Q226 532 218.5 520.5 Q211 509 211 496 Q211 462 247 441 Q283 420 346 406 Q383 397 418.5 381.5 Q454 366 482 341 Q510 316 527 279.5 Q544 243 544 191 Q544 146 524 108 Q504 70 469.5 42 Q435 14 388.5 -1.5 Q342 -17 288 -17 Q238 -17 197 -7.5 Q156 2 123 17.5 Q90 33 63.5 53 Q37 73 18 94 L115 199 Z M237 873 L357 873 L470 717 L350 717 L297 792 L243 717 L124 717 L237 873 Z " />
<glyph glyph-name="scircumflex" unicode="&#x15d;" horiz-adv-x="482" d="M101 145 Q124 124 161.5 110 Q199 96 234 96 Q266 96 287 104 Q308 112 308 135 Q308 144 303.5 151.5 Q299 159 287 165.5 Q275 172 253.5 179 Q232 186 199 195 Q172 202 145.5 213.5 Q119 225 98.5 242 Q78 259 65.5 283 Q53 307 53 339 Q53 372 68 398.5 Q83 425 109.5 444.5 Q136 464 172.5 474.5 Q209 485 251 485 Q311 485 356 471.5 Q401 458 439 432 L378 337 Q355 352 325.5 364 Q296 376 259 376 Q226 376 211 366.5 Q196 357 196 341 Q196 318 227 307 Q258 296 311 282 Q383 262 415.5 227 Q448 192 448 134 Q448 95 430.5 67 Q413 39 383.5 20.5 Q354 2 316.5 -7 Q279 -16 240 -16 Q177 -16 121 1 Q65 18 30 53 L101 145 Z M194 682 L315 682 L421 540 L302 540 L254 606 L207 540 L88 540 L194 682 Z " />
<glyph glyph-name="Scedilla" unicode="&#x15e;" horiz-adv-x="591" d="M115 199 Q128 185 145.5 170.5 Q163 156 184.5 144 Q206 132 231.5 124.5 Q257 117 286 117 Q303 117 320 122 Q337 127 351 136.5 Q365 146 373.5 159.5 Q382 173 382 190 Q382 227 346 247.5 Q310 268 232 288 Q194 297 161.5 314 Q129 331 105.5 355 Q82 379 69 410 Q56 441 56 479 Q56 521 71 558 Q86 595 116.5 623.5 Q147 652 192.5 668.5 Q238 685 300 685 Q351 685 390 674.5 Q429 664 456.5 649.5 Q484 635 501.5 619.5 Q519 604 528 595 L441 499 Q430 508 415.5 518.5 Q401 529 383 538 Q365 547 343.5 553 Q322 559 298 559 Q282 559 266.5 554 Q251 549 238.5 540.5 Q226 532 218.5 520.5 Q211 509 211 496 Q211 462 247 441 Q283 420 346 406 Q383 397 418.5 381.5 Q454 366 482 341 Q510 316 527 279.5 Q544 243 544 191 Q544 146 524 108 Q504 70 469.5 42 Q435 14 388.5 -1.5 Q342 -17 288 -17 Q238 -17 197 -7.5 Q156 2 123 17.5 Q90 33 63.5 53 Q37 73 18 94 L115 199 Z M184 -135 Q220 -147 255 -147 Q275 -147 292.5 -142 Q310 -137 310 -120 Q310 -106 294.5 -100.5 Q279 -95 259 -95 Q242 -95 224.5 -97.5 Q207 -100 192 -105 L205 -37 Q225 -31 245.5 -28.5 Q266 -26 292 -26 Q341 -26 376 -49 Q411 -72 411 -117 Q411 -144 399 -164 Q387 -184 367.5 -197 Q348 -210 324 -216 Q300 -222 275 -222 Q237 -222 210 -217 Q183 -212 170 -207 L184 -135 Z " />
<glyph glyph-name="scedilla" unicode="&#x15f;" horiz-adv-x="482" d="M101 145 Q124 124 161.5 110 Q199 96 234 96 Q266 96 287 104 Q308 112 308 135 Q308 144 303.5 151.5 Q299 159 287 165.5 Q275 172 253.5 179 Q232 186 199 195 Q172 202 145.5 213.5 Q119 225 98.5 242 Q78 259 65.5 283 Q53 307 53 339 Q53 372 68 398.5 Q83 425 109.5 444.5 Q136 464 172.5 474.5 Q209 485 251 485 Q311 485 356 471.5 Q401 458 439 432 L378 337 Q355 352 325.5 364 Q296 376 259 376 Q226 376 211 366.5 Q196 357 196 341 Q196 318 227 307 Q258 296 311 282 Q383 262 415.5 227 Q448 192 448 134 Q448 95 430.5 67 Q413 39 383.5 20.5 Q354 2 316.5 -7 Q279 -16 240 -16 Q177 -16 121 1 Q65 18 30 53 L101 145 Z M132 -144 Q150 -150 167.5 -153.5 Q185 -157 202 -157 Q223 -157 240.5 -150.5 Q258 -144 258 -127 Q258 -112 242.5 -106 Q227 -100 206 -100 Q170 -100 140 -112 L153 -44 Q173 -39 193 -35.5 Q213 -32 239 -32 Q288 -32 322 -55.5 Q356 -79 356 -125 Q356 -152 344.5 -172 Q333 -192 314 -205 Q295 -218 271 -224.5 Q247 -231 222 -231 Q184 -231 157.5 -225.5 Q131 -220 118 -215 L132 -144 Z " />
<glyph glyph-name="uni0162" unicode="&#x162;" horiz-adv-x="625" d="M237 534 L21 534 L21 667 L604 667 L604 534 L389 534 L389 0 L237 0 L237 534 Z M199 -144 Q235 -156 270 -156 Q290 -156 307.5 -151 Q325 -146 325 -129 Q325 -115 309.5 -109.5 Q294 -104 274 -104 Q257 -104 239.5 -106.5 Q222 -109 207 -114 L220 -46 Q240 -40 260.5 -37.5 Q281 -35 307 -35 Q356 -35 391 -58 Q426 -81 426 -126 Q426 -153 414 -173 Q402 -193 382.5 -206 Q363 -219 339 -225 Q315 -231 290 -231 Q252 -231 225 -226 Q198 -221 185 -216 L199 -144 Z " />
<glyph glyph-name="uni0163" unicode="&#x163;" horiz-adv-x="418" d="M88 356 L14 356 L14 469 L88 469 L88 611 L232 611 L232 469 L353 469 L353 356 L232 356 L232 171 Q232 137 245.5 118.5 Q259 100 288 100 Q310 100 326 107.5 Q342 115 356 125 L414 37 Q346 -17 266 -17 Q216 -17 182 -2.5 Q148 12 127 37.5 Q106 63 97 99 Q88 135 88 179 L88 356 Z M125 -149 Q143 -155 160.5 -158.5 Q178 -162 195 -162 Q216 -162 233.5 -155.5 Q251 -149 251 -132 Q251 -117 235.5 -111 Q220 -105 199 -105 Q163 -105 133 -117 L146 -49 Q166 -44 186 -40.5 Q206 -37 232 -37 Q281 -37 315 -60.5 Q349 -84 349 -130 Q349 -157 337.5 -177 Q326 -197 307 -210 Q288 -223 264 -229.5 Q240 -236 215 -236 Q177 -236 150.5 -230.5 Q124 -225 111 -220 L125 -149 Z " />
<glyph glyph-name="Tcaron" unicode="&#x164;" horiz-adv-x="625" d="M237 534 L21 534 L21 667 L604 667 L604 534 L389 534 L389 0 L237 0 L237 534 Z M139 873 L259 873 L312 798 L366 873 L485 873 L372 717 L252 717 L139 873 Z " />
<glyph glyph-name="tcaron" unicode="&#x165;" horiz-adv-x="418" d="M284 667 L407 667 L369 515 L284 515 L284 667 Z M88 356 L14 356 L14 469 L88 469 L88 611 L232 611 L232 469 L353 469 L353 356 L232 356 L232 171 Q232 137 245.5 118.5 Q259 100 288 100 Q310 100 326 107.5 Q342 115 356 125 L414 37 Q346 -17 266 -17 Q216 -17 182 -2.5 Q148 12 127 37.5 Q106 63 97 99 Q88 135 88 179 L88 356 Z " />
<glyph glyph-name="Tbar" unicode="&#x166;" horiz-adv-x="625" d="M237 251 L120 251 L120 348 L237 348 L237 534 L21 534 L21 667 L604 667 L604 534 L389 534 L389 348 L505 348 L505 251 L389 251 L389 0 L237 0 L237 251 Z " />
<glyph glyph-name="tbar" unicode="&#x167;" horiz-adv-x="418" d="M14 282 L88 282 L88 356 L14 356 L14 469 L88 469 L88 611 L232 611 L232 469 L353 469 L353 356 L232 356 L232 282 L353 282 L353 197 L232 197 L232 171 Q232 137 245 118.5 Q258 100 288 100 Q310 100 326 107.5 Q342 115 356 125 L414 37 Q348 -16 266 -16 Q213 -16 178.5 -0.5 Q144 15 124 43 Q104 71 96 110.5 Q88 150 88 197 L14 197 L14 282 Z " />
<glyph glyph-name="Utilde" unicode="&#x168;" horiz-adv-x="680" d="M60 667 L212 667 L212 272 Q212 239 218.5 212.5 Q225 186 240 167 Q255 148 279.5 137.5 Q304 127 340 127 Q375 127 399.5 137.5 Q424 148 439 167 Q454 186 460.5 212.5 Q467 239 467 272 L467 667 L620 667 L620 253 Q620 193 600.5 143 Q581 93 544.5 57.5 Q508 22 456 2 Q404 -18 340 -18 Q276 -18 224 1.5 Q172 21 135.5 57 Q99 93 79.5 143 Q60 193 60 253 L60 667 Z M132 806 Q153 829 186.5 848.5 Q220 868 261 868 Q281 868 297.5 861.5 Q314 855 330 847 Q346 839 362 832.5 Q378 826 398 826 Q429 826 451.5 837.5 Q474 849 491 863 L545 781 Q523 758 490 738 Q457 718 416 718 Q396 718 379.5 724.5 Q363 731 347 739.5 Q331 748 315 754.5 Q299 761 279 761 Q247 761 225 749.5 Q203 738 186 724 L132 806 Z " />
<glyph glyph-name="utilde" unicode="&#x169;" horiz-adv-x="561" d="M51 469 L195 469 L195 199 Q195 159 214.5 136 Q234 113 272 113 Q294 113 311 121.5 Q328 130 340 144 Q352 158 358 177 Q364 196 364 216 L364 469 L507 469 L507 0 L369 0 L365 50 Q342 23 304.5 5.5 Q267 -12 226 -12 Q145 -12 98 36 Q51 84 51 178 L51 469 Z M81 620 Q101 642 133.5 661 Q166 680 205 680 Q224 680 240.5 673.5 Q257 667 272 659 Q287 651 303 644.5 Q319 638 338 638 Q368 638 389.5 650 Q411 662 428 675 L479 596 Q459 574 426.5 554.5 Q394 535 355 535 Q335 535 319 541.5 Q303 548 288 556 Q273 564 257 570.5 Q241 577 222 577 Q192 577 170.5 565.5 Q149 554 132 541 L81 620 Z " />
<glyph glyph-name="Umacron" unicode="&#x16a;" horiz-adv-x="680" d="M60 667 L212 667 L212 272 Q212 239 218.5 212.5 Q225 186 240 167 Q255 148 279.5 137.5 Q304 127 340 127 Q375 127 399.5 137.5 Q424 148 439 167 Q454 186 460.5 212.5 Q467 239 467 272 L467 667 L620 667 L620 253 Q620 193 600.5 143 Q581 93 544.5 57.5 Q508 22 456 2 Q404 -18 340 -18 Q276 -18 224 1.5 Q172 21 135.5 57 Q99 93 79.5 143 Q60 193 60 253 L60 667 Z M181 848 L498 848 L498 742 L181 742 L181 848 Z " />
<glyph glyph-name="umacron" unicode="&#x16b;" horiz-adv-x="561" d="M51 469 L195 469 L195 199 Q195 159 214.5 136 Q234 113 272 113 Q294 113 311 121.5 Q328 130 340 144 Q352 158 358 177 Q364 196 364 216 L364 469 L507 469 L507 0 L369 0 L365 50 Q342 23 304.5 5.5 Q267 -12 226 -12 Q145 -12 98 36 Q51 84 51 178 L51 469 Z M146 654 L419 654 L419 552 L146 552 L146 654 Z " />
<glyph glyph-name="Ubreve" unicode="&#x16c;" horiz-adv-x="680" d="M60 667 L212 667 L212 272 Q212 239 218.5 212.5 Q225 186 240 167 Q255 148 279.5 137.5 Q304 127 340 127 Q375 127 399.5 137.5 Q424 148 439 167 Q454 186 460.5 212.5 Q467 239 467 272 L467 667 L620 667 L620 253 Q620 193 600.5 143 Q581 93 544.5 57.5 Q508 22 456 2 Q404 -18 340 -18 Q276 -18 224 1.5 Q172 21 135.5 57 Q99 93 79.5 143 Q60 193 60 253 L60 667 Z M283 863 Q284 840 298.5 823 Q313 806 340 806 Q367 806 381.5 823 Q396 840 396 863 L502 863 Q502 798 458.5 756 Q415 714 340 714 Q265 714 221.5 756 Q178 798 178 863 L283 863 Z " />
<glyph glyph-name="ubreve" unicode="&#x16d;" horiz-adv-x="561" d="M51 469 L195 469 L195 199 Q195 159 214.5 136 Q234 113 272 113 Q294 113 311 121.5 Q328 130 340 144 Q352 158 358 177 Q364 196 364 216 L364 469 L507 469 L507 0 L369 0 L365 50 Q342 23 304.5 5.5 Q267 -12 226 -12 Q145 -12 98 36 Q51 84 51 178 L51 469 Z M227 682 Q228 660 239.5 643 Q251 626 279 626 Q308 626 319.5 643 Q331 660 331 682 L435 682 Q435 651 424 625 Q413 599 392.5 580 Q372 561 343 550.5 Q314 540 279 540 Q244 540 215 550.5 Q186 561 166 580 Q146 599 134.5 625 Q123 651 123 682 L227 682 Z " />
<glyph glyph-name="Uring" unicode="&#x16e;" horiz-adv-x="680" d="M60 667 L212 667 L212 272 Q212 239 218.5 212.5 Q225 186 240 167 Q255 148 279.5 137.5 Q304 127 340 127 Q375 127 399.5 137.5 Q424 148 439 167 Q454 186 460.5 212.5 Q467 239 467 272 L467 667 L620 667 L620 253 Q620 193 600.5 143 Q581 93 544.5 57.5 Q508 22 456 2 Q404 -18 340 -18 Q276 -18 224 1.5 Q172 21 135.5 57 Q99 93 79.5 143 Q60 193 60 253 L60 667 Z M205 810 Q205 838 215.5 862.5 Q226 887 244.5 905 Q263 923 288 933 Q313 943 341 943 Q369 943 394 933 Q419 923 438 905 Q457 887 467.5 862.5 Q478 838 478 810 Q478 781 467.5 757 Q457 733 438.5 715.5 Q420 698 395 688 Q370 678 342 678 Q313 678 288.5 688 Q264 698 245 715.5 Q226 733 215.5 757 Q205 781 205 810 Z M342 762 Q362 762 375 776 Q388 790 388 810 Q388 831 375 844.5 Q362 858 341 858 Q321 858 308 844.5 Q295 831 295 810 Q295 790 308 776 Q321 762 342 762 Z " />
<glyph glyph-name="uring" unicode="&#x16f;" horiz-adv-x="561" d="M51 469 L195 469 L195 199 Q195 159 214.5 136 Q234 113 272 113 Q294 113 311 121.5 Q328 130 340 144 Q352 158 358 177 Q364 196 364 216 L364 469 L507 469 L507 0 L369 0 L365 50 Q342 23 304.5 5.5 Q267 -12 226 -12 Q145 -12 98 36 Q51 84 51 178 L51 469 Z M159 645 Q159 670 168.5 691.5 Q178 713 194.5 728.5 Q211 744 233 752.5 Q255 761 279 761 Q304 761 326 752.5 Q348 744 364.5 728.5 Q381 713 390.5 691.5 Q400 670 400 645 Q400 620 390.5 599 Q381 578 364.5 562.5 Q348 547 326 538 Q304 529 280 529 Q255 529 233 538 Q211 547 194.5 562.5 Q178 578 168.5 599 Q159 620 159 645 Z M279 604 Q296 604 308 616 Q320 628 320 645 Q320 662 308.5 674 Q297 686 280 686 Q263 686 251 674 Q239 662 239 645 Q239 628 250.5 616 Q262 604 279 604 Z " />
<glyph glyph-name="Uhungarumlaut" unicode="&#x170;" horiz-adv-x="680" d="M60 667 L212 667 L212 272 Q212 239 218.5 212.5 Q225 186 240 167 Q255 148 279.5 137.5 Q304 127 340 127 Q375 127 399.5 137.5 Q424 148 439 167 Q454 186 460.5 212.5 Q467 239 467 272 L467 667 L620 667 L620 253 Q620 193 600.5 143 Q581 93 544.5 57.5 Q508 22 456 2 Q404 -18 340 -18 Q276 -18 224 1.5 Q172 21 135.5 57 Q99 93 79.5 143 Q60 193 60 253 L60 667 Z M250 873 L400 873 L285 717 L178 717 L250 873 Z M444 873 L594 873 L479 717 L372 717 L444 873 Z " />
<glyph glyph-name="uhungarumlaut" unicode="&#x171;" horiz-adv-x="561" d="M51 469 L195 469 L195 199 Q195 159 214.5 136 Q234 113 272 113 Q294 113 311 121.5 Q328 130 340 144 Q352 158 358 177 Q364 196 364 216 L364 469 L507 469 L507 0 L369 0 L365 50 Q342 23 304.5 5.5 Q267 -12 226 -12 Q145 -12 98 36 Q51 84 51 178 L51 469 Z M359 682 L490 682 L409 540 L312 540 L359 682 Z M187 682 L318 682 L238 540 L140 540 L187 682 Z " />
<glyph glyph-name="Uogonek" unicode="&#x172;" horiz-adv-x="680" d="M60 667 L212 667 L212 272 Q212 239 218.5 212.5 Q225 186 240 167 Q255 148 279.5 137.5 Q304 127 340 127 Q375 127 399.5 137.5 Q424 148 439 167 Q454 186 460.5 212.5 Q467 239 467 272 L467 667 L620 667 L620 253 Q620 161 575.5 94.5 Q531 28 451 0 Q443 -8 434.5 -18 Q426 -28 418.5 -39 Q411 -50 406.5 -60.5 Q402 -71 402 -80 Q402 -102 427 -102 Q441 -102 453.5 -97.5 Q466 -93 477 -85 L508 -165 Q482 -182 452 -191.5 Q422 -201 393 -201 Q346 -201 318.5 -180.5 Q291 -160 291 -118 Q291 -91 304 -66 Q317 -41 337 -18 Q274 -18 222.5 2 Q171 22 135 58 Q99 94 79.5 143.5 Q60 193 60 253 L60 667 Z " />
<glyph glyph-name="uogonek" unicode="&#x173;" horiz-adv-x="561" d="M51 469 L195 469 L195 199 Q195 159 214.5 136 Q234 113 272 113 Q294 113 311 121.5 Q328 130 340 144 Q352 158 358 177 Q364 196 364 216 L364 469 L507 469 L507 0 Q499 -8 490.5 -18 Q482 -28 474 -38.5 Q466 -49 461 -59.5 Q456 -70 456 -78 Q456 -99 481 -99 Q495 -99 508 -94.5 Q521 -90 533 -82 L563 -160 Q538 -177 508 -186 Q478 -195 450 -195 Q405 -195 378 -175 Q351 -155 351 -115 Q351 -83 370 -54 Q389 -25 412 0 L369 0 L365 50 Q342 23 304.5 5.5 Q267 -12 226 -12 Q145 -12 98 36 Q51 84 51 178 L51 469 Z " />
<glyph glyph-name="Wcircumflex" unicode="&#x174;" horiz-adv-x="905" d="M10 667 L172 667 L270 184 L387 649 L524 649 L642 184 L739 667 L895 667 L725 0 L566 0 L452 436 L336 0 L177 0 L10 667 Z M395 873 L515 873 L628 717 L508 717 L455 792 L401 717 L282 717 L395 873 Z " />
<glyph glyph-name="wcircumflex" unicode="&#x175;" horiz-adv-x="769" d="M7 469 L155 469 L237 168 L328 469 L443 469 L535 168 L617 469 L762 469 L601 0 L471 0 L383 262 L296 0 L168 0 L7 469 Z M328 682 L449 682 L555 540 L436 540 L388 606 L341 540 L222 540 L328 682 Z " />
<glyph glyph-name="Ycircumflex" unicode="&#x176;" horiz-adv-x="636" d="M241 279 L7 667 L178 667 L323 415 L464 667 L628 667 L394 280 L394 0 L241 0 L241 279 Z M259 873 L379 873 L492 717 L372 717 L319 792 L265 717 L146 717 L259 873 Z " />
<glyph glyph-name="ycircumflex" unicode="&#x177;" horiz-adv-x="550" d="M79 -74 Q91 -83 105.5 -90 Q120 -97 137 -97 Q160 -97 175.5 -82.5 Q191 -68 205 -33 L219 5 L5 469 L169 469 L286 173 L392 469 L545 469 L353 3 Q337 -36 321.5 -74.5 Q306 -113 283.5 -143.5 Q261 -174 228.5 -193 Q196 -212 147 -212 Q109 -212 78 -202 Q47 -192 21 -173 L79 -74 Z M217 682 L338 682 L444 540 L325 540 L277 606 L230 540 L111 540 L217 682 Z " />
<glyph glyph-name="Zacute" unicode="&#x179;" horiz-adv-x="635" d="M39 123 L404 534 L56 534 L56 667 L589 667 L589 543 L231 132 L596 132 L596 0 L39 0 L39 123 Z M324 873 L487 873 L368 717 L251 717 L324 873 Z " />
<glyph glyph-name="zacute" unicode="&#x17a;" horiz-adv-x="490" d="M40 97 L270 353 L50 353 L50 469 L452 469 L452 370 L221 113 L453 113 L453 0 L40 0 L40 97 Z M258 682 L400 682 L316 540 L210 540 L258 682 Z " />
<glyph glyph-name="Zdotaccent" unicode="&#x17b;" horiz-adv-x="635" d="M39 123 L404 534 L56 534 L56 667 L589 667 L589 543 L231 132 L596 132 L596 0 L39 0 L39 123 Z M258 860 L397 860 L397 730 L258 730 L258 860 Z " />
<glyph glyph-name="zdotaccent" unicode="&#x17c;" horiz-adv-x="490" d="M40 97 L270 353 L50 353 L50 469 L452 469 L452 370 L221 113 L453 113 L453 0 L40 0 L40 97 Z M196 672 L327 672 L327 550 L196 550 L196 672 Z " />
<glyph glyph-name="Zcaron" unicode="&#x17d;" horiz-adv-x="635" d="M39 123 L404 534 L56 534 L56 667 L589 667 L589 543 L231 132 L596 132 L596 0 L39 0 L39 123 Z M159 873 L279 873 L332 798 L386 873 L505 873 L392 717 L272 717 L159 873 Z " />
<glyph glyph-name="zcaron" unicode="&#x17e;" horiz-adv-x="490" d="M40 97 L270 353 L50 353 L50 469 L452 469 L452 370 L221 113 L453 113 L453 0 L40 0 L40 97 Z M96 682 L214 682 L263 615 L310 682 L429 682 L323 540 L201 540 L96 682 Z " />
<glyph glyph-name="longs" unicode="&#x17f;" horiz-adv-x="261" d="M53 481 Q53 575 102 630 Q151 685 246 685 Q284 685 323 675 Q362 665 396 634 L334 541 Q320 551 302.5 558.5 Q285 566 268 566 Q230 566 214 545.5 Q198 525 196 480 Q196 359 196.5 240 Q197 121 197 0 L53 0 L53 481 Z " />
<glyph glyph-name="Scommaaccent" unicode="&#x218;" horiz-adv-x="591" d="M115 199 Q128 185 145.5 170.5 Q163 156 184.5 144 Q206 132 231.5 124.5 Q257 117 286 117 Q303 117 320 122 Q337 127 351 136.5 Q365 146 373.5 159.5 Q382 173 382 190 Q382 227 346 247.5 Q310 268 232 288 Q194 297 161.5 314 Q129 331 105.5 355 Q82 379 69 410 Q56 441 56 479 Q56 521 71 558 Q86 595 116.5 623.5 Q147 652 192.5 668.5 Q238 685 300 685 Q351 685 390 674.5 Q429 664 456.5 649.5 Q484 635 501.5 619.5 Q519 604 528 595 L441 499 Q430 508 415.5 518.5 Q401 529 383 538 Q365 547 343.5 553 Q322 559 298 559 Q282 559 266.5 554 Q251 549 238.5 540.5 Q226 532 218.5 520.5 Q211 509 211 496 Q211 462 247 441 Q283 420 346 406 Q383 397 418.5 381.5 Q454 366 482 341 Q510 316 527 279.5 Q544 243 544 191 Q544 146 524 108 Q504 70 469.5 42 Q435 14 388.5 -1.5 Q342 -17 288 -17 Q238 -17 197 -7.5 Q156 2 123 17.5 Q90 33 63.5 53 Q37 73 18 94 L115 199 Z M229 -51 L385 -51 L291 -209 L176 -209 L229 -51 Z " />
<glyph glyph-name="scommaaccent" unicode="&#x219;" horiz-adv-x="482" d="M101 145 Q124 124 161.5 110 Q199 96 234 96 Q266 96 287 104 Q308 112 308 135 Q308 144 303.5 151.5 Q299 159 287 165.5 Q275 172 253.5 179 Q232 186 199 195 Q172 202 145.5 213.5 Q119 225 98.5 242 Q78 259 65.5 283 Q53 307 53 339 Q53 372 68 398.5 Q83 425 109.5 444.5 Q136 464 172.5 474.5 Q209 485 251 485 Q311 485 356 471.5 Q401 458 439 432 L378 337 Q355 352 325.5 364 Q296 376 259 376 Q226 376 211 366.5 Q196 357 196 341 Q196 318 227 307 Q258 296 311 282 Q383 262 415.5 227 Q448 192 448 134 Q448 95 430.5 67 Q413 39 383.5 20.5 Q354 2 316.5 -7 Q279 -16 240 -16 Q177 -16 121 1 Q65 18 30 53 L101 145 Z M184 -51 L327 -51 L242 -193 L136 -193 L184 -51 Z " />
<glyph glyph-name="uni021A" unicode="&#x21a;" horiz-adv-x="625" d="M237 534 L21 534 L21 667 L604 667 L604 534 L389 534 L389 0 L237 0 L237 534 Z M235 -51 L391 -51 L297 -209 L182 -209 L235 -51 Z " />
<glyph glyph-name="uni021B" unicode="&#x21b;" horiz-adv-x="418" d="M88 356 L14 356 L14 469 L88 469 L88 611 L232 611 L232 469 L353 469 L353 356 L232 356 L232 171 Q232 137 245.5 118.5 Q259 100 288 100 Q310 100 326 107.5 Q342 115 356 125 L414 37 Q346 -17 266 -17 Q216 -17 182 -2.5 Q148 12 127 37.5 Q106 63 97 99 Q88 135 88 179 L88 356 Z M173 -51 L316 -51 L231 -193 L125 -193 L173 -51 Z " />
<glyph glyph-name="dotlessj" unicode="&#x237;" horiz-adv-x="265" d="M-54 -66 Q-43 -73 -28.5 -78.5 Q-14 -84 3 -84 Q37 -84 50.5 -63 Q64 -42 64 -4 L64 469 L207 469 L207 18 Q207 -26 200 -66.5 Q193 -107 173 -138 Q153 -169 118 -187.5 Q83 -206 27 -206 Q-16 -206 -50 -193.5 Q-84 -181 -107 -163 L-54 -66 Z " />
<glyph glyph-name="apostrophe" unicode="&#x2bc;" horiz-adv-x="113" d="M12 682 L140 682 L99 533 L5 533 L12 682 Z " />
<glyph glyph-name="caron" unicode="&#x2c7;" horiz-adv-x="444" d="M56 682 L174 682 L223 615 L270 682 L389 682 L283 540 L161 540 L56 682 Z " />
<glyph glyph-name="uni02C9" unicode="&#x2c9;" horiz-adv-x="393" d="M60 654 L333 654 L333 552 L60 552 L60 654 Z " />
<glyph glyph-name="breve" unicode="&#x2d8;" horiz-adv-x="450" d="M180 682 Q181 660 192.5 643 Q204 626 232 626 Q261 626 272.5 643 Q284 660 284 682 L388 682 Q388 651 377 625 Q366 599 345.5 580 Q325 561 296 550.5 Q267 540 232 540 Q197 540 168 550.5 Q139 561 119 580 Q99 599 87.5 625 Q76 651 76 682 L180 682 Z " />
<glyph glyph-name="dotaccent" unicode="&#x2d9;" horiz-adv-x="349" d="M109 672 L240 672 L240 550 L109 550 L109 672 Z " />
<glyph glyph-name="ring" unicode="&#x2da;" horiz-adv-x="377" d="M68 645 Q68 670 77.5 691.5 Q87 713 103.5 728.5 Q120 744 142 752.5 Q164 761 188 761 Q213 761 235 752.5 Q257 744 273.5 728.5 Q290 713 299.5 691.5 Q309 670 309 645 Q309 620 299.5 599 Q290 578 273.5 562.5 Q257 547 235 538 Q213 529 189 529 Q164 529 142 538 Q120 547 103.5 562.5 Q87 578 77.5 599 Q68 620 68 645 Z M188 604 Q205 604 217 616 Q229 628 229 645 Q229 662 217.5 674 Q206 686 189 686 Q172 686 160 674 Q148 662 148 645 Q148 628 159.5 616 Q171 604 188 604 Z " />
<glyph glyph-name="ogonek" unicode="&#x2db;" horiz-adv-x="369" d="M243 0 Q235 -8 226.5 -18 Q218 -28 210 -38.5 Q202 -49 197 -59.5 Q192 -70 192 -78 Q192 -99 217 -99 Q231 -99 244 -94.5 Q257 -90 269 -82 L299 -160 Q274 -177 244 -186 Q214 -195 186 -195 Q141 -195 114 -175 Q87 -155 87 -115 Q87 -83 106 -54 Q125 -25 148 0 L243 0 Z " />
<glyph glyph-name="hungarumlaut" unicode="&#x2dd;" horiz-adv-x="442" d="M265 682 L396 682 L315 540 L218 540 L265 682 Z M93 682 L224 682 L144 540 L46 540 L93 682 Z " />
<glyph glyph-name="uni20B9" unicode="&#x20b9;" horiz-adv-x="545" d="M68 364 L68 462 L279 462 Q255 531 157 531 L68 531 L68 630 L501 630 L468 531 L376 531 Q401 504 412 462 L501 462 L468 364 L415 364 Q411 337 400.5 311.5 Q390 286 372 264.5 Q354 243 328.5 226.5 Q303 210 268 201 L491 0 L302 0 L69 210 L69 293 L156 293 Q257 293 279 364 L68 364 Z " />
<glyph glyph-name="Wgrave" unicode="&#x1e80;" horiz-adv-x="905" d="M10 667 L172 667 L270 184 L387 649 L524 649 L642 184 L739 667 L895 667 L725 0 L566 0 L452 436 L336 0 L177 0 L10 667 Z M271 873 L434 873 L507 717 L390 717 L271 873 Z " />
<glyph glyph-name="wgrave" unicode="&#x1e81;" horiz-adv-x="769" d="M7 469 L155 469 L237 168 L328 469 L443 469 L535 168 L617 469 L762 469 L601 0 L471 0 L383 262 L296 0 L168 0 L7 469 Z M252 682 L395 682 L443 540 L337 540 L252 682 Z " />
<glyph glyph-name="Wacute" unicode="&#x1e82;" horiz-adv-x="905" d="M10 667 L172 667 L270 184 L387 649 L524 649 L642 184 L739 667 L895 667 L725 0 L566 0 L452 436 L336 0 L177 0 L10 667 Z M473 873 L636 873 L517 717 L400 717 L473 873 Z " />
<glyph glyph-name="wacute" unicode="&#x1e83;" horiz-adv-x="769" d="M7 469 L155 469 L237 168 L328 469 L443 469 L535 168 L617 469 L762 469 L601 0 L471 0 L383 262 L296 0 L168 0 L7 469 Z M379 682 L521 682 L437 540 L331 540 L379 682 Z " />
<glyph glyph-name="Wdieresis" unicode="&#x1e84;" horiz-adv-x="905" d="M10 667 L172 667 L270 184 L387 649 L524 649 L642 184 L739 667 L895 667 L725 0 L566 0 L452 436 L336 0 L177 0 L10 667 Z M497 856 L629 856 L629 734 L497 734 L497 856 Z M278 856 L410 856 L410 734 L278 734 L278 856 Z " />
<glyph glyph-name="wdieresis" unicode="&#x1e85;" horiz-adv-x="769" d="M7 469 L155 469 L237 168 L328 469 L443 469 L535 168 L617 469 L762 469 L601 0 L471 0 L383 262 L296 0 L168 0 L7 469 Z M419 668 L542 668 L542 554 L419 554 L419 668 Z M226 668 L349 668 L349 554 L226 554 L226 668 Z " />
<glyph glyph-name="Ygrave" unicode="&#x1ef2;" horiz-adv-x="636" d="M241 279 L7 667 L178 667 L323 415 L464 667 L628 667 L394 280 L394 0 L241 0 L241 279 Z M151 873 L314 873 L387 717 L270 717 L151 873 Z " />
<glyph glyph-name="ygrave" unicode="&#x1ef3;" horiz-adv-x="550" d="M79 -74 Q91 -83 105.5 -90 Q120 -97 137 -97 Q160 -97 175.5 -82.5 Q191 -68 205 -33 L219 5 L5 469 L169 469 L286 173 L392 469 L545 469 L353 3 Q337 -36 321.5 -74.5 Q306 -113 283.5 -143.5 Q261 -174 228.5 -193 Q196 -212 147 -212 Q109 -212 78 -202 Q47 -192 21 -173 L79 -74 Z M151 682 L294 682 L342 540 L236 540 L151 682 Z " />
<glyph glyph-name="fraction" unicode="&#x2044;" horiz-adv-x="195" d="M237 630 L362 630 L-38 0 L-165 0 L237 630 Z " />
<glyph glyph-name="zerosuperior" unicode="&#x2070;" horiz-adv-x="360" d="M179 284 Q103 284 60.5 332.5 Q18 381 18 466 Q18 551 60.5 598.5 Q103 646 179 646 Q255 646 297.5 598.5 Q340 551 340 466 Q340 381 297.5 332.5 Q255 284 179 284 Z M179 371 Q205 371 218.5 397.5 Q232 424 232 466 Q232 507 218.5 533.5 Q205 560 179 560 Q153 560 139.5 533.5 Q126 507 126 466 Q126 424 139.5 397.5 Q153 371 179 371 Z " />
<glyph glyph-name="onesuperior" unicode="&#xb9;" horiz-adv-x="360" d="M165 528 L93 492 L53 571 L177 637 L274 637 L274 294 L165 294 L165 528 Z " />
<glyph glyph-name="twosuperior" unicode="&#xb2;" horiz-adv-x="360" d="M44 348 Q44 373 56 392.5 Q68 412 86 428 Q104 444 125 457.5 Q146 471 164 483.5 Q182 496 194 507.5 Q206 519 206 531 Q206 545 196.5 551.5 Q187 558 171 558 Q151 558 127.5 549 Q104 540 83 526 L37 598 Q68 619 103.5 632.5 Q139 646 181 646 Q243 646 279.5 618 Q316 590 316 540 Q316 505 301 483 Q286 461 263.5 444.5 Q241 428 216 414 Q191 400 170 381 L318 381 L318 294 L44 294 L44 348 Z " />
<glyph glyph-name="threesuperior" unicode="&#xb3;" horiz-adv-x="360" d="M71 402 Q91 388 114 379.5 Q137 371 161 371 Q182 371 196 379.5 Q210 388 210 406 Q210 428 193 435 Q176 442 155 442 Q143 442 129.5 440 Q116 438 105 435 L84 478 L193 553 L55 553 L55 637 L302 637 L302 561 L228 502 Q276 494 296 465.5 Q316 437 316 398 Q316 371 303.5 349.5 Q291 328 270 313.5 Q249 299 221 291.5 Q193 284 162 284 Q122 284 86.5 295.5 Q51 307 22 327 L71 402 Z " />
<glyph glyph-name="foursuperior" unicode="&#x2074;" horiz-adv-x="360" d="M27 432 L187 637 L298 637 L298 427 L337 427 L337 353 L298 353 L298 294 L200 294 L200 353 L27 353 L27 432 Z M200 427 L200 548 L109 427 L200 427 Z " />
<glyph glyph-name="fivesuperior" unicode="&#x2075;" horiz-adv-x="360" d="M71 400 Q91 386 113.5 377.5 Q136 369 160 369 Q168 369 177.5 370.5 Q187 372 195 375.5 Q203 379 208.5 386 Q214 393 214 405 Q214 424 195.5 432 Q177 440 158 440 Q145 440 130 437 Q115 434 101 428 L53 466 L92 637 L299 637 L299 553 L166 553 L156 508 Q164 510 173.5 511 Q183 512 192 512 Q216 512 239 506 Q262 500 279.5 487 Q297 474 307.5 454 Q318 434 318 406 Q318 377 305.5 354.5 Q293 332 272 316 Q251 300 223 291.5 Q195 283 164 283 Q126 283 88.5 294 Q51 305 22 325 L71 400 Z " />
<glyph glyph-name="sixsuperior" unicode="&#x2076;" horiz-adv-x="360" d="M273 545 Q263 550 247.5 555 Q232 560 212 560 Q180 560 160 542.5 Q140 525 135 499 Q147 505 166 510 Q185 515 208 515 Q262 515 296 486.5 Q330 458 330 405 Q330 381 320 359 Q310 337 291 320.5 Q272 304 245 294 Q218 284 184 284 Q155 284 127.5 293.5 Q100 303 78 323.5 Q56 344 43 376 Q30 408 30 452 Q30 496 43.5 532 Q57 568 81 593.5 Q105 619 138 632.5 Q171 646 210 646 Q240 646 264.5 639 Q289 632 308 623 L273 545 Z M134 425 Q135 397 147.5 381 Q160 365 183 365 Q204 365 218.5 375 Q233 385 233 404 Q233 421 220.5 430.5 Q208 440 187 440 Q173 440 158.5 435.5 Q144 431 134 425 Z " />
<glyph glyph-name="sevensuperior" unicode="&#x2077;" horiz-adv-x="360" d="M72 294 Q84 329 100.5 364.5 Q117 400 135 433.5 Q153 467 170.5 497 Q188 527 203 551 L42 551 L42 637 L315 637 L315 555 Q300 532 282 500.5 Q264 469 246 434.5 Q228 400 212.5 363.5 Q197 327 187 294 L72 294 Z " />
<glyph glyph-name="eightsuperior" unicode="&#x2078;" horiz-adv-x="360" d="M85 475 Q41 502 41 547 Q41 573 53.5 591.5 Q66 610 85.5 622 Q105 634 129.5 640 Q154 646 178 646 Q202 646 227 640.5 Q252 635 271.5 623 Q291 611 303.5 592 Q316 573 316 547 Q316 524 304 505.5 Q292 487 272 475 Q297 464 314 443 Q331 422 331 393 Q331 364 317.5 343 Q304 322 282 309 Q260 296 232.5 290 Q205 284 178 284 Q151 284 124 290 Q97 296 75 309 Q53 322 39.5 343 Q26 364 26 393 Q26 422 43.5 442.5 Q61 463 85 475 Z M176 505 Q191 510 205 518 Q219 526 219 543 Q219 559 206 566.5 Q193 574 178 574 Q163 574 150 566.5 Q137 559 137 543 Q137 526 149.5 518 Q162 510 176 505 Z M180 442 Q163 437 147.5 425 Q132 413 132 395 Q132 378 146.5 370 Q161 362 178 362 Q195 362 209.5 370 Q224 378 224 395 Q224 413 209.5 425 Q195 437 180 442 Z " />
<glyph glyph-name="ninesuperior" unicode="&#x2079;" horiz-adv-x="360" d="M81 386 Q92 380 110 375.5 Q128 371 148 371 Q185 371 202.5 388 Q220 405 223 434 Q212 427 193.5 422 Q175 417 153 417 Q97 417 62.5 445.5 Q28 474 28 526 Q28 550 38 572 Q48 594 67 610.5 Q86 627 113 636.5 Q140 646 174 646 Q203 646 230.5 636.5 Q258 627 280 607 Q302 587 315 555.5 Q328 524 328 480 Q328 392 282 338 Q236 284 144 284 Q112 284 86.5 292 Q61 300 47 308 L81 386 Z M224 505 Q223 534 210.5 550 Q198 566 175 566 Q153 566 139.5 556 Q126 546 126 527 Q126 510 138.5 500.5 Q151 491 171 491 Q186 491 200.5 495.5 Q215 500 224 505 Z " />
<glyph glyph-name="zeroinferior" unicode="&#x2080;" horiz-adv-x="360" d="M179 -9 Q103 -9 60.5 39.5 Q18 88 18 173 Q18 258 60.5 305.5 Q103 353 179 353 Q255 353 297.5 305.5 Q340 258 340 173 Q340 88 297.5 39.5 Q255 -9 179 -9 Z M179 78 Q205 78 218.5 104.5 Q232 131 232 173 Q232 214 218.5 240.5 Q205 267 179 267 Q153 267 139.5 240.5 Q126 214 126 173 Q126 131 139.5 104.5 Q153 78 179 78 Z " />
<glyph glyph-name="oneinferior" unicode="&#x2081;" horiz-adv-x="360" d="M165 235 L93 199 L53 278 L177 344 L274 344 L274 1 L165 1 L165 235 Z " />
<glyph glyph-name="twoinferior" unicode="&#x2082;" horiz-adv-x="360" d="M44 55 Q44 80 56 99.5 Q68 119 86 135 Q104 151 125 164.5 Q146 178 164 190.5 Q182 203 194 214.5 Q206 226 206 238 Q206 252 196.5 258.5 Q187 265 171 265 Q151 265 127.5 256 Q104 247 83 233 L37 305 Q68 326 103.5 339.5 Q139 353 181 353 Q243 353 279.5 325 Q316 297 316 247 Q316 212 301 190 Q286 168 263.5 151.5 Q241 135 216 121 Q191 107 170 88 L318 88 L318 1 L44 1 L44 55 Z " />
<glyph glyph-name="threeinferior" unicode="&#x2083;" horiz-adv-x="360" d="M71 109 Q91 95 114 86.5 Q137 78 161 78 Q182 78 196 86.5 Q210 95 210 113 Q210 135 193 142 Q176 149 155 149 Q143 149 129.5 147 Q116 145 105 142 L84 185 L193 260 L55 260 L55 344 L302 344 L302 268 L228 209 Q276 201 296 172.5 Q316 144 316 105 Q316 78 303.5 56.5 Q291 35 270 20.5 Q249 6 221 -1.5 Q193 -9 162 -9 Q122 -9 86.5 2.5 Q51 14 22 34 L71 109 Z " />
<glyph glyph-name="fourinferior" unicode="&#x2084;" horiz-adv-x="360" d="M27 139 L187 344 L298 344 L298 134 L337 134 L337 60 L298 60 L298 1 L200 1 L200 60 L27 60 L27 139 Z M200 134 L200 255 L109 134 L200 134 Z " />
<glyph glyph-name="fiveinferior" unicode="&#x2085;" horiz-adv-x="360" d="M71 107 Q91 93 113.5 84.5 Q136 76 160 76 Q168 76 177.5 77.5 Q187 79 195 82.5 Q203 86 208.5 93 Q214 100 214 112 Q214 131 195.5 139 Q177 147 158 147 Q145 147 130 144 Q115 141 101 135 L53 173 L92 344 L299 344 L299 260 L166 260 L156 215 Q164 217 173.5 218 Q183 219 192 219 Q216 219 239 213 Q262 207 279.5 194 Q297 181 307.5 161 Q318 141 318 113 Q318 84 305.5 61.5 Q293 39 272 23 Q251 7 223 -1.5 Q195 -10 164 -10 Q126 -10 88.5 1 Q51 12 22 32 L71 107 Z " />
<glyph glyph-name="sixinferior" unicode="&#x2086;" horiz-adv-x="360" d="M273 252 Q263 257 247.5 262 Q232 267 212 267 Q180 267 160 249.5 Q140 232 135 206 Q147 212 166 217 Q185 222 208 222 Q262 222 296 193.5 Q330 165 330 112 Q330 88 320 66 Q310 44 291 27.5 Q272 11 245 1 Q218 -9 184 -9 Q155 -9 127.5 0.5 Q100 10 78 30.5 Q56 51 43 83 Q30 115 30 159 Q30 203 43.5 239 Q57 275 81 300.5 Q105 326 138 339.5 Q171 353 210 353 Q240 353 264.5 346 Q289 339 308 330 L273 252 Z M134 132 Q135 104 147.5 88 Q160 72 183 72 Q204 72 218.5 82 Q233 92 233 111 Q233 128 220.5 137.5 Q208 147 187 147 Q173 147 158.5 142.5 Q144 138 134 132 Z " />
<glyph glyph-name="seveninferior" unicode="&#x2087;" horiz-adv-x="360" d="M72 1 Q84 36 100.5 71.5 Q117 107 135 140.5 Q153 174 170.5 204 Q188 234 203 258 L42 258 L42 344 L315 344 L315 262 Q300 239 282 207.5 Q264 176 246 141.5 Q228 107 212.5 70.5 Q197 34 187 1 L72 1 Z " />
<glyph glyph-name="eightinferior" unicode="&#x2088;" horiz-adv-x="360" d="M85 182 Q41 209 41 254 Q41 280 53.5 298.5 Q66 317 85.5 329 Q105 341 129.5 347 Q154 353 178 353 Q202 353 227 347.5 Q252 342 271.5 330 Q291 318 303.5 299 Q316 280 316 254 Q316 231 304 212.5 Q292 194 272 182 Q297 171 314 150 Q331 129 331 100 Q331 71 317.5 50 Q304 29 282 16 Q260 3 232.5 -3 Q205 -9 178 -9 Q151 -9 124 -3 Q97 3 75 16 Q53 29 39.5 50 Q26 71 26 100 Q26 129 43.5 149.5 Q61 170 85 182 Z M176 212 Q191 217 205 225 Q219 233 219 250 Q219 266 206 273.5 Q193 281 178 281 Q163 281 150 273.5 Q137 266 137 250 Q137 233 149.5 225 Q162 217 176 212 Z M180 149 Q163 144 147.5 132 Q132 120 132 102 Q132 85 146.5 77 Q161 69 178 69 Q195 69 209.5 77 Q224 85 224 102 Q224 120 209.5 132 Q195 144 180 149 Z " />
<glyph glyph-name="nineinferior" unicode="&#x2089;" horiz-adv-x="360" d="M81 93 Q92 87 110 82.5 Q128 78 148 78 Q185 78 202.5 95 Q220 112 223 141 Q212 134 193.5 129 Q175 124 153 124 Q97 124 62.5 152.5 Q28 181 28 233 Q28 257 38 279 Q48 301 67 317.5 Q86 334 113 343.5 Q140 353 174 353 Q203 353 230.5 343.5 Q258 334 280 314 Q302 294 315 262.5 Q328 231 328 187 Q328 99 282 45 Q236 -9 144 -9 Q112 -9 86.5 -1 Q61 7 47 15 L81 93 Z M224 212 Q223 241 210.5 257 Q198 273 175 273 Q153 273 139.5 263 Q126 253 126 234 Q126 217 138.5 207.5 Q151 198 171 198 Q186 198 200.5 202.5 Q215 207 224 212 Z " />
<glyph glyph-name="afii61289" unicode="&#x2113;" horiz-adv-x="469" d="M129 437 Q129 508 138.5 556.5 Q148 605 166.5 634.5 Q185 664 211.5 677 Q238 690 273 690 Q324 690 357 652.5 Q390 615 390 546 Q390 455 342 373.5 Q294 292 206 210 L206 190 Q206 149 212 123.5 Q218 98 228.5 84 Q239 70 253.5 64.5 Q268 59 285 59 Q317 59 346.5 75.5 Q376 92 392 115 L432 77 Q405 37 366.5 14 Q328 -9 276 -9 Q206 -9 168 30.5 Q130 70 130 158 Q117 148 105.5 140 Q94 132 81 123 Q76 134 69.5 145 Q63 156 56 167 Q75 180 93 194.5 Q111 209 129 225 L129 437 Z M206 289 Q260 349 291.5 412.5 Q323 476 323 545 Q323 593 307 612.5 Q291 632 269 632 Q243 632 224.5 599 Q206 566 206 490 L206 289 Z " />
<glyph glyph-name="estimated" unicode="&#x212e;" horiz-adv-x="890" d="M193 138 Q193 125 202 116 Q250 65 312 37 Q374 9 447 9 Q526 9 592 41.5 Q658 74 706 128 L763 128 Q737 96 702.5 70.5 Q668 45 627 27 Q586 9 540 -1 Q494 -11 446 -11 Q363 -11 290 17.5 Q217 46 163 94.5 Q109 143 77.5 208.5 Q46 274 46 349 Q46 424 77.5 489.5 Q109 555 163 604 Q217 653 290 681.5 Q363 710 446 710 Q529 710 602.5 681.5 Q676 653 730.5 604 Q785 555 816.5 489.5 Q848 424 848 349 L848 339 L198 339 Q193 339 193 335 L193 138 Z M696 358 Q700 358 700 365 L700 562 Q700 575 691 586 Q643 634 581 661 Q519 688 447 688 Q376 688 313 659 Q250 630 203 582 Q198 578 195.5 571.5 Q193 565 193 558 L193 365 Q193 358 198 358 L696 358 Z " />
<glyph glyph-name="onethird" unicode="&#x2153;" horiz-adv-x="925" d="M165 528 L93 492 L53 571 L177 637 L274 637 L274 294 L165 294 L165 528 Z M578 630 L703 630 L303 0 L176 0 L578 630 Z M609 109 Q629 95 652 86.5 Q675 78 699 78 Q720 78 734 86.5 Q748 95 748 113 Q748 135 731 142 Q714 149 693 149 Q681 149 667.5 147 Q654 145 643 142 L622 185 L731 260 L593 260 L593 344 L840 344 L840 268 L766 209 Q814 201 834 172.5 Q854 144 854 105 Q854 78 841.5 56.5 Q829 35 808 20.5 Q787 6 759 -1.5 Q731 -9 700 -9 Q660 -9 624.5 2.5 Q589 14 560 34 L609 109 Z " />
<glyph glyph-name="twothirds" unicode="&#x2154;" horiz-adv-x="925" d="M56 348 Q56 373 68 392.5 Q80 412 98 428 Q116 444 137 457.5 Q158 471 176 483.5 Q194 496 206 507.5 Q218 519 218 531 Q218 545 208.5 551.5 Q199 558 183 558 Q163 558 139.5 549 Q116 540 95 526 L49 598 Q80 619 115.5 632.5 Q151 646 193 646 Q255 646 291.5 618 Q328 590 328 540 Q328 505 313 483 Q298 461 275.5 444.5 Q253 428 228 414 Q203 400 182 381 L330 381 L330 294 L56 294 L56 348 Z M609 630 L734 630 L334 0 L207 0 L609 630 Z M634 109 Q654 95 677 86.5 Q700 78 724 78 Q745 78 759 86.5 Q773 95 773 113 Q773 135 756 142 Q739 149 718 149 Q706 149 692.5 147 Q679 145 668 142 L647 185 L756 260 L618 260 L618 344 L865 344 L865 268 L791 209 Q839 201 859 172.5 Q879 144 879 105 Q879 78 866.5 56.5 Q854 35 833 20.5 Q812 6 784 -1.5 Q756 -9 725 -9 Q685 -9 649.5 2.5 Q614 14 585 34 L634 109 Z " />
<glyph glyph-name="oneeighth" unicode="&#x215b;" horiz-adv-x="925" d="M160 528 L88 492 L48 571 L172 637 L269 637 L269 294 L160 294 L160 528 Z M573 630 L698 630 L298 0 L171 0 L573 630 Z M616 182 Q572 209 572 254 Q572 280 584.5 298.5 Q597 317 616.5 329 Q636 341 660.5 347 Q685 353 709 353 Q733 353 758 347.5 Q783 342 802.5 330 Q822 318 834.5 299 Q847 280 847 254 Q847 231 835 212.5 Q823 194 803 182 Q828 171 845 150 Q862 129 862 100 Q862 71 848.5 50 Q835 29 813 16 Q791 3 763.5 -3 Q736 -9 709 -9 Q682 -9 655 -3 Q628 3 606 16 Q584 29 570.5 50 Q557 71 557 100 Q557 129 574.5 149.5 Q592 170 616 182 Z M707 212 Q722 217 736 225 Q750 233 750 250 Q750 266 737 273.5 Q724 281 709 281 Q694 281 681 273.5 Q668 266 668 250 Q668 233 680.5 225 Q693 217 707 212 Z M711 149 Q694 144 678.5 132 Q663 120 663 102 Q663 85 677.5 77 Q692 69 709 69 Q726 69 740.5 77 Q755 85 755 102 Q755 120 740.5 132 Q726 144 711 149 Z " />
<glyph glyph-name="threeeighths" unicode="&#x215c;" horiz-adv-x="925" d="M91 402 Q111 388 134 379.5 Q157 371 181 371 Q202 371 216 379.5 Q230 388 230 406 Q230 428 213 435 Q196 442 175 442 Q163 442 149.5 440 Q136 438 125 435 L104 478 L213 553 L75 553 L75 637 L322 637 L322 561 L248 502 Q296 494 316 465.5 Q336 437 336 398 Q336 371 323.5 349.5 Q311 328 290 313.5 Q269 299 241 291.5 Q213 284 182 284 Q142 284 106.5 295.5 Q71 307 42 327 L91 402 Z M598 630 L723 630 L323 0 L196 0 L598 630 Z M639 182 Q595 209 595 254 Q595 280 607.5 298.5 Q620 317 639.5 329 Q659 341 683.5 347 Q708 353 732 353 Q756 353 781 347.5 Q806 342 825.5 330 Q845 318 857.5 299 Q870 280 870 254 Q870 231 858 212.5 Q846 194 826 182 Q851 171 868 150 Q885 129 885 100 Q885 71 871.5 50 Q858 29 836 16 Q814 3 786.5 -3 Q759 -9 732 -9 Q705 -9 678 -3 Q651 3 629 16 Q607 29 593.5 50 Q580 71 580 100 Q580 129 597.5 149.5 Q615 170 639 182 Z M730 212 Q745 217 759 225 Q773 233 773 250 Q773 266 760 273.5 Q747 281 732 281 Q717 281 704 273.5 Q691 266 691 250 Q691 233 703.5 225 Q716 217 730 212 Z M734 149 Q717 144 701.5 132 Q686 120 686 102 Q686 85 700.5 77 Q715 69 732 69 Q749 69 763.5 77 Q778 85 778 102 Q778 120 763.5 132 Q749 144 734 149 Z " />
<glyph glyph-name="fiveeighths" unicode="&#x215d;" horiz-adv-x="925" d="M94 400 Q114 386 136.5 377.5 Q159 369 183 369 Q191 369 200.5 370.5 Q210 372 218 375.5 Q226 379 231.5 386 Q237 393 237 405 Q237 424 218.5 432 Q200 440 181 440 Q168 440 153 437 Q138 434 124 428 L76 466 L115 637 L322 637 L322 553 L189 553 L179 508 Q187 510 196.5 511 Q206 512 215 512 Q239 512 262 506 Q285 500 302.5 487 Q320 474 330.5 454 Q341 434 341 406 Q341 377 328.5 354.5 Q316 332 295 316 Q274 300 246 291.5 Q218 283 187 283 Q149 283 111.5 294 Q74 305 45 325 L94 400 Z M600 630 L725 630 L325 0 L198 0 L600 630 Z M638 182 Q594 209 594 254 Q594 280 606.5 298.5 Q619 317 638.5 329 Q658 341 682.5 347 Q707 353 731 353 Q755 353 780 347.5 Q805 342 824.5 330 Q844 318 856.5 299 Q869 280 869 254 Q869 231 857 212.5 Q845 194 825 182 Q850 171 867 150 Q884 129 884 100 Q884 71 870.5 50 Q857 29 835 16 Q813 3 785.5 -3 Q758 -9 731 -9 Q704 -9 677 -3 Q650 3 628 16 Q606 29 592.5 50 Q579 71 579 100 Q579 129 596.5 149.5 Q614 170 638 182 Z M729 212 Q744 217 758 225 Q772 233 772 250 Q772 266 759 273.5 Q746 281 731 281 Q716 281 703 273.5 Q690 266 690 250 Q690 233 702.5 225 Q715 217 729 212 Z M733 149 Q716 144 700.5 132 Q685 120 685 102 Q685 85 699.5 77 Q714 69 731 69 Q748 69 762.5 77 Q777 85 777 102 Q777 120 762.5 132 Q748 144 733 149 Z " />
<glyph glyph-name="seveneighths" unicode="&#x215e;" horiz-adv-x="925" d="M101 294 Q113 329 129.5 364.5 Q146 400 164 433.5 Q182 467 199.5 497 Q217 527 232 551 L71 551 L71 637 L344 637 L344 555 Q329 532 311 500.5 Q293 469 275 434.5 Q257 400 241.5 363.5 Q226 327 216 294 L101 294 Z M570 630 L695 630 L295 0 L168 0 L570 630 Z M614 182 Q570 209 570 254 Q570 280 582.5 298.5 Q595 317 614.5 329 Q634 341 658.5 347 Q683 353 707 353 Q731 353 756 347.5 Q781 342 800.5 330 Q820 318 832.5 299 Q845 280 845 254 Q845 231 833 212.5 Q821 194 801 182 Q826 171 843 150 Q860 129 860 100 Q860 71 846.5 50 Q833 29 811 16 Q789 3 761.5 -3 Q734 -9 707 -9 Q680 -9 653 -3 Q626 3 604 16 Q582 29 568.5 50 Q555 71 555 100 Q555 129 572.5 149.5 Q590 170 614 182 Z M705 212 Q720 217 734 225 Q748 233 748 250 Q748 266 735 273.5 Q722 281 707 281 Q692 281 679 273.5 Q666 266 666 250 Q666 233 678.5 225 Q691 217 705 212 Z M709 149 Q692 144 676.5 132 Q661 120 661 102 Q661 85 675.5 77 Q690 69 707 69 Q724 69 738.5 77 Q753 85 753 102 Q753 120 738.5 132 Q724 144 709 149 Z " />
<glyph glyph-name="onefifth" unicode="&#x2155;" horiz-adv-x="925" d="M165 528 L93 492 L53 571 L177 637 L274 637 L274 294 L165 294 L165 528 Z M581 630 L706 630 L306 0 L179 0 L581 630 Z M605 107 Q625 93 647.5 84.5 Q670 76 694 76 Q702 76 711.5 77.5 Q721 79 729 82.5 Q737 86 742.5 93 Q748 100 748 112 Q748 131 729.5 139 Q711 147 692 147 Q679 147 664 144 Q649 141 635 135 L587 173 L626 344 L833 344 L833 260 L700 260 L690 215 Q698 217 707.5 218 Q717 219 726 219 Q750 219 773 213 Q796 207 813.5 194 Q831 181 841.5 161 Q852 141 852 113 Q852 84 839.5 61.5 Q827 39 806 23 Q785 7 757 -1.5 Q729 -10 698 -10 Q660 -10 622.5 1 Q585 12 556 32 L605 107 Z " />
<glyph glyph-name="twofifths" unicode="&#x2156;" horiz-adv-x="925" d="M60 348 Q60 373 72 392.5 Q84 412 102 428 Q120 444 141 457.5 Q162 471 180 483.5 Q198 496 210 507.5 Q222 519 222 531 Q222 545 212.5 551.5 Q203 558 187 558 Q167 558 143.5 549 Q120 540 99 526 L53 598 Q84 619 119.5 632.5 Q155 646 197 646 Q259 646 295.5 618 Q332 590 332 540 Q332 505 317 483 Q302 461 279.5 444.5 Q257 428 232 414 Q207 400 186 381 L334 381 L334 294 L60 294 L60 348 Z M613 630 L738 630 L338 0 L211 0 L613 630 Z M627 107 Q647 93 669.5 84.5 Q692 76 716 76 Q724 76 733.5 77.5 Q743 79 751 82.5 Q759 86 764.5 93 Q770 100 770 112 Q770 131 751.5 139 Q733 147 714 147 Q701 147 686 144 Q671 141 657 135 L609 173 L648 344 L855 344 L855 260 L722 260 L712 215 Q720 217 729.5 218 Q739 219 748 219 Q772 219 795 213 Q818 207 835.5 194 Q853 181 863.5 161 Q874 141 874 113 Q874 84 861.5 61.5 Q849 39 828 23 Q807 7 779 -1.5 Q751 -10 720 -10 Q682 -10 644.5 1 Q607 12 578 32 L627 107 Z " />
<glyph glyph-name="threefifths" unicode="&#x2157;" horiz-adv-x="925" d="M103 402 Q123 388 146 379.5 Q169 371 193 371 Q214 371 228 379.5 Q242 388 242 406 Q242 428 225 435 Q208 442 187 442 Q175 442 161.5 440 Q148 438 137 435 L116 478 L225 553 L87 553 L87 637 L334 637 L334 561 L260 502 Q308 494 328 465.5 Q348 437 348 398 Q348 371 335.5 349.5 Q323 328 302 313.5 Q281 299 253 291.5 Q225 284 194 284 Q154 284 118.5 295.5 Q83 307 54 327 L103 402 Z M607 630 L732 630 L332 0 L205 0 L607 630 Z M621 107 Q641 93 663.5 84.5 Q686 76 710 76 Q718 76 727.5 77.5 Q737 79 745 82.5 Q753 86 758.5 93 Q764 100 764 112 Q764 131 745.5 139 Q727 147 708 147 Q695 147 680 144 Q665 141 651 135 L603 173 L642 344 L849 344 L849 260 L716 260 L706 215 Q714 217 723.5 218 Q733 219 742 219 Q766 219 789 213 Q812 207 829.5 194 Q847 181 857.5 161 Q868 141 868 113 Q868 84 855.5 61.5 Q843 39 822 23 Q801 7 773 -1.5 Q745 -10 714 -10 Q676 -10 638.5 1 Q601 12 572 32 L621 107 Z " />
<glyph glyph-name="fourfifths" unicode="&#x2158;" horiz-adv-x="925" d="M41 432 L201 637 L312 637 L312 427 L351 427 L351 353 L312 353 L312 294 L214 294 L214 353 L41 353 L41 432 Z M214 427 L214 548 L123 427 L214 427 Z M612 630 L737 630 L337 0 L210 0 L612 630 Z M628 107 Q648 93 670.5 84.5 Q693 76 717 76 Q725 76 734.5 77.5 Q744 79 752 82.5 Q760 86 765.5 93 Q771 100 771 112 Q771 131 752.5 139 Q734 147 715 147 Q702 147 687 144 Q672 141 658 135 L610 173 L649 344 L856 344 L856 260 L723 260 L713 215 Q721 217 730.5 218 Q740 219 749 219 Q773 219 796 213 Q819 207 836.5 194 Q854 181 864.5 161 Q875 141 875 113 Q875 84 862.5 61.5 Q850 39 829 23 Q808 7 780 -1.5 Q752 -10 721 -10 Q683 -10 645.5 1 Q608 12 579 32 L628 107 Z " />
<glyph glyph-name="onesixth" unicode="&#x2159;" horiz-adv-x="925" d="M168 528 L96 492 L56 571 L180 637 L277 637 L277 294 L168 294 L168 528 Z M586 630 L711 630 L311 0 L184 0 L586 630 Z M800 252 Q790 257 774.5 262 Q759 267 739 267 Q707 267 687 249.5 Q667 232 662 206 Q674 212 693 217 Q712 222 735 222 Q789 222 823 193.5 Q857 165 857 112 Q857 88 847 66 Q837 44 818 27.5 Q799 11 772 1 Q745 -9 711 -9 Q682 -9 654.5 0.5 Q627 10 605 30.5 Q583 51 570 83 Q557 115 557 159 Q557 203 570.5 239 Q584 275 608 300.5 Q632 326 665 339.5 Q698 353 737 353 Q767 353 791.5 346 Q816 339 835 330 L800 252 Z M661 132 Q662 104 674.5 88 Q687 72 710 72 Q731 72 745.5 82 Q760 92 760 111 Q760 128 747.5 137.5 Q735 147 714 147 Q700 147 685.5 142.5 Q671 138 661 132 Z " />
<glyph glyph-name="fivesixths" unicode="&#x215a;" horiz-adv-x="925" d="M103 400 Q123 386 145.5 377.5 Q168 369 192 369 Q200 369 209.5 370.5 Q219 372 227 375.5 Q235 379 240.5 386 Q246 393 246 405 Q246 424 227.5 432 Q209 440 190 440 Q177 440 162 437 Q147 434 133 428 L85 466 L124 637 L331 637 L331 553 L198 553 L188 508 Q196 510 205.5 511 Q215 512 224 512 Q248 512 271 506 Q294 500 311.5 487 Q329 474 339.5 454 Q350 434 350 406 Q350 377 337.5 354.5 Q325 332 304 316 Q283 300 255 291.5 Q227 283 196 283 Q158 283 120.5 294 Q83 305 54 325 L103 400 Z M607 630 L732 630 L332 0 L205 0 L607 630 Z M812 252 Q802 257 786.5 262 Q771 267 751 267 Q719 267 699 249.5 Q679 232 674 206 Q686 212 705 217 Q724 222 747 222 Q801 222 835 193.5 Q869 165 869 112 Q869 88 859 66 Q849 44 830 27.5 Q811 11 784 1 Q757 -9 723 -9 Q694 -9 666.5 0.5 Q639 10 617 30.5 Q595 51 582 83 Q569 115 569 159 Q569 203 582.5 239 Q596 275 620 300.5 Q644 326 677 339.5 Q710 353 749 353 Q779 353 803.5 346 Q828 339 847 330 L812 252 Z M673 132 Q674 104 686.5 88 Q699 72 722 72 Q743 72 757.5 82 Q772 92 772 111 Q772 128 759.5 137.5 Q747 147 726 147 Q712 147 697.5 142.5 Q683 138 673 132 Z " />
<glyph glyph-name="oneseventh" unicode="&#xf506;" horiz-adv-x="925" d="M166 528 L94 492 L54 571 L178 637 L275 637 L275 294 L166 294 L166 528 Z M577 630 L702 630 L302 0 L175 0 L577 630 Z M608 1 Q620 36 636.5 71.5 Q653 107 671 140.5 Q689 174 706.5 204 Q724 234 739 258 L578 258 L578 344 L851 344 L851 262 Q836 239 818 207.5 Q800 176 782 141.5 Q764 107 748.5 70.5 Q733 34 723 1 L608 1 Z " />
<glyph glyph-name="twosevenths" unicode="&#xf507;" horiz-adv-x="925" d="M56 348 Q56 373 68 392.5 Q80 412 98 428 Q116 444 137 457.5 Q158 471 176 483.5 Q194 496 206 507.5 Q218 519 218 531 Q218 545 208.5 551.5 Q199 558 183 558 Q163 558 139.5 549 Q116 540 95 526 L49 598 Q80 619 115.5 632.5 Q151 646 193 646 Q255 646 291.5 618 Q328 590 328 540 Q328 505 313 483 Q298 461 275.5 444.5 Q253 428 228 414 Q203 400 182 381 L330 381 L330 294 L56 294 L56 348 Z M604 630 L729 630 L329 0 L202 0 L604 630 Z M629 1 Q641 36 657.5 71.5 Q674 107 692 140.5 Q710 174 727.5 204 Q745 234 760 258 L599 258 L599 344 L872 344 L872 262 Q857 239 839 207.5 Q821 176 803 141.5 Q785 107 769.5 70.5 Q754 34 744 1 L629 1 Z " />
<glyph glyph-name="threesevenths" unicode="&#xf508;" horiz-adv-x="925" d="M99 402 Q119 388 142 379.5 Q165 371 189 371 Q210 371 224 379.5 Q238 388 238 406 Q238 428 221 435 Q204 442 183 442 Q171 442 157.5 440 Q144 438 133 435 L112 478 L221 553 L83 553 L83 637 L330 637 L330 561 L256 502 Q304 494 324 465.5 Q344 437 344 398 Q344 371 331.5 349.5 Q319 328 298 313.5 Q277 299 249 291.5 Q221 284 190 284 Q150 284 114.5 295.5 Q79 307 50 327 L99 402 Z M602 630 L727 630 L327 0 L200 0 L602 630 Z M632 1 Q644 36 660.5 71.5 Q677 107 695 140.5 Q713 174 730.5 204 Q748 234 763 258 L602 258 L602 344 L875 344 L875 262 Q860 239 842 207.5 Q824 176 806 141.5 Q788 107 772.5 70.5 Q757 34 747 1 L632 1 Z " />
<glyph glyph-name="foursevenths" unicode="&#xf509;" horiz-adv-x="925" d="M46 432 L206 637 L317 637 L317 427 L356 427 L356 353 L317 353 L317 294 L219 294 L219 353 L46 353 L46 432 Z M219 427 L219 548 L128 427 L219 427 Z M606 630 L731 630 L331 0 L204 0 L606 630 Z M631 1 Q643 36 659.5 71.5 Q676 107 694 140.5 Q712 174 729.5 204 Q747 234 762 258 L601 258 L601 344 L874 344 L874 262 Q859 239 841 207.5 Q823 176 805 141.5 Q787 107 771.5 70.5 Q756 34 746 1 L631 1 Z " />
<glyph glyph-name="fivesevenths" unicode="&#xf50a;" horiz-adv-x="925" d="M100 400 Q120 386 142.5 377.5 Q165 369 189 369 Q197 369 206.5 370.5 Q216 372 224 375.5 Q232 379 237.5 386 Q243 393 243 405 Q243 424 224.5 432 Q206 440 187 440 Q174 440 159 437 Q144 434 130 428 L82 466 L121 637 L328 637 L328 553 L195 553 L185 508 Q193 510 202.5 511 Q212 512 221 512 Q245 512 268 506 Q291 500 308.5 487 Q326 474 336.5 454 Q347 434 347 406 Q347 377 334.5 354.5 Q322 332 301 316 Q280 300 252 291.5 Q224 283 193 283 Q155 283 117.5 294 Q80 305 51 325 L100 400 Z M600 630 L725 630 L325 0 L198 0 L600 630 Z M630 1 Q642 36 658.5 71.5 Q675 107 693 140.5 Q711 174 728.5 204 Q746 234 761 258 L600 258 L600 344 L873 344 L873 262 Q858 239 840 207.5 Q822 176 804 141.5 Q786 107 770.5 70.5 Q755 34 745 1 L630 1 Z " />
<glyph glyph-name="sixsevenths" unicode="&#xf50b;" horiz-adv-x="925" d="M290 545 Q280 550 264.5 555 Q249 560 229 560 Q197 560 177 542.5 Q157 525 152 499 Q164 505 183 510 Q202 515 225 515 Q279 515 313 486.5 Q347 458 347 405 Q347 381 337 359 Q327 337 308 320.5 Q289 304 262 294 Q235 284 201 284 Q172 284 144.5 293.5 Q117 303 95 323.5 Q73 344 60 376 Q47 408 47 452 Q47 496 60.5 532 Q74 568 98 593.5 Q122 619 155 632.5 Q188 646 227 646 Q257 646 281.5 639 Q306 632 325 623 L290 545 Z M151 425 Q152 397 164.5 381 Q177 365 200 365 Q221 365 235.5 375 Q250 385 250 404 Q250 421 237.5 430.5 Q225 440 204 440 Q190 440 175.5 435.5 Q161 431 151 425 Z M601 630 L726 630 L326 0 L199 0 L601 630 Z M629 1 Q641 36 657.5 71.5 Q674 107 692 140.5 Q710 174 727.5 204 Q745 234 760 258 L599 258 L599 344 L872 344 L872 262 Q857 239 839 207.5 Q821 176 803 141.5 Q785 107 769.5 70.5 Q754 34 744 1 L629 1 Z " />
<glyph glyph-name="oneninth" unicode="&#xf50c;" horiz-adv-x="925" d="M163 528 L91 492 L51 571 L175 637 L272 637 L272 294 L163 294 L163 528 Z M573 630 L698 630 L298 0 L171 0 L573 630 Z M612 93 Q623 87 641 82.5 Q659 78 679 78 Q716 78 733.5 95 Q751 112 754 141 Q743 134 724.5 129 Q706 124 684 124 Q628 124 593.5 152.5 Q559 181 559 233 Q559 257 569 279 Q579 301 598 317.5 Q617 334 644 343.5 Q671 353 705 353 Q734 353 761.5 343.5 Q789 334 811 314 Q833 294 846 262.5 Q859 231 859 187 Q859 99 813 45 Q767 -9 675 -9 Q643 -9 617.5 -1 Q592 7 578 15 L612 93 Z M755 212 Q754 241 741.5 257 Q729 273 706 273 Q684 273 670.5 263 Q657 253 657 234 Q657 217 669.5 207.5 Q682 198 702 198 Q717 198 731.5 202.5 Q746 207 755 212 Z " />
<glyph glyph-name="twoninths" unicode="&#xf50d;" horiz-adv-x="925" d="M53 348 Q53 373 65 392.5 Q77 412 95 428 Q113 444 134 457.5 Q155 471 173 483.5 Q191 496 203 507.5 Q215 519 215 531 Q215 545 205.5 551.5 Q196 558 180 558 Q160 558 136.5 549 Q113 540 92 526 L46 598 Q77 619 112.5 632.5 Q148 646 190 646 Q252 646 288.5 618 Q325 590 325 540 Q325 505 310 483 Q295 461 272.5 444.5 Q250 428 225 414 Q200 400 179 381 L327 381 L327 294 L53 294 L53 348 Z M603 630 L728 630 L328 0 L201 0 L603 630 Z M635 93 Q646 87 664 82.5 Q682 78 702 78 Q739 78 756.5 95 Q774 112 777 141 Q766 134 747.5 129 Q729 124 707 124 Q651 124 616.5 152.5 Q582 181 582 233 Q582 257 592 279 Q602 301 621 317.5 Q640 334 667 343.5 Q694 353 728 353 Q757 353 784.5 343.5 Q812 334 834 314 Q856 294 869 262.5 Q882 231 882 187 Q882 99 836 45 Q790 -9 698 -9 Q666 -9 640.5 -1 Q615 7 601 15 L635 93 Z M778 212 Q777 241 764.5 257 Q752 273 729 273 Q707 273 693.5 263 Q680 253 680 234 Q680 217 692.5 207.5 Q705 198 725 198 Q740 198 754.5 202.5 Q769 207 778 212 Z " />
<glyph glyph-name="fourninths" unicode="&#xf50e;" horiz-adv-x="925" d="M40 432 L200 637 L311 637 L311 427 L350 427 L350 353 L311 353 L311 294 L213 294 L213 353 L40 353 L40 432 Z M213 427 L213 548 L122 427 L213 427 Z M605 630 L730 630 L330 0 L203 0 L605 630 Z M634 93 Q645 87 663 82.5 Q681 78 701 78 Q738 78 755.5 95 Q773 112 776 141 Q765 134 746.5 129 Q728 124 706 124 Q650 124 615.5 152.5 Q581 181 581 233 Q581 257 591 279 Q601 301 620 317.5 Q639 334 666 343.5 Q693 353 727 353 Q756 353 783.5 343.5 Q811 334 833 314 Q855 294 868 262.5 Q881 231 881 187 Q881 99 835 45 Q789 -9 697 -9 Q665 -9 639.5 -1 Q614 7 600 15 L634 93 Z M777 212 Q776 241 763.5 257 Q751 273 728 273 Q706 273 692.5 263 Q679 253 679 234 Q679 217 691.5 207.5 Q704 198 724 198 Q739 198 753.5 202.5 Q768 207 777 212 Z " />
<glyph glyph-name="fiveninths" unicode="&#xf50f;" horiz-adv-x="925" d="M98 400 Q118 386 140.5 377.5 Q163 369 187 369 Q195 369 204.5 370.5 Q214 372 222 375.5 Q230 379 235.5 386 Q241 393 241 405 Q241 424 222.5 432 Q204 440 185 440 Q172 440 157 437 Q142 434 128 428 L80 466 L119 637 L326 637 L326 553 L193 553 L183 508 Q191 510 200.5 511 Q210 512 219 512 Q243 512 266 506 Q289 500 306.5 487 Q324 474 334.5 454 Q345 434 345 406 Q345 377 332.5 354.5 Q320 332 299 316 Q278 300 250 291.5 Q222 283 191 283 Q153 283 115.5 294 Q78 305 49 325 L98 400 Z M600 630 L725 630 L325 0 L198 0 L600 630 Z M633 93 Q644 87 662 82.5 Q680 78 700 78 Q737 78 754.5 95 Q772 112 775 141 Q764 134 745.5 129 Q727 124 705 124 Q649 124 614.5 152.5 Q580 181 580 233 Q580 257 590 279 Q600 301 619 317.5 Q638 334 665 343.5 Q692 353 726 353 Q755 353 782.5 343.5 Q810 334 832 314 Q854 294 867 262.5 Q880 231 880 187 Q880 99 834 45 Q788 -9 696 -9 Q664 -9 638.5 -1 Q613 7 599 15 L633 93 Z M776 212 Q775 241 762.5 257 Q750 273 727 273 Q705 273 691.5 263 Q678 253 678 234 Q678 217 690.5 207.5 Q703 198 723 198 Q738 198 752.5 202.5 Q767 207 776 212 Z " />
<glyph glyph-name="sevenninths" unicode="&#xf510;" horiz-adv-x="925" d="M98 294 Q110 329 126.5 364.5 Q143 400 161 433.5 Q179 467 196.5 497 Q214 527 229 551 L68 551 L68 637 L341 637 L341 555 Q326 532 308 500.5 Q290 469 272 434.5 Q254 400 238.5 363.5 Q223 327 213 294 L98 294 Z M561 630 L686 630 L286 0 L159 0 L561 630 Z M602 93 Q613 87 631 82.5 Q649 78 669 78 Q706 78 723.5 95 Q741 112 744 141 Q733 134 714.5 129 Q696 124 674 124 Q618 124 583.5 152.5 Q549 181 549 233 Q549 257 559 279 Q569 301 588 317.5 Q607 334 634 343.5 Q661 353 695 353 Q724 353 751.5 343.5 Q779 334 801 314 Q823 294 836 262.5 Q849 231 849 187 Q849 99 803 45 Q757 -9 665 -9 Q633 -9 607.5 -1 Q582 7 568 15 L602 93 Z M745 212 Q744 241 731.5 257 Q719 273 696 273 Q674 273 660.5 263 Q647 253 647 234 Q647 217 659.5 207.5 Q672 198 692 198 Q707 198 721.5 202.5 Q736 207 745 212 Z " />
<glyph glyph-name="eightninths" unicode="&#xf511;" horiz-adv-x="925" d="M101 475 Q57 502 57 547 Q57 573 69.5 591.5 Q82 610 101.5 622 Q121 634 145.5 640 Q170 646 194 646 Q218 646 243 640.5 Q268 635 287.5 623 Q307 611 319.5 592 Q332 573 332 547 Q332 524 320 505.5 Q308 487 288 475 Q313 464 330 443 Q347 422 347 393 Q347 364 333.5 343 Q320 322 298 309 Q276 296 248.5 290 Q221 284 194 284 Q167 284 140 290 Q113 296 91 309 Q69 322 55.5 343 Q42 364 42 393 Q42 422 59.5 442.5 Q77 463 101 475 Z M192 505 Q207 510 221 518 Q235 526 235 543 Q235 559 222 566.5 Q209 574 194 574 Q179 574 166 566.5 Q153 559 153 543 Q153 526 165.5 518 Q178 510 192 505 Z M196 442 Q179 437 163.5 425 Q148 413 148 395 Q148 378 162.5 370 Q177 362 194 362 Q211 362 225.5 370 Q240 378 240 395 Q240 413 225.5 425 Q211 437 196 442 Z M603 630 L728 630 L328 0 L201 0 L603 630 Z M635 93 Q646 87 664 82.5 Q682 78 702 78 Q739 78 756.5 95 Q774 112 777 141 Q766 134 747.5 129 Q729 124 707 124 Q651 124 616.5 152.5 Q582 181 582 233 Q582 257 592 279 Q602 301 621 317.5 Q640 334 667 343.5 Q694 353 728 353 Q757 353 784.5 343.5 Q812 334 834 314 Q856 294 869 262.5 Q882 231 882 187 Q882 99 836 45 Q790 -9 698 -9 Q666 -9 640.5 -1 Q615 7 601 15 L635 93 Z M778 212 Q777 241 764.5 257 Q752 273 729 273 Q707 273 693.5 263 Q680 253 680 234 Q680 217 692.5 207.5 Q705 198 725 198 Q740 198 754.5 202.5 Q769 207 778 212 Z " />
<glyph glyph-name="partialdiff" unicode="&#x2202;" horiz-adv-x="552" d="M98 600 Q128 618 176.5 633 Q225 648 277 648 Q337 648 382 626 Q427 604 457 565.5 Q487 527 502 474 Q517 421 517 359 Q517 270 496 200.5 Q475 131 437 82.5 Q399 34 345.5 8.5 Q292 -17 227 -17 Q181 -17 144.5 -3 Q108 11 82.5 36 Q57 61 43.5 95.5 Q30 130 30 172 Q30 223 48.5 267.5 Q67 312 98.5 344.5 Q130 377 171.5 395.5 Q213 414 260 414 Q298 414 326.5 407 Q355 400 378 386 Q378 412 370.5 436.5 Q363 461 348.5 480 Q334 499 311.5 510.5 Q289 522 259 522 Q241 522 223.5 518.5 Q206 515 192 510.5 Q178 506 167.5 501 Q157 496 151 493 L98 600 Z M367 267 Q349 279 324.5 288 Q300 297 267 297 Q225 297 195 267.5 Q165 238 165 190 Q165 152 185 130 Q205 108 241 108 Q292 108 324 149 Q356 190 367 267 Z " />
<glyph glyph-name="Delta" unicode="&#x2206;" horiz-adv-x="729" d="M34 125 L290 667 L439 667 L695 125 L695 0 L34 0 L34 125 Z M539 134 L361 515 L189 134 L539 134 Z " />
<glyph glyph-name="product" unicode="&#x220f;" horiz-adv-x="763" d="M127 532 L19 532 L19 667 L744 667 L744 532 L636 532 L636 -123 L485 -123 L485 532 L278 532 L278 -123 L127 -123 L127 532 Z " />
<glyph glyph-name="summation" unicode="&#x2211;" horiz-adv-x="586" d="M39 8 L225 280 L39 537 L39 667 L547 667 L547 534 L215 534 L399 280 L215 12 L547 12 L547 -122 L39 -122 L39 8 Z " />
<glyph glyph-name="uni2126" unicode="&#x2126;" horiz-adv-x="801" d="M44 132 L169 132 Q112 174 83.5 232.5 Q55 291 55 363 Q55 434 82 493 Q109 552 156.5 595 Q204 638 267.5 661.5 Q331 685 403 685 Q475 685 537.5 661.5 Q600 638 646.5 596 Q693 554 719.5 495 Q746 436 746 364 Q746 292 717.5 233 Q689 174 632 132 L756 132 L756 0 L457 0 L457 133 Q488 144 513 166.5 Q538 189 554.5 218 Q571 247 580 280.5 Q589 314 589 349 Q589 391 576 427 Q563 463 539 489 Q515 515 480 530 Q445 545 400 545 Q353 545 317.5 528.5 Q282 512 258.5 484.5 Q235 457 223.5 421.5 Q212 386 212 347 Q212 314 220.5 280.5 Q229 247 246 217.5 Q263 188 287.5 166 Q312 144 344 133 L344 0 L44 0 L44 132 Z " />
<glyph glyph-name="minus" unicode="&#x2212;" horiz-adv-x="545" d="M73 376 L472 376 L472 261 L73 261 L73 376 Z " />
<glyph glyph-name="uni2215" unicode="&#x2215;" horiz-adv-x="195" d="M237 630 L362 630 L-38 0 L-165 0 L237 630 Z " />
<glyph glyph-name="uni2219" unicode="&#x2219;" horiz-adv-x="257" d="M61 420 L196 420 L196 294 L61 294 L61 420 Z " />
<glyph glyph-name="radical" unicode="&#x221a;" horiz-adv-x="617" d="M128 266 L45 266 L45 403 L216 403 L316 192 L488 732 L633 732 L398 0 L261 0 L128 266 Z " />
<glyph glyph-name="infinity" unicode="&#x221e;" horiz-adv-x="702" d="M303 314 Q292 353 266 376 Q240 399 215 399 Q198 399 184.5 392 Q171 385 161.5 373 Q152 361 147 345.5 Q142 330 142 314 Q142 281 161 254.5 Q180 228 215 228 Q240 228 266 251 Q292 274 303 314 Z M399 314 Q410 274 436 251 Q462 228 487 228 Q522 228 541 254.5 Q560 281 560 314 Q560 330 555 345.5 Q550 361 540.5 373 Q531 385 517.5 392 Q504 399 487 399 Q462 399 436 376 Q410 353 399 314 Z M351 191 Q342 178 327.5 165.5 Q313 153 295 142.5 Q277 132 255.5 125.5 Q234 119 212 119 Q172 119 138.5 132.5 Q105 146 81 171 Q57 196 44 232.5 Q31 269 31 314 Q31 359 44 395 Q57 431 81 456.5 Q105 482 138.5 495.5 Q172 509 212 509 Q257 509 294.5 487.5 Q332 466 352 437 Q372 466 409 487.5 Q446 509 492 509 Q531 509 564 495.5 Q597 482 621 456.5 Q645 431 658 395 Q671 359 671 314 Q671 269 658 232.5 Q645 196 621 171 Q597 146 563.5 132.5 Q530 119 490 119 Q445 119 408 140.5 Q371 162 351 191 Z " />
<glyph glyph-name="integral" unicode="&#x222b;" horiz-adv-x="552" d="M200 478 Q200 520 210.5 557.5 Q221 595 244.5 623.5 Q268 652 304.5 668.5 Q341 685 392 685 Q486 685 545 631 L478 541 Q464 550 447 557 Q430 564 413 564 Q375 564 359 541 Q343 518 343 481 L343 82 Q343 41 332.5 4 Q322 -33 298.5 -61 Q275 -89 238.5 -105.5 Q202 -122 151 -122 Q58 -122 -1 -68 Q16 -45 32.5 -23 Q49 -1 66 22 Q79 12 96.5 5.5 Q114 -1 131 -1 Q170 -1 185 22 Q200 45 200 82 L200 478 Z " />
<glyph glyph-name="approxequal" unicode="&#x2248;" horiz-adv-x="553" d="M50 427 Q73 453 109 473.5 Q145 494 188 494 Q210 494 228 487 Q246 480 262.5 471.5 Q279 463 296.5 456 Q314 449 336 449 Q371 449 393.5 461 Q416 473 436 487 L492 397 Q481 385 465.5 373 Q450 361 432 351.5 Q414 342 394.5 335.5 Q375 329 356 329 Q333 329 314 336.5 Q295 344 277 353.5 Q259 363 241.5 370.5 Q224 378 204 378 Q169 378 147 365 Q125 352 105 338 L50 427 Z M59 242 Q81 266 117 288 Q153 310 195 310 Q218 310 236 303 Q254 296 271.5 287 Q289 278 307 271 Q325 264 347 264 Q381 264 403.5 276 Q426 288 446 302 L503 212 Q492 200 476.5 188 Q461 176 443 166.5 Q425 157 405 150.5 Q385 144 364 144 Q342 144 324 151.5 Q306 159 289 168.5 Q272 178 254.5 185.5 Q237 193 215 193 Q181 193 158 180 Q135 167 115 153 L59 242 Z " />
<glyph glyph-name="notequal" unicode="&#x2260;" horiz-adv-x="545" d="M137 165 L73 165 L73 280 L200 280 L238 348 L73 348 L73 463 L301 463 L361 572 L440 532 L402 463 L472 463 L472 348 L339 348 L302 280 L472 280 L472 165 L239 165 L180 57 L100 97 L137 165 Z " />
<glyph glyph-name="lessequal" unicode="&#x2264;" horiz-adv-x="545" d="M62 115 L460 115 L460 0 L62 0 L62 115 Z M59 415 L414 602 L465 500 L217 374 L469 248 L414 143 L59 330 L59 415 Z " />
<glyph glyph-name="greaterequal" unicode="&#x2265;" horiz-adv-x="545" d="M84 248 L336 374 L88 500 L139 602 L494 415 L494 330 L139 143 L84 248 Z M93 115 L491 115 L491 0 L93 0 L93 115 Z " />
<glyph glyph-name="lozenge" unicode="&#x25ca;" horiz-adv-x="589" d="M30 333 L228 667 L360 667 L559 333 L360 0 L228 0 L30 333 Z M410 333 L294 537 L179 333 L294 129 L410 333 Z " />
<glyph glyph-name="f_f" unicode="&#xfb00;" horiz-adv-x="667" d="M90 356 L14 356 L14 469 L90 469 L90 485 Q90 541 106.5 579 Q123 617 150 640.5 Q177 664 210.5 674.5 Q244 685 278 685 Q309 685 341.5 675.5 Q374 666 403 643 L350 549 Q322 569 293 569 Q269 569 251 552.5 Q233 536 233 498 L233 469 L401 469 L401 493 Q401 542 417 578 Q433 614 459.5 638 Q486 662 520.5 673.5 Q555 685 593 685 Q631 685 670 674 Q709 663 741 636 L680 545 Q665 556 647 562 Q629 568 610 568 Q581 568 562.5 548 Q544 528 544 495 L544 469 L655 469 L655 356 L544 356 L544 0 L401 0 L401 356 L233 356 L233 0 L90 0 L90 356 Z " />
<glyph glyph-name="fi" unicode="&#xf001;" horiz-adv-x="585" d="M90 356 L14 356 L14 469 L90 469 L90 475 Q90 535 110.5 575.5 Q131 616 164.5 640 Q198 664 241.5 674.5 Q285 685 332 685 Q378 685 430 672.5 Q482 660 523 635 L469 536 Q442 550 406.5 561 Q371 572 336 572 Q287 572 260 553.5 Q233 535 233 490 L233 469 L527 469 L527 0 L384 0 L384 356 L233 356 L233 0 L90 0 L90 356 Z " />
<glyph glyph-name="f_i" unicode="&#xfb01;" horiz-adv-x="585" d="M90 356 L14 356 L14 469 L90 469 L90 475 Q90 535 110.5 575.5 Q131 616 164.5 640 Q198 664 241.5 674.5 Q285 685 332 685 Q378 685 430 672.5 Q482 660 523 635 L469 536 Q442 550 406.5 561 Q371 572 336 572 Q287 572 260 553.5 Q233 535 233 490 L233 469 L527 469 L527 0 L384 0 L384 356 L233 356 L233 0 L90 0 L90 356 Z " />
<glyph glyph-name="fl" unicode="&#xf002;" horiz-adv-x="586" d="M90 356 L14 356 L14 469 L90 469 L90 481 Q90 538 109 577 Q128 616 160.5 640 Q193 664 236.5 674.5 Q280 685 328 685 Q359 685 389.5 680.5 Q420 676 446.5 668.5 Q473 661 495 651.5 Q517 642 532 633 L532 0 L389 0 L389 561 Q377 566 358.5 568.5 Q340 571 323 571 Q276 571 254.5 551.5 Q233 532 233 487 L233 469 L333 469 L333 356 L233 356 L233 0 L90 0 L90 356 Z " />
<glyph glyph-name="f_l" unicode="&#xfb02;" horiz-adv-x="586" d="M90 356 L14 356 L14 469 L90 469 L90 481 Q90 538 109 577 Q128 616 160.5 640 Q193 664 236.5 674.5 Q280 685 328 685 Q359 685 389.5 680.5 Q420 676 446.5 668.5 Q473 661 495 651.5 Q517 642 532 633 L532 0 L389 0 L389 561 Q377 566 358.5 568.5 Q340 571 323 571 Q276 571 254.5 551.5 Q233 532 233 487 L233 469 L333 469 L333 356 L233 356 L233 0 L90 0 L90 356 Z " />
<glyph glyph-name="f_f_i" unicode="&#xfb03;" horiz-adv-x="896" d="M90 356 L14 356 L14 469 L90 469 L90 485 Q90 539 106 577 Q122 615 148.5 639 Q175 663 209 674 Q243 685 278 685 Q309 685 341.5 675.5 Q374 666 403 643 L350 549 Q322 569 293 569 Q269 569 250.5 552.5 Q232 536 232 498 L232 469 L401 469 L401 475 Q401 533 421 573.5 Q441 614 474 638.5 Q507 663 550 674 Q593 685 639 685 Q688 685 740.5 672.5 Q793 660 834 635 L780 536 Q753 550 717.5 561 Q682 572 647 572 Q598 572 571 553 Q544 534 544 483 L544 469 L838 469 L838 0 L695 0 L695 356 L544 356 L544 0 L401 0 L401 356 L234 356 L234 0 L90 0 L90 356 Z " />
<glyph glyph-name="f_f_l" unicode="&#xfb04;" horiz-adv-x="897" d="M90 356 L14 356 L14 469 L90 469 L90 493 Q90 543 106.5 579 Q123 615 149.5 638.5 Q176 662 209.5 673.5 Q243 685 278 685 Q309 685 341.5 675.5 Q374 666 403 643 L350 549 Q322 569 293 569 Q269 569 250.5 552.5 Q232 536 232 498 L232 469 L401 469 L401 481 Q401 538 420 577 Q439 616 471.5 640 Q504 664 547.5 674.5 Q591 685 639 685 Q670 685 700.5 680.5 Q731 676 757.5 668.5 Q784 661 806 651.5 Q828 642 843 633 L843 0 L700 0 L700 561 Q688 566 669.5 568.5 Q651 571 634 571 Q587 571 565.5 551.5 Q544 532 544 487 L544 469 L644 469 L644 356 L544 356 L544 0 L401 0 L401 356 L234 356 L234 0 L90 0 L90 356 Z " />
<glyph glyph-name="zero.alt" unicode="&#xf800;" horiz-adv-x="577" d="M288 -16 Q226 -16 180 8.5 Q134 33 102.5 77 Q71 121 55.5 183 Q40 245 40 319 Q40 392 55.5 453 Q71 514 102.5 557 Q134 600 180.5 624 Q227 648 289 648 Q352 648 399 624 Q446 600 476.5 557 Q507 514 522 453 Q537 392 537 319 Q537 245 522 183 Q507 121 476 77 Q445 33 398.5 8.5 Q352 -16 288 -16 Z M289 115 Q316 115 335.5 131 Q355 147 367.5 174.5 Q380 202 385.5 239 Q391 276 391 319 Q391 361 385 397 Q379 433 366.5 459.5 Q354 486 334.5 501 Q315 516 288 516 Q261 516 241.5 501 Q222 486 209.5 459.5 Q197 433 191.5 397 Q186 361 186 319 Q186 276 191.5 239 Q197 202 209.5 174.5 Q222 147 241.5 131 Q261 115 289 115 Z " />
<glyph glyph-name="one.alt" unicode="&#xf801;" horiz-adv-x="455" d="M70 123 L179 123 L179 473 L74 417 L13 527 L200 630 L319 630 L319 123 L422 123 L422 0 L70 0 L70 123 Z " />
<glyph glyph-name="two.alt" unicode="&#xf802;" horiz-adv-x="516" d="M42 85 Q42 135 62.5 175 Q83 215 114 248 Q145 281 181.5 308.5 Q218 336 249 360.5 Q280 385 300.5 408.5 Q321 432 321 457 Q321 481 302 502 Q283 523 239 523 Q217 523 199.5 516 Q182 509 168.5 498.5 Q155 488 145.5 475.5 Q136 463 129 453 L24 526 Q37 548 57.5 570 Q78 592 106.5 609.5 Q135 627 172 637.5 Q209 648 255 648 Q309 648 349 632.5 Q389 617 415.5 592 Q442 567 455 535 Q468 503 468 469 Q468 424 449 388 Q430 352 401 322 Q372 292 338.5 266.5 Q305 241 276 218 Q247 195 227.5 173 Q208 151 208 128 L471 128 L471 0 L42 0 L42 85 Z " />
<glyph glyph-name="three.alt" unicode="&#xf803;" horiz-adv-x="529" d="M84 163 Q115 136 147.5 121.5 Q180 107 219 107 Q265 107 295.5 132 Q326 157 326 202 Q326 237 302.5 264 Q279 291 228 291 Q209 291 192.5 287.5 Q176 284 167 280 L130 339 L291 504 L56 504 L56 629 L452 629 L452 526 L321 378 Q396 364 434.5 315 Q473 266 473 192 Q473 142 452.5 103 Q432 64 398 37.5 Q364 11 319.5 -3 Q275 -17 227 -17 Q157 -17 101.5 4 Q46 25 6 61 L84 163 Z " />
<glyph glyph-name="four.alt" unicode="&#xf804;" horiz-adv-x="549" d="M31 226 L303 630 L446 630 L446 228 L510 228 L510 115 L446 115 L446 0 L312 0 L312 115 L31 115 L31 226 Z M312 228 L312 461 L160 228 L312 228 Z " />
<glyph glyph-name="five.alt" unicode="&#xf805;" horiz-adv-x="513" d="M80 163 Q107 138 138 123 Q169 108 211 108 Q239 108 259.5 116.5 Q280 125 293 139 Q306 153 312 171 Q318 189 318 208 Q318 223 312 240 Q306 257 293 271 Q280 285 259 294 Q238 303 208 303 Q182 303 160 297.5 Q138 292 118 284 L52 333 L107 629 L447 629 L447 503 L206 503 L187 402 Q194 405 212.5 407.5 Q231 410 250 410 Q296 410 335 396 Q374 382 402.5 355.5 Q431 329 446.5 292 Q462 255 462 209 Q462 164 447.5 123 Q433 82 402.5 51 Q372 20 325.5 1.5 Q279 -17 215 -17 Q143 -17 92 5.5 Q41 28 3 63 L80 163 Z " />
<glyph glyph-name="six.alt" unicode="&#xf806;" horiz-adv-x="545" d="M433 497 Q421 503 393.5 513.5 Q366 524 332 524 Q305 524 280.5 513.5 Q256 503 237 483.5 Q218 464 205 437 Q192 410 189 377 Q211 391 241 402.5 Q271 414 309 414 Q355 414 392.5 399 Q430 384 456 357 Q482 330 496 292 Q510 254 510 208 Q510 162 495 121 Q480 80 451 49.5 Q422 19 380.5 1 Q339 -17 285 -17 Q234 -17 189.5 0.5 Q145 18 112.5 56.5 Q80 95 61.5 154.5 Q43 214 43 298 Q43 372 61.5 436 Q80 500 117 547 Q154 594 207.5 621 Q261 648 332 648 Q386 648 424.5 634 Q463 620 487 608 L433 497 Z M186 264 Q186 219 194.5 188.5 Q203 158 216.5 140 Q230 122 248 114.5 Q266 107 285 107 Q327 107 351.5 135.5 Q376 164 376 209 Q376 251 351 275 Q326 299 288 299 Q252 299 227.5 288.5 Q203 278 186 264 Z " />
<glyph glyph-name="seven.alt" unicode="&#xf807;" horiz-adv-x="485" d="M78 0 Q97 62 126 135 Q155 208 186 278 Q217 348 247 407.5 Q277 467 299 502 L21 502 L21 630 L446 630 L446 509 Q416 458 384.5 394 Q353 330 324.5 262 Q296 194 271 126 Q246 58 229 0 L78 0 Z " />
<glyph glyph-name="eight.alt" unicode="&#xf808;" horiz-adv-x="575" d="M287 388 Q322 399 345 422 Q368 445 368 474 Q368 506 345.5 526 Q323 546 287 546 Q252 546 228.5 525.5 Q205 505 205 472 Q205 445 228.5 422 Q252 399 287 388 Z M286 285 Q266 280 248 271.5 Q230 263 215.5 250 Q201 237 192.5 220.5 Q184 204 184 184 Q184 161 193 145 Q202 129 216.5 118.5 Q231 108 249.5 103 Q268 98 287 98 Q305 98 323.5 103 Q342 108 357 118.5 Q372 129 381 145 Q390 161 390 184 Q390 204 381 220.5 Q372 237 357 250 Q342 263 323.5 271.5 Q305 280 286 285 Z M150 347 Q120 365 97 399.5 Q74 434 74 479 Q74 515 89 546 Q104 577 132 599.5 Q160 622 199.5 635 Q239 648 287 648 Q337 648 377 635.5 Q417 623 444.5 600.5 Q472 578 486.5 547.5 Q501 517 501 481 Q501 435 477 401 Q453 367 423 349 Q474 326 504 284 Q534 242 534 181 Q534 148 519.5 113 Q505 78 475 49.5 Q445 21 398 2.5 Q351 -16 287 -16 Q222 -16 175.5 1.5 Q129 19 99 46.5 Q69 74 54.5 109 Q40 144 40 179 Q40 240 70.5 282 Q101 324 150 347 Z " />
<glyph glyph-name="nine.alt" unicode="&#xf809;" horiz-adv-x="544" d="M112 136 Q118 133 129.5 128 Q141 123 156 118.5 Q171 114 188 110.5 Q205 107 222 107 Q287 107 319.5 147.5 Q352 188 357 250 Q337 237 306.5 225.5 Q276 214 233 214 Q186 214 149.5 231 Q113 248 88 276.5 Q63 305 49.5 342.5 Q36 380 36 422 Q36 468 51 509 Q66 550 94.5 581 Q123 612 164.5 630 Q206 648 260 648 Q311 648 355.5 630 Q400 612 432 573 Q464 534 482.5 472 Q501 410 501 323 Q501 255 485 193.5 Q469 132 435.5 85.5 Q402 39 349 11.5 Q296 -16 222 -16 Q168 -16 124 -2.5 Q80 11 57 24 L112 136 Z M360 367 Q360 410 352.5 440 Q345 470 331.5 488.5 Q318 507 300.5 515 Q283 523 262 523 Q220 523 195 495.5 Q170 468 170 423 Q170 385 193.5 358.5 Q217 332 256 332 Q296 332 318.5 342.5 Q341 353 360 367 Z " />
<glyph glyph-name="zero.sups" unicode="&#xf80a;" horiz-adv-x="360" d="M179 374 Q103 374 60.5 422.5 Q18 471 18 556 Q18 641 60.5 688.5 Q103 736 179 736 Q255 736 297.5 688.5 Q340 641 340 556 Q340 471 297.5 422.5 Q255 374 179 374 Z M179 461 Q205 461 218.5 487.5 Q232 514 232 556 Q232 597 218.5 623.5 Q205 650 179 650 Q153 650 139.5 623.5 Q126 597 126 556 Q126 514 139.5 487.5 Q153 461 179 461 Z " />
<glyph glyph-name="one.sups" unicode="&#xf80b;" horiz-adv-x="360" d="M165 618 L93 582 L53 661 L177 727 L274 727 L274 384 L165 384 L165 618 Z " />
</font>
</svg>
